<?xml version="1.0" standalone="yes"?>
<svg xmlns="http://www.w3.org/2000/svg" width="3809" height="3809">
<path style="fill:#ffffff; stroke:none;" d="M0 0L0 1860L1 1860C1 1741.61 17.1624 1621.81 41.7894 1506C120.913 1133.9 314.109 789.901 589 527.039C839.144 287.842 1154.05 119.218 1492 44.5757C1609.11 18.7095 1731.04 1 1851 1C1838.83 -4.1062 1817.25 0 1804 0L1695 0L1315 0L0 0z"/>
<path style="fill:#ff0101; stroke:none;" d="M1851 0.424316C1835.57 2.45117 1819.54 1.02588 1804 2.08936C1766.96 4.62549 1729.99 7.4707 1693 11.1689C1583.97 22.0693 1475.12 44.7092 1370 75.4243C903.065 211.861 499.596 529.287 255.424 950C-14.3877 1414.89 -72.724 1986.5 93.6698 2497C156.19 2688.81 250.205 2870.63 369.884 3033C512.03 3225.85 689.794 3389.7 892 3517.95C1065.14 3627.76 1258.53 3708.83 1458 3756.12C1684.24 3809.75 1920.54 3823.02 2151 3792.72C2360.71 3765.14 2565.74 3703.36 2755 3608.73C3166.65 3402.9 3495.91 3047.2 3669.4 2621C3760.2 2397.92 3806.14 2158.3 3809 1918C3814.97 1415.63 3610.97 925.765 3260.99 567C3037.89 338.312 2751.55 167.147 2445 77.5757C2302.86 36.0422 2158.38 13.0007 2011 2.91064C1975.39 0.472412 1939.76 0 1904 0C1886.68 0 1868.18 -1.83179 1851 0.424316z"/>
<path style="fill:#ffffff; stroke:none;" d="M1957 0L1957 1C2093.49 1 2232.65 23.04 2365 56.1265C2694.88 138.597 2996.76 309.723 3240 547.015C3595.12 893.443 3808 1387.39 3808 1884L3809 1884L3809 0L1957 0M1853 34.4243C1837.57 36.4512 1821.54 35.0259 1806 36.0894C1766.28 38.8088 1726.65 41.9192 1687 46.166C1575.63 58.0957 1465.15 82.4399 1358 114.72C1061.73 203.972 786.046 371.544 570.015 593C443.089 723.113 336.721 870.223 250.309 1030C153.908 1208.25 88.6151 1406.86 57.5756 1607C12.7201 1896.22 34.0757 2190.21 121.025 2470C269.049 2946.32 619.459 3351.91 1064 3575.75C1393.41 3741.62 1774.41 3807.79 2140 3759.72C2344.68 3732.8 2542.18 3673.65 2728 3583.74C3158.36 3375.51 3498.21 2993.12 3661.95 2545C3735.42 2343.91 3772.46 2130.63 3775 1917C3780.99 1412.92 3569.65 908.728 3205 560.039C2985.83 350.464 2720.36 193.71 2429 108.576C2291.61 68.4297 2151.43 46.6616 2009 36.9106C1974.05 34.5181 1939.09 34 1904 34C1887.32 34 1869.54 32.2524 1853 34.4243z"/>
<path style="fill:#ff0101; stroke:none;" d="M1693 287C1680.48 287.996 1675.31 295.788 1666.62 303.501C1662.44 307.214 1656.39 306.798 1652 310.344C1644.83 316.147 1641.12 325.308 1633.79 331.364C1618.57 343.929 1599.1 350.513 1582 359.428C1573.42 363.903 1566.55 371.256 1558 375.573C1547.7 380.773 1533.89 384.037 1525.11 391.419C1519.16 396.419 1520.67 402.327 1521.55 409C1522.08 413.038 1520.39 417.198 1522.32 420.996C1526.38 428.984 1543.71 435.102 1552 437.359C1567.53 441.587 1575.82 429.615 1586.14 421.701C1590.93 418.029 1597.06 417.093 1601.87 412.995C1604.6 410.663 1605.96 406.822 1609.11 405.024C1624.47 396.236 1642.28 393.324 1657 382.239C1665.2 376.062 1672.78 369.065 1681 362.669C1684.02 360.322 1688.72 356.385 1692.9 357.698C1699.55 359.792 1700.82 375.308 1699.77 380.985C1698.19 389.556 1687.86 395.626 1685.84 405C1684.85 409.597 1686.83 424.925 1689.12 429C1693.27 436.372 1700.36 440.571 1703 449C1689.85 457.021 1686.58 473.073 1678.85 484.957C1675.97 489.383 1670.79 491.904 1667.4 496.015C1661.68 502.947 1658.04 510.663 1652.93 517.775C1647.74 524.981 1638.75 524.158 1635.52 534.001C1633.2 541.076 1631.03 560.537 1635.6 566.867C1640.38 573.483 1653.7 574.415 1661 572.686C1674.51 569.487 1673.35 555.86 1680.39 547.015C1687.55 538.024 1700.24 531.443 1710 526C1711.72 539.629 1709.69 554.744 1712.52 568C1715.02 579.727 1721.71 589.254 1728.03 599C1732.52 605.907 1737.21 613.174 1745 616.976C1751.72 620.254 1763.63 618 1771 618C1792.72 618 1809.5 621.945 1829 609.301C1836.16 604.661 1844.48 595.364 1843.55 586C1842.45 575.002 1827.44 572.645 1819 574.927C1800.35 579.972 1769.55 602.056 1760.32 573.17C1758.34 566.967 1763.04 563.529 1768 561.238C1780.14 555.628 1792.48 553.04 1804 545.33C1821.78 533.429 1841.69 515.841 1846.61 494C1848.16 487.112 1845.96 479.922 1846 473C1846.04 468.07 1847.73 462.896 1846.72 458C1845.49 452.008 1839.39 447.107 1835 443.289C1819.39 429.714 1804.15 428.251 1784 430.17C1779.11 430.635 1758.83 435.698 1759.87 425.981C1760.43 420.706 1764.91 415.964 1766.59 411C1768.01 406.808 1767.64 401.879 1770.65 398.34C1772.9 395.694 1776.62 395.133 1778.79 392.491C1782.66 387.757 1785.71 379.875 1792.05 377.614C1802.63 373.847 1815.62 379.464 1826 375.532C1861.93 361.916 1894.19 332.001 1892.57 291.043C1892.16 280.891 1869.05 274.34 1861 274.044C1848.25 273.575 1835.68 277.651 1824 281.415C1819.67 282.809 1815.29 280.344 1811 281.575C1802.92 283.891 1794.97 289.669 1787 292.797C1780.94 295.176 1764.48 302.411 1758.75 296.396C1752.21 289.53 1764.72 276.374 1770 273.337C1777.56 268.992 1789.9 265.709 1795.44 258.786C1798.45 255.012 1798 249.529 1798 245C1798 233.644 1800.23 222.511 1795.32 212.004C1788.41 197.235 1773.08 199.388 1760 199.961C1741.65 200.764 1727.66 197.143 1710 204.616C1702.89 207.623 1699.93 215.214 1693 217.983C1689.4 219.421 1685.75 217.198 1682 217.968C1673.38 219.737 1668.47 224.867 1662.55 230.701C1660.55 232.664 1657.2 233.34 1656.32 236.228C1650.07 256.775 1682.72 258.975 1692.27 270.314C1696.46 275.284 1693.93 281.493 1693 287M2032 574C2037.6 577.625 2034.23 585.946 2042 588.656C2051.96 592.125 2076.01 590.155 2084.3 583.066C2090.72 577.58 2095.74 567.806 2100.9 561C2111.76 546.69 2126.29 532.199 2143 525C2142.99 536.771 2139.28 548.173 2139.05 560C2138.88 568.882 2142.1 578.261 2143.56 587C2144.3 591.385 2143.09 598.825 2145.07 602.575C2154.54 620.494 2179.56 625.305 2197 627.174C2201.18 627.621 2205.75 630.048 2209.96 629.397C2213.19 628.899 2215.75 626.352 2219.01 625.634C2233.83 622.373 2252.67 622.566 2265.99 614.637C2274.89 609.335 2281.39 597.01 2287.8 589C2296.84 577.705 2308.43 566.1 2315.79 553.83C2319.87 547.034 2321.84 538.986 2325.79 532.039C2328.97 526.46 2334.05 521.942 2336.61 516C2347.02 491.833 2359.33 467.416 2367.1 442C2369.74 433.333 2363.45 418.801 2373 414C2373 391.426 2374.32 373.168 2361.94 353C2358.55 347.479 2354.97 341.168 2348.99 338.1C2341.61 334.316 2330.2 333.169 2322 333L2323 321C2337.56 316.825 2332.77 293.188 2324.83 285.17C2307.46 267.63 2286.9 259.039 2262 261.173C2258.18 261.5 2254.99 263.957 2252 266.156C2242.49 273.158 2238.1 280.657 2235.5 292C2233.4 301.143 2234.39 310.916 2226 316.957C2209.82 328.594 2187.89 331.174 2169 335.895C2140.73 342.962 2112.13 352.173 2085 362.812C2078.07 365.529 2072.54 370.431 2066 373.879C2060.54 376.756 2054.05 378.055 2049 381.649C2045.57 384.093 2042.54 387.616 2042.36 392C2041.98 401.221 2051.76 406.086 2060 406.895C2084.26 409.276 2109.63 410.99 2134 411C2140.01 411.002 2164.31 407.446 2160.53 420.001C2158.54 426.614 2152.11 433.238 2148.34 439C2135.74 458.274 2121.58 473.99 2106.46 491.089C2098.24 500.395 2093.43 513.573 2083.96 521.624C2069.47 533.943 2055.26 545.279 2043 559.985C2038.96 564.828 2033.32 567.492 2032 574z"/>
<path style="fill:#ffffff; stroke:none;" d="M1754 339C1769.76 342.261 1784.91 351.533 1801 351.766C1809.66 351.892 1818.39 344.857 1825 340.141C1837.67 331.111 1847.05 329.459 1853 314C1841.81 307.794 1837.48 308.807 1825.42 309.097C1819.67 309.236 1814.81 307.339 1809 309.043C1798.81 312.032 1790.06 318.465 1780 321.652C1768.76 325.212 1751.98 322.545 1754 339z"/>
<path style="fill:#ff0101; stroke:none;" d="M1148 741L1146 741C1143.13 731.059 1133.51 727.101 1129.35 718C1120.67 698.969 1115.24 678.105 1106.22 659C1098.76 643.193 1090.4 627.489 1082.24 612.015C1080.1 607.942 1075.65 605.191 1074.05 600.96C1072.46 596.75 1074.98 592.336 1074.01 588C1071.12 575.151 1066.88 561.105 1065.81 548C1065.05 538.744 1067.62 526.101 1069.61 517C1070.22 514.189 1069.42 510.081 1070.92 507.634C1074.02 502.59 1083.07 502.11 1087.5 498.045C1097.67 488.728 1098.3 463.749 1087.79 454.613C1064.72 434.562 1028.9 464.316 1033.85 491C1037.75 511.99 1031.74 535.725 1032 558C1032.12 568.078 1039.13 574.756 1040.36 584C1040.83 587.517 1038.49 590.497 1038.56 594C1038.7 601.444 1041.19 609.812 1043.04 617C1044.71 623.461 1050.08 627.232 1053 633C1055.61 638.138 1054.58 643.915 1057.33 648.981C1059.53 653.028 1063.5 655.254 1066.03 659.019C1071.75 667.516 1075.32 679.183 1078 689L1081 688C1082.89 693.95 1082.7 700.309 1085.32 706C1096.22 729.59 1115.58 749.004 1131.66 769C1141.72 781.506 1150.34 794.333 1163.04 804.789C1174.65 814.351 1198.19 829.241 1211.3 812.775C1217.54 804.936 1215.53 787.022 1214 778C1207.45 774.403 1205.37 764.731 1200.62 759.015C1193.48 750.406 1181.45 745.026 1176.77 734.089C1174.86 729.617 1178.89 723.77 1178.53 719C1177.23 701.82 1175.09 685.016 1178.49 668C1180.42 658.329 1175.82 646.067 1183.22 638.063C1187.36 633.599 1195.3 635.321 1201 633C1201.68 637.604 1204.01 642.301 1203.58 647C1202.92 654.352 1197.74 659.304 1195.65 666C1191.8 678.252 1190.67 690.203 1191.02 703C1191.22 710.18 1196.34 716.501 1198.99 723C1202.18 730.835 1202.82 742.212 1208.64 748.61C1217.08 757.902 1228.41 757.443 1239 756.279C1242.27 755.919 1244.73 758.658 1248 758.473C1255.87 758.027 1265.9 748.529 1272 743.958C1307.99 716.998 1319.5 674.238 1337.08 635.015C1343.78 620.072 1353.3 612.61 1370 615.135C1390.18 618.187 1386.65 638.183 1382.84 652C1379.42 664.419 1372.12 676.18 1365.61 686.985C1362.5 692.15 1362.21 697.103 1357.83 701.999C1350.68 709.981 1344 717.254 1337.71 726C1335.65 728.855 1331.98 732.315 1331.71 736C1330.97 745.99 1342.33 742.72 1348 742C1343.78 746.903 1342.02 750.529 1342 757L1343 757C1348.64 749.668 1354.92 744.954 1364 748C1364.97 744.955 1365.3 740.006 1367.6 737.691C1371.72 733.54 1377.37 733.437 1381.54 727.999C1395.88 709.312 1413.12 691.31 1423.12 670C1426.85 662.048 1430.88 655.087 1430.82 646C1430.77 637.542 1426.78 627.552 1423.31 620C1420.46 613.809 1417.06 609.723 1412 605.093C1397.89 592.165 1378.03 588.694 1362 578.938C1357.47 576.182 1350.61 573.41 1347.65 568.826C1345.28 565.164 1347.8 559.347 1346.4 555C1341.83 540.818 1332.69 524.264 1322 514.039C1318.12 510.333 1312.73 504.615 1307 504.322C1301.91 504.062 1297.14 508.502 1293 510.911C1272.28 522.972 1272.36 544.845 1257.5 561.775C1250.65 569.586 1236.81 568.258 1231.34 577.015C1226.61 584.596 1229.22 593.776 1233 601C1229.5 602.356 1224.88 605.289 1221.04 604.038C1214.58 601.931 1213.48 594.298 1211.27 589.015C1207.92 580.987 1201.52 571.743 1197 564C1204.77 561.231 1204.79 554.07 1206.2 547C1208.21 536.907 1211.78 527.257 1216.26 518C1224.4 501.174 1229.63 481.578 1239.6 466.001C1244.09 458.993 1251.93 453.295 1257.39 446.961C1269.48 432.91 1280.39 417.41 1290.67 402C1297.03 392.451 1317.79 367.615 1308.14 355.419C1297.69 342.205 1266.55 355.072 1254 358.24C1238.99 362.03 1222.14 359.841 1207 361.174C1194.13 362.308 1182.02 368.582 1170 372.756C1159.48 376.411 1151.72 377.333 1142 383.779C1132.99 389.758 1122.37 391.507 1117.99 403C1113.79 414.068 1120.31 427.894 1121.87 439C1122.76 445.324 1121.33 451.924 1122.39 458C1125.01 473.029 1133.05 490.119 1139.31 504C1148.18 523.661 1161.09 542.815 1166.24 564C1167.73 570.151 1164.11 576.895 1163.08 583C1160.54 598.031 1157.37 613.145 1155.21 628C1151.99 650.169 1150.65 672.131 1149.28 694C1148.23 710.678 1151.82 724.324 1148 741z"/>
<path style="fill:#ffffff; stroke:none;" d="M1182 498C1189.14 495.302 1193.17 485.012 1197.42 479C1209.52 461.898 1220.72 444.171 1232.72 427C1236.31 421.859 1247.82 409.583 1242.64 403.134C1239.45 399.152 1233.59 398.379 1229 396.975C1213.04 392.095 1191.84 398.929 1177.91 406.93C1174.22 409.051 1164.98 408.806 1163.3 413.229C1162.03 416.566 1165.4 421.239 1164.94 425C1163.89 433.514 1162.06 443.309 1163.3 452C1165.67 468.59 1175.69 482.841 1182 498M2244 541C2251.03 520.367 2266.11 503.59 2276.99 485C2285.81 469.916 2291.37 452.576 2296.66 436C2300.18 424.969 2299.68 395.429 2280 404L2279 401C2238.71 408.707 2213.94 436.142 2195.76 472C2188.13 487.034 2180.97 502.939 2181.5 520C2181.85 531.414 2184.08 542.638 2184.91 554C2185.24 558.484 2184.63 565.159 2189.15 567.821C2209.22 579.638 2227.21 541.271 2244 541M1767 523C1777.52 521.046 1795.43 517.258 1802.06 507.671C1809.14 497.44 1804.51 478.203 1803 467C1795.01 466.978 1786.6 464.331 1779 467.8C1761.12 475.958 1760.17 506.807 1767 523z"/>
<path style="fill:#ff0101; stroke:none;" d="M2652 608C2622.88 646.259 2572.67 653.868 2527 654.985C2513.55 655.314 2501.56 652.429 2490 645.385C2484.7 642.155 2478.79 638.802 2479 632C2472.58 633.882 2467.62 641.328 2463 646C2455.69 653.402 2444.5 664.122 2443.19 675C2440.88 694.055 2468.86 710.215 2485 711.83C2515.2 714.851 2544.9 698.248 2572 687.4C2601.94 675.413 2633 668.189 2664 659.576C2677.57 655.803 2698.08 645.69 2712 646.85C2734.85 648.755 2757.46 657.503 2780 661.576C2798.32 664.886 2814.12 665.03 2825.26 647C2833.15 634.223 2809.77 620.935 2801 615.872C2797.77 614.004 2792.82 612.13 2791.97 607.985C2791.09 603.695 2796.23 599.661 2799 597.174C2806.48 590.456 2818.45 584.924 2820.43 574C2821.92 565.772 2813.01 555.333 2809.87 548C2806.03 539.023 2806.5 527.328 2801.72 519.058C2794.32 506.252 2782.87 516.583 2776 522.715C2762.75 534.544 2749.62 547.444 2737 560.001C2732.62 564.36 2726.88 572.293 2719.83 570.558C2704.03 566.668 2689.02 559.982 2673 556.424C2643.69 549.914 2612.83 546.995 2588 528.522C2578.94 521.782 2558.8 494.964 2547.21 507.109C2532.65 522.374 2536.03 551.174 2550 564.985C2567.95 582.729 2594.54 591.875 2618 599.667C2628.79 603.251 2640.57 607.508 2652 608z"/>
<path style="fill:#ffffff; stroke:none;" d="M1298.98 541.927C1283.53 542.014 1268.65 563.895 1277.46 577.721C1279.3 580.618 1297.51 585.554 1301 585.431C1320.68 584.739 1312.09 559.496 1306.72 551C1304.65 547.724 1303.91 541.9 1298.98 541.927M1187 621L1194 616C1189.8 607.885 1187.02 615.797 1187 621M1298 622.692C1288.82 624.465 1286.1 630.752 1279.87 636.255C1276.12 639.565 1270.46 642.753 1269.18 648C1266.64 658.448 1277.77 673.662 1288.99 671.361C1300.23 669.056 1307.54 642.086 1308.48 632.001C1308.97 626.666 1303.27 621.673 1298 622.692M1230 687L1227 689L1233 705L1239 706C1238.4 699.142 1235.27 691.518 1230 687z"/>
<path style="fill:#ff0101; stroke:none;" d="M2653 689.471C2647.03 690.516 2636.74 693.666 2634.65 700.043C2632.54 706.5 2635.42 713.162 2632.95 720C2620.68 753.914 2618.08 791.943 2651 814.001C2657.09 818.082 2665.05 826.42 2673 825.389C2686.97 823.577 2698.04 812.078 2712 808.903C2718.89 807.336 2726.65 812.682 2733 809.821C2738.18 807.485 2743.82 802.098 2746.28 797C2753.32 782.384 2748.17 763.204 2738.57 751.093C2735.54 747.283 2730.7 745.642 2727.61 741.896C2722.84 736.117 2720.35 727.073 2713.91 722.857C2705.27 717.204 2693.94 715.086 2685 709.532C2674.87 703.243 2666.77 687.061 2653 689.471M1888 756.424C1857.52 760.427 1825.74 758.195 1795 761.17C1722.97 768.141 1651.76 781.029 1582 800.424C1292.66 880.872 1042.12 1075.45 887.204 1332C816.581 1448.95 768.166 1578.2 741.4 1712C691.615 1960.87 725.642 2226.39 836.258 2455C928.279 2645.18 1071.82 2810.27 1248 2927C1340.22 2988.1 1441.29 3037.12 1547 3069.97C1714.44 3122.01 1891.37 3136.55 2065 3113.72C2311.19 3081.35 2544.74 2967.37 2724 2795.96C2955.63 2574.47 3096.87 2251.97 3088.99 1930C3085.59 1791.45 3062.67 1654.17 3013.57 1524C2885.97 1185.7 2603.59 917.353 2258 809.975C2172.66 783.459 2084.15 766.049 1995 759.911C1971.63 758.302 1948.4 757.985 1925 756.961C1912.79 756.426 1900.23 754.817 1888 756.424M3019 852L3018 852C3002.71 830.205 2966.28 808.031 2940 802.808C2922.49 799.328 2895.7 806.132 2908.04 828C2920.99 850.936 2948.03 863.761 2971 874.309C2995.92 885.752 3018.43 901.048 3040 918C3049.66 925.59 3060.74 933.176 3067 944C3047.4 938.64 3033.34 924.542 3017 913.532C3011.93 910.113 3005.42 909.56 3000 906.677C2992.59 902.735 2985.88 896.325 2978 893.404C2966.02 888.962 2949.84 901.325 2948.48 913C2946.61 929.011 2962.38 944.348 2974 952.841C2978.75 956.314 2985.88 958.801 2988.97 964.043C2992.34 969.759 2986.36 975.138 2982 978.2C2964.77 990.288 2947.74 948.081 2929 955L2928 952L2923 954C2919.75 948.992 2912.73 951.719 2908 953.436C2895.26 958.066 2884.33 966.344 2876.02 977C2861.52 995.572 2850.61 1034.54 2862.77 1056.99C2866.6 1064.07 2874.31 1067.69 2879.62 1073.3C2882.89 1076.75 2882.55 1082.83 2886.31 1085.59C2898.04 1094.17 2920.46 1099.3 2933 1090.36C2938.47 1086.47 2944.77 1071.83 2952 1072.24C2957.38 1072.55 2963.83 1080.04 2968 1083.12C2981.28 1092.89 3002.41 1102.11 3015.7 1086.98C3020 1082.09 3027.17 1072.8 3027.26 1066C3027.51 1047.5 3008.75 1019.92 3039 1014.46C3063.9 1009.98 3076.5 1025.02 3094 1039.59C3110.82 1053.58 3128.34 1066.75 3147 1078.19C3155.04 1083.11 3167.22 1092.6 3177 1092.63C3180.39 1092.64 3183.84 1091.07 3187 1090C3191.02 1088.63 3196.7 1087.32 3199.4 1083.78C3202.79 1079.3 3200.44 1072.05 3200.09 1067C3198.91 1049.74 3192.95 1039.29 3185.25 1024C3182.92 1019.37 3174.43 1007.56 3177.79 1002.39C3181.85 996.143 3196.35 992.1 3203 989.139C3224.34 979.629 3243.78 967.342 3266 959.999C3274 957.355 3288.19 953.563 3291.88 944.985C3294.68 938.477 3286.51 923.023 3282.47 918.04C3275.14 908.998 3267.1 913.043 3258.04 909.548C3254.08 908.021 3251.42 903.261 3249 900C3263.11 893.535 3273.48 876.464 3283.42 865C3286.87 861.022 3292.59 857.068 3294.39 852C3296.94 844.832 3288.64 830.919 3281.99 828.313C3277.2 826.44 3269.78 828.524 3265 829.654C3249.53 833.313 3235.67 841.956 3221 847.799C3214.37 850.439 3207.5 849.256 3201 852L3199 848C3189.29 850.312 3178.09 850.758 3169 847C3180.04 836.189 3195.79 825.019 3199.47 809C3204.77 785.893 3179.51 777.76 3162.05 786.353C3154.41 790.116 3149.86 806.037 3144.62 813C3131.99 829.816 3113.91 841.49 3097 853.579C3090.27 858.387 3083.59 865.531 3075 866C3075.28 856.905 3090.52 848.675 3097 843.246C3113 829.84 3136.89 808.752 3137.79 786C3138.59 765.45 3112.25 776.702 3103 781.862C3080.21 794.575 3059.81 813.067 3041 830.961C3033.77 837.842 3025.07 844.064 3019 852z"/>
<path style="fill:#ffffff; stroke:none;" d="M1889 790.424C1858.86 794.384 1827.4 792.264 1797 795.17C1737.19 800.885 1677.16 810.591 1619 825.884C1340.57 899.095 1094.1 1073.16 937.692 1316C868.448 1423.51 817.019 1541.82 786.374 1666C705.867 1992.23 775.177 2348.05 974.884 2619C1046.35 2715.96 1132.29 2802.02 1230 2872.58C1341.45 2953.04 1466.61 3012.78 1599 3049.58C1749.29 3091.35 1907.74 3100 2062 3079.72C2297.69 3048.73 2519.56 2939.47 2693 2777.91C2922.36 2564.26 3062.69 2245.61 3054.99 1931C3051.72 1797.41 3029.93 1664.54 2982.57 1539C2859.14 1211.75 2587.19 948.143 2252 843.975C2167.82 817.813 2080.98 800.075 1993 793.911C1969.97 792.297 1947.07 791.97 1924 790.961C1912.42 790.454 1900.6 788.9 1889 790.424z"/>
<path style="fill:#ff0101; stroke:none;" d="M774 1007C771.507 1018.47 776.54 1031.7 774.728 1044C770.868 1070.21 760.257 1094.39 751.05 1119C741.229 1145.26 733.067 1171.31 725.065 1198C720.971 1211.66 715.993 1223.3 715.474 1238C715.127 1247.81 727.28 1264.91 738 1264.65C744.253 1264.51 747.573 1258.46 753 1256.62C757.254 1255.18 761.471 1258.31 765.096 1254.68C770.223 1249.55 767.059 1245.36 768.091 1239.42C769.439 1231.67 774.614 1222.89 776.86 1215C781.964 1197.07 790.449 1182.75 797.61 1166C801.968 1155.81 803.198 1144.1 807.817 1134.01C827.572 1090.87 851.553 1044.35 880.749 1006C887.055 997.717 896.143 992.162 902.471 984C910.759 973.311 915.502 960.344 924.439 950.015C934.761 938.085 951.892 932.837 963.536 922.501C974.36 912.894 984.25 896.434 991.576 884C998.791 871.754 1009.73 861.331 997.468 847.184C991.025 839.753 972.373 826.89 962 829.42C953.303 831.541 949.86 841.426 942.985 846.2C914.634 865.888 888.058 892.934 870.464 923C864.539 933.124 851.816 953.673 840 957.509C830.676 960.535 824.711 947.621 817 945L817 947C807.305 941.603 798.226 934.833 789 928.667C786.478 926.981 781.134 924.511 781.041 920.96C780.798 911.688 798.608 905.616 803.96 900C808.068 895.689 809.631 890.834 812.874 886.089C817.85 878.809 827.002 871.263 828.411 862C829.975 851.724 824.331 843.531 820.159 835C816.439 827.392 813.564 820.083 805 816.479C785.46 808.256 759.031 806.785 741 819.638C734.524 824.255 731.29 831.972 724.985 836.552C722.476 838.375 718.977 837.924 716.699 839.828C710.66 844.876 711.967 853.135 702.286 855.302C698.325 856.188 694.05 852.042 691 849.999C682.246 844.137 673.875 837.697 665 832.015C645.87 819.766 612.114 822.887 594.326 836.815C568.818 856.786 602.963 881.51 617 893.845C633.99 908.774 650.385 923.249 669 936.279C678.944 943.239 690.354 947.872 700 955.364C719.989 970.891 737.914 986.366 760 998.274C765.016 1000.98 768.431 1005.22 774 1007z"/>
<path style="fill:#ffffff; stroke:none;" d="M3131 875L3153 885C3156.79 879.401 3155.79 867.071 3147.79 864.418C3142.16 862.553 3133.12 870.557 3131 875M3208 891L3208 892C3217.34 892 3226.87 892.395 3235 887C3223.58 883.125 3217.9 884.326 3208 891M3234 924C3225.46 917.613 3199.66 911.864 3191.94 922.394C3187 929.129 3191.91 943.374 3201 943.695C3204.44 943.816 3208.25 940.149 3211 938.424C3218.67 933.623 3226.5 929.059 3234 924M3133 952L3161 963C3162.28 944.707 3143.7 933.505 3133 952M3067 944L3068 945L3067 944M3099 1004C3103.57 1007.13 3107.79 1010.83 3112 1014.43C3114.72 1016.75 3117.29 1019.24 3120 1021.57C3128.3 1028.7 3135.3 1026.56 3131.3 1015C3126.89 1002.25 3105.91 985.401 3099 1004M2902 1009L2903 1025C2916.44 1030.17 2923.9 1026.75 2937 1023C2935.71 1014.36 2927.9 999.312 2917 1001.03C2911.39 1001.92 2907.5 1007.5 2902 1009z"/>
<path style="fill:#ff0101; stroke:none;" d="M1733 1170L1733 1176L1605 1176L1605 1170L1467 1170L1393 1170.71L1344 1177.15L1327.94 1183.5L1322.87 1208L1318 1277L1321.58 1356L1315.59 1372L1321.97 1390L1328.71 1423L1331 1519L1331 2477C1359.67 2482.32 1390.89 2481.1 1420 2483.09C1457.9 2485.69 1495.99 2488.54 1534 2489C1574.73 2489.48 1615.33 2486.49 1656 2486C1746 2484.93 1836.02 2487.19 1926 2484.99C1952.34 2484.34 1978.64 2480.66 2005 2480.01C2063.85 2478.57 2123.11 2480.7 2182 2480C2218.32 2479.57 2253.88 2483.38 2290 2484.96C2320.92 2486.31 2352.13 2483.98 2383 2486.09C2413.91 2488.21 2452.86 2497.06 2480.85 2478.59C2485.25 2475.68 2482.95 2471.2 2484.6 2467.06C2485.77 2464.12 2489.14 2463.43 2490.4 2460.7C2493.32 2454.38 2490.55 2443.67 2490.09 2437C2487.79 2403.35 2487 2368.72 2487 2335L2481 2335C2481 2282.43 2483.75 2229.61 2484 2177C2484.62 2049.03 2481.89 1920.87 2485.01 1793C2486.38 1737.08 2488.59 1680.92 2491.04 1625C2492.52 1591.2 2494.4 1557.8 2492.09 1524L2488.09 1466C2487.59 1458.71 2488.37 1450.07 2486.69 1443C2484.6 1434.26 2477.05 1427.34 2475.01 1418C2471.98 1404.07 2472.66 1389.69 2476.72 1376C2478.94 1368.52 2484.14 1360.68 2484.9 1353C2488.29 1318.39 2485 1281.79 2485 1247L2485 1206C2485 1199.68 2486.2 1193.21 2480.94 1188.67C2464.46 1174.45 2441.71 1172.28 2421 1169.95C2373.57 1164.62 2323.83 1171 2276 1171C2095.04 1171 1914.1 1170 1733 1170z"/>
<path style="fill:#ffffff; stroke:none;" d="M2242 1578L2249.64 1517L2265.76 1474L2272.15 1415.04L2277.97 1408.3L2279 1398C2229.6 1386.57 2182.19 1390.58 2132 1391C2132 1411.03 2144.23 1418.48 2162 1424.33C2166.88 1425.94 2175.86 1426.57 2179.4 1430.51C2184.34 1436.03 2181 1454.8 2181 1462L2140 1470C2139.28 1478.25 2127.32 1492.8 2133.6 1500.47C2141.2 1509.75 2161.32 1516.23 2172 1521.74C2176.95 1524.3 2184.74 1526.34 2184.85 1533C2184.94 1538.24 2182.93 1551.45 2179.4 1555.36C2176.12 1558.99 2169.39 1560.52 2165 1562.42C2156.05 1566.31 2147.1 1570.24 2139 1575.75C2124.31 1585.74 2119.13 1609.07 2102 1613.25C2095.01 1614.96 2087.1 1607.05 2082 1603.11C2066.7 1591.29 2054.13 1575.73 2037 1566.31C2030.84 1562.93 2017.03 1560.16 2012.99 1554.58C2009.78 1550.15 2005.38 1533.17 2009.6 1528.7C2013.58 1524.5 2023.63 1522.96 2029 1520.95C2044.89 1515.01 2064.48 1505.26 2068.32 1487C2069.62 1480.78 2064.76 1478.29 2060 1475.45C2050.51 1469.8 2039.95 1465.71 2029 1464.13C2024.69 1463.51 2016.83 1464.02 2015.31 1458.89C2013.83 1453.86 2011.71 1439.86 2015.6 1435.7C2018.96 1432.12 2026.5 1430.7 2031 1429.05C2043.61 1424.44 2058.56 1421.06 2067.32 1409.99C2075.04 1400.22 2078.86 1388.72 2064 1387.05C2059.34 1386.53 2054.65 1386.27 2050 1385.71C2044.02 1385.01 2038.03 1384.78 2032 1385.04C1986.25 1387.04 1953.04 1426.43 1944.38 1470C1939.5 1494.54 1941 1523.98 1941 1549C1941 1567.14 1941.34 1583.07 1932.28 1599C1930.03 1602.96 1927.7 1609.53 1923.67 1611.97C1918.81 1614.92 1903.46 1614.07 1898 1612.68C1892.23 1611.22 1887.35 1603.42 1883.81 1599C1868 1579.26 1870.57 1553.04 1869.99 1529C1869.07 1491.79 1862.23 1457.32 1850.33 1422C1845.77 1408.45 1838.21 1388.95 1825 1381.65C1819.86 1378.81 1812.68 1380 1807 1380L1769 1380C1758.11 1380 1740.13 1376.53 1730.06 1380.74C1721.54 1384.31 1727.94 1401.27 1730.81 1407C1738.59 1422.52 1756.14 1431.32 1771 1438.75C1776.35 1441.43 1789.34 1445.37 1790.59 1452.04C1793.44 1467.18 1773.87 1483.32 1763 1489.93C1758.48 1492.69 1748.14 1494.13 1747.15 1500.05C1745.88 1507.6 1747.54 1521.24 1754.39 1526.01C1764.5 1533.04 1783.61 1531.1 1787.59 1547C1789.27 1553.7 1778.02 1562 1774 1566C1761.75 1578.19 1747.05 1587.49 1733 1597.42C1727.68 1601.18 1720.42 1608.42 1714 1609.82C1706.69 1611.4 1698.4 1601.78 1694.3 1597C1680.64 1581.08 1664.13 1573.82 1646 1563.58C1639.48 1559.89 1629.81 1556.37 1632.32 1547.05C1633.79 1541.57 1643.61 1539.72 1648 1536.91C1658.65 1530.08 1677.26 1510.69 1673.67 1496.09C1672.51 1491.4 1665.82 1488.98 1662 1486.86C1653 1481.87 1643.56 1477.96 1634 1474.2C1629.97 1472.62 1623.64 1471.55 1620.6 1468.3C1616.12 1463.51 1620 1448.26 1620 1442C1638.39 1439.24 1664.03 1427.35 1676.96 1413.99C1684.58 1406.1 1687.1 1388.87 1673 1385.32C1661.04 1382.31 1644.17 1384.67 1632 1385.83C1620.21 1386.95 1607.64 1385.39 1596 1387.33C1575.55 1390.73 1558.28 1398 1537 1398C1538.79 1420.63 1542.99 1442.7 1551.06 1464C1555.02 1474.44 1562.19 1484.46 1565.35 1495C1567.08 1500.77 1566.24 1507.08 1568.04 1513C1573.79 1531.92 1587.4 1543.88 1577.41 1564.77C1574.94 1569.94 1562.08 1570.71 1557 1571.79C1548.06 1573.69 1528.51 1579.5 1520.09 1574.97C1514.4 1571.91 1508.48 1562.38 1505.01 1557C1496.03 1543.06 1493.11 1521.57 1486.58 1506C1465.99 1456.95 1432.28 1397.61 1462.8 1345.02C1466.57 1338.51 1473.76 1339.18 1480 1336.47C1484.48 1334.53 1488.26 1330.66 1493 1329.43C1510.31 1324.93 1532.32 1329.91 1550 1330C1581.22 1330.15 1612.82 1331.33 1644 1329.96C1659.74 1329.27 1675.19 1327 1691 1327C1724.06 1327 1760.56 1331.29 1793 1324.8C1802.47 1322.91 1815.44 1322.33 1824 1317.84C1830.51 1314.42 1835.85 1307.15 1841 1302C1856.09 1286.91 1882.57 1259.96 1876.76 1236C1873.22 1221.43 1860.08 1223.29 1848 1224.71C1823.33 1227.63 1796.85 1225 1772 1225C1690.71 1225 1609.48 1229.98 1528 1227.99C1513.3 1227.63 1498.7 1224.52 1484 1223.99C1460.94 1223.15 1436.27 1220.09 1414 1228.09C1406.94 1230.62 1395.49 1235.5 1392.6 1243C1389.1 1252.09 1391.02 1264.46 1391 1274C1390.97 1293.17 1389.31 1311.86 1392.27 1331C1393.38 1338.12 1397.87 1344.91 1397.97 1352C1398.25 1373.17 1395.97 1394.83 1395.04 1416C1392.65 1470.59 1392 1525.3 1392 1580C1392 1665.03 1391.32 1750.15 1395.04 1835C1395.99 1856.74 1401.74 1878.18 1402 1900C1402.16 1914.12 1397.67 1925.97 1398.01 1940C1398.6 1964.1 1401.91 1987.96 1402.96 2012C1404.37 2044.21 1400.15 2076.07 1400 2108C1399.8 2149.31 1399.51 2190.69 1400 2232C1400.13 2242.28 1402.25 2252.72 1401.98 2263C1401.82 2268.9 1397.96 2273.56 1396.08 2279C1393.41 2286.7 1392.21 2295.87 1392.01 2304C1391.61 2320.56 1396.01 2334.16 1397.87 2350C1400.34 2371.06 1398 2393.78 1398 2415C1416.29 2416.44 1434.81 2416.74 1453 2419.43C1463.32 2420.95 1473.7 2425.08 1484 2425.91C1507.02 2427.76 1530.9 2426 1554 2426L1692 2426C1783.66 2426 1875.42 2426.09 1967 2425C1992.28 2424.7 2017.96 2428.81 2043 2427.9C2046.9 2427.76 2050.12 2425.37 2054 2425.06C2078.98 2423.05 2104.93 2425 2130 2425C2173.64 2425 2217.45 2424.05 2261 2425.96C2271.57 2426.42 2282.49 2424.91 2293 2426.18C2302 2427.28 2311.02 2431.24 2320 2433C2344.06 2437.7 2372.65 2438.12 2394 2424.3C2422.55 2405.82 2415.11 2379.89 2417.09 2351C2421.33 2289.1 2421 2226.09 2421 2164C2421 2142.08 2422.02 2119.89 2420.96 2098C2420.54 2089.33 2418.11 2080.8 2418 2072C2417.39 2020.06 2420.72 1968.76 2421.99 1917C2423.29 1863.68 2421.71 1810.27 2424.04 1757C2426.59 1698.68 2428.49 1640.35 2431.04 1582C2432.92 1538.96 2434.46 1495.97 2430.17 1453C2425.61 1407.38 2422.74 1358.75 2426.09 1313C2428.21 1284.04 2435.87 1253.34 2409 1232.9C2395.23 1222.42 2382.52 1224 2366 1224L2302 1224C2237.07 1224 2171.91 1225.57 2107 1223.99C2088.88 1223.54 2070.09 1224.27 2052 1222.95C2043.51 1222.32 2035.87 1220 2027 1220C1996.17 1220 1964.68 1220.08 1934 1217.17C1923.33 1216.16 1910.47 1218.19 1914.32 1231.89C1915.6 1236.47 1923.28 1238.51 1927 1240.81C1936 1246.39 1943.76 1254.07 1950.71 1262C1967.63 1281.28 1980.78 1304.52 2005 1315.69C2029.17 1326.84 2059.98 1322 2086 1322C2137.71 1322 2189.36 1323.75 2241 1324C2258.07 1324.08 2277.18 1322.52 2294 1325.33C2304.71 1327.11 2315.7 1331.9 2326 1335.33C2333.61 1337.87 2348.1 1339.82 2353.3 1346.22C2363.85 1359.22 2359.11 1384.13 2356.42 1399C2354.31 1410.7 2351.65 1422.26 2349.75 1434C2348.97 1438.84 2349.84 1444.37 2348.3 1449C2345.23 1458.23 2338.4 1467.06 2334.31 1476C2327.7 1490.44 2323.22 1506.48 2320 1522C2317.22 1535.46 2315.03 1549.29 2314.09 1563C2313.73 1568.26 2314.91 1577.41 2310.68 1581.35C2306.32 1585.41 2297.66 1585.91 2292 1585.98C2275.68 1586.19 2257.66 1582.4 2242 1578z"/>
<path style="fill:#ff0132; stroke:none;" d="M3390 1478C3383.3 1466.52 3377.16 1455.01 3365 1448.31C3339.55 1434.29 3295.52 1444.13 3287.16 1475C3283.41 1488.85 3286.85 1504.36 3289.79 1518C3295.07 1542.47 3302.66 1567.21 3306 1592C3321.69 1590.75 3337.5 1586.22 3353 1583.42C3384.03 1577.83 3415.06 1572.09 3446 1566C3457.98 1563.64 3470.02 1561.58 3482 1559.2C3485.69 1558.47 3492.48 1558.61 3495.38 1556.01C3499.44 1552.37 3492.66 1536.91 3492 1532C3464.53 1532.57 3434.97 1541.77 3408 1547C3405.32 1533.17 3396.95 1514.87 3402.48 1501C3410.35 1481.24 3434.43 1465.27 3450 1451.72C3455.27 1447.14 3466.23 1440.65 3468.67 1433.99C3471.56 1426.11 3464.11 1411.25 3463 1403C3454.51 1406.29 3447.8 1414.68 3441 1420.58C3422.29 1436.79 3398.23 1453.67 3390 1478z"/>
<path style="fill:#ff0121; stroke:none;" d="M3459 1407L3457 1410L3459 1407z"/>
<path style="fill:#ff0101; stroke:none;" d="M3460 1407C3439.81 1427.03 3413.87 1443.19 3397.79 1467C3393.88 1472.79 3392.78 1479.71 3390 1486C3385.39 1472.46 3376.7 1457.88 3364 1450.53C3340.31 1436.81 3301.1 1446.52 3290.48 1473C3285.19 1486.19 3288.92 1501.7 3291.79 1515C3297.07 1539.47 3304.66 1564.21 3308 1589L3355 1580.42L3444 1563.8L3479 1557.2L3492.36 1553.99L3490 1535C3462.53 1535.57 3432.97 1544.77 3406 1550C3402.58 1532.35 3392.5 1510.75 3403.09 1494C3414.18 1476.48 3432.84 1463.67 3448 1449.93C3453.05 1445.34 3463.22 1439.47 3465.68 1432.99C3467.89 1427.17 3463.12 1412.11 3460 1407z"/>
<path style="fill:#ff0121; stroke:none;" d="M3461 1407L3462 1408L3461 1407z"/>
<path style="fill:#ff0111; stroke:none;" d="M3461.33 1408.67L3461.67 1409.33L3461.33 1408.67M3456 1410L3457 1411L3456 1410M3455 1411L3456 1412L3455 1411z"/>
<path style="fill:#ff0121; stroke:none;" d="M3462.33 1411.67L3462.67 1412.33L3462.33 1411.67z"/>
<path style="fill:#ff0111; stroke:none;" d="M3454 1412L3455 1413L3454 1412M3453 1413L3454 1414L3453 1413M3462 1413L3463 1414L3462 1413z"/>
<path style="fill:#ff0121; stroke:none;" d="M3450 1415L3451 1416L3450 1415M3449 1416L3450 1417L3449 1416M3463 1416L3464 1417L3463 1416M3448 1417L3449 1418L3448 1417z"/>
<path style="fill:#ff0111; stroke:none;" d="M3463 1417L3464 1418L3463 1417M3447 1418L3448 1419L3447 1418M3446 1419L3447 1420L3446 1419M3445 1420L3446 1421L3445 1420z"/>
<path style="fill:#ff0121; stroke:none;" d="M3464 1420L3465 1421L3464 1420z"/>
<path style="fill:#ff0111; stroke:none;" d="M3444 1421L3445 1422L3444 1421M3464.33 1421.67L3464.67 1422.33L3464.33 1421.67z"/>
<path style="fill:#ff0121; stroke:none;" d="M3440 1424L3441 1425L3440 1424M3465.33 1424.67L3465.67 1425.33L3465.33 1424.67M3439 1425L3440 1426L3439 1425z"/>
<path style="fill:#ff0111; stroke:none;" d="M3438 1426L3439 1427L3438 1426M3465 1426L3466 1427L3465 1426M3437 1427L3438 1428L3437 1427M3436 1428L3437 1429L3436 1428M3435 1429L3436 1430L3435 1429z"/>
<path style="fill:#ff0121; stroke:none;" d="M3466 1429L3467 1430L3466 1429z"/>
<path style="fill:#ff0111; stroke:none;" d="M3466.33 1430.67L3466.67 1431.33L3466.33 1430.67z"/>
<path style="fill:#ff0121; stroke:none;" d="M3431 1432L3432 1433L3431 1432M3430 1433L3431 1434L3430 1433z"/>
<path style="fill:#ff0111; stroke:none;" d="M3466 1433L3467 1434L3466 1433M3429 1434L3430 1435L3429 1434M3465 1434L3466 1435L3465 1434M3428 1435L3429 1436L3428 1435z"/>
<path style="fill:#ff0121; stroke:none;" d="M3464 1435L3465 1436L3464 1435z"/>
<path style="fill:#ff0111; stroke:none;" d="M3427 1436L3428 1437L3427 1436z"/>
<path style="fill:#ff0121; stroke:none;" d="M3463 1436L3464 1437L3463 1436z"/>
<path style="fill:#ff0111; stroke:none;" d="M3426 1437L3427 1438L3426 1437M3460 1438L3461 1439L3460 1438M3459 1439L3460 1440L3459 1439z"/>
<path style="fill:#ff0121; stroke:none;" d="M3422 1440L3423 1441L3422 1440z"/>
<path style="fill:#ff0111; stroke:none;" d="M3458 1440L3459 1441L3458 1440z"/>
<path style="fill:#ff0121; stroke:none;" d="M3421 1441L3422 1442L3421 1441z"/>
<path style="fill:#ff0111; stroke:none;" d="M3457 1441L3458 1442L3457 1441z"/>
<path style="fill:#ff0121; stroke:none;" d="M3420 1442L3421 1443L3420 1442M3456 1442L3457 1443L3456 1442z"/>
<path style="fill:#ff0111; stroke:none;" d="M3419 1443L3420 1444L3419 1443z"/>
<path style="fill:#ff0121; stroke:none;" d="M3455 1443L3456 1444L3455 1443M3330 1444L3330 1445L3333 1445L3330 1444z"/>
<path style="fill:#ff0111; stroke:none;" d="M3333 1444L3333 1445L3336 1445L3333 1444M3342 1444L3342 1445L3345 1445L3342 1444z"/>
<path style="fill:#ff0121; stroke:none;" d="M3345 1444L3345 1445L3348 1445L3345 1444z"/>
<path style="fill:#ff0111; stroke:none;" d="M3418 1444L3419 1445L3418 1444z"/>
<path style="fill:#ff0121; stroke:none;" d="M3325 1445L3326 1446L3325 1445z"/>
<path style="fill:#ff0111; stroke:none;" d="M3326.67 1445.33L3327.33 1445.67L3326.67 1445.33M3350 1445L3351 1446L3350 1445z"/>
<path style="fill:#ff0121; stroke:none;" d="M3351.67 1445.33L3352.33 1445.67L3351.67 1445.33z"/>
<path style="fill:#ff0111; stroke:none;" d="M3417 1445L3418 1446L3417 1445M3452 1445L3453 1446L3452 1445z"/>
<path style="fill:#ff0121; stroke:none;" d="M3322 1446L3323 1447L3322 1446z"/>
<path style="fill:#ff0111; stroke:none;" d="M3323 1446L3324 1447L3323 1446M3354 1446L3355 1447L3354 1446z"/>
<path style="fill:#ff0121; stroke:none;" d="M3355 1446L3356 1447L3355 1446z"/>
<path style="fill:#ff0111; stroke:none;" d="M3416 1446L3417 1447L3416 1446M3451 1446L3452 1447L3451 1446z"/>
<path style="fill:#ff0121; stroke:none;" d="M3319 1447L3320 1448L3319 1447z"/>
<path style="fill:#ff0111; stroke:none;" d="M3320 1447L3321 1448L3320 1447M3357 1447L3358 1448L3357 1447z"/>
<path style="fill:#ff0121; stroke:none;" d="M3358 1447L3359 1448L3358 1447z"/>
<path style="fill:#ff0111; stroke:none;" d="M3450 1447L3451 1448L3450 1447M3317 1448L3318 1449L3317 1448M3359 1448L3360 1449L3359 1448z"/>
<path style="fill:#ff0121; stroke:none;" d="M3360 1448L3361 1449L3360 1448z"/>
<path style="fill:#ff0111; stroke:none;" d="M3449 1448L3450 1449L3449 1448z"/>
<path style="fill:#ff0121; stroke:none;" d="M3314 1449L3315 1450L3314 1449z"/>
<path style="fill:#ff0111; stroke:none;" d="M3315 1449L3316 1450L3315 1449z"/>
<path style="fill:#ff0121; stroke:none;" d="M3362 1449L3363 1450L3362 1449M3448 1449L3449 1450L3448 1449M3312 1450L3313 1451L3312 1450M3364 1450L3365 1451L3364 1450M3411 1450L3412 1451L3411 1450M3447 1450L3448 1451L3447 1450M3310 1451L3311 1452L3310 1451z"/>
<path style="fill:#ff0111; stroke:none;" d="M3365 1451L3366 1452L3365 1451z"/>
<path style="fill:#ff0121; stroke:none;" d="M3410 1451L3411 1452L3410 1451z"/>
<path style="fill:#ff0111; stroke:none;" d="M3309 1452L3310 1453L3309 1452z"/>
<path style="fill:#ff0121; stroke:none;" d="M3307 1453L3308 1454L3307 1453M3368 1453L3369 1454L3368 1453z"/>
<path style="fill:#ff0111; stroke:none;" d="M3443 1453L3444 1454L3443 1453M3306 1454L3307 1455L3306 1454M3369 1454L3370 1455L3369 1454M3442 1454L3443 1455L3442 1454z"/>
<path style="fill:#ff0121; stroke:none;" d="M3304 1455L3305 1456L3304 1455z"/>
<path style="fill:#ff0111; stroke:none;" d="M3370 1455L3371 1456L3370 1455M3441 1455L3442 1456L3441 1455M3303 1456L3304 1457L3303 1456M3371 1456L3372 1457L3371 1456M3406 1456L3407 1457L3406 1456z"/>
<path style="fill:#ff0121; stroke:none;" d="M3440 1456L3441 1457L3440 1456z"/>
<path style="fill:#ff0111; stroke:none;" d="M3302 1457L3303 1458L3302 1457M3372 1457L3373 1458L3372 1457M3405 1457L3406 1458L3405 1457z"/>
<path style="fill:#ff0121; stroke:none;" d="M3439 1457L3440 1458L3439 1457z"/>
<path style="fill:#ff0111; stroke:none;" d="M3373 1458L3374 1459L3373 1458M3404 1458L3405 1459L3404 1458M3374 1459L3375 1460L3374 1459z"/>
<path style="fill:#ff0121; stroke:none;" d="M3403 1459L3404 1460L3403 1459z"/>
<path style="fill:#ff0111; stroke:none;" d="M3375 1460L3376 1461L3375 1460z"/>
<path style="fill:#ff0121; stroke:none;" d="M3402 1460L3403 1461L3402 1460z"/>
<path style="fill:#ff0111; stroke:none;" d="M3435 1460L3436 1461L3435 1460M3376 1461L3377 1462L3376 1461M3434 1461L3435 1462L3434 1461z"/>
<path style="fill:#ff0121; stroke:none;" d="M3377 1462L3378 1463L3377 1462z"/>
<path style="fill:#ff0111; stroke:none;" d="M3401 1462L3402 1463L3401 1462M3433 1462L3434 1463L3433 1462z"/>
<path style="fill:#ff0121; stroke:none;" d="M3378 1463L3379 1464L3378 1463z"/>
<path style="fill:#ff0111; stroke:none;" d="M3400 1463L3401 1464L3400 1463z"/>
<path style="fill:#ff0121; stroke:none;" d="M3432 1463L3433 1464L3432 1463z"/>
<path style="fill:#ff0111; stroke:none;" d="M3295 1464L3296 1465L3295 1464z"/>
<path style="fill:#ff0121; stroke:none;" d="M3399 1464L3400 1465L3399 1464M3431 1464L3432 1465L3431 1464M3294 1465L3295 1466L3294 1465z"/>
<path style="fill:#ff0111; stroke:none;" d="M3379 1465L3380 1466L3379 1465z"/>
<path style="fill:#ff0121; stroke:none;" d="M3430 1465L3431 1466L3430 1465z"/>
<path style="fill:#ff0111; stroke:none;" d="M3332.67 1466.33L3333.33 1466.67L3332.67 1466.33z"/>
<path style="fill:#ff0121; stroke:none;" d="M3334 1466L3334 1467L3338 1467L3334 1466z"/>
<path style="fill:#ff0132; stroke:none;" d="M3323 1565L3386 1553C3384.27 1539.57 3380.34 1526.22 3377.42 1513C3374.67 1500.53 3372.27 1485.98 3363.53 1476.09C3349.36 1460.05 3317.88 1464.46 3310.55 1485C3306.77 1495.58 3309.63 1507.51 3312.12 1518C3315.82 1533.62 3319.75 1549.28 3323 1565z"/>
<path style="fill:#ff0121; stroke:none;" d="M3340 1466L3340 1467L3344 1467L3340 1466z"/>
<path style="fill:#ff0111; stroke:none;" d="M3344.67 1466.33L3345.33 1466.67L3344.67 1466.33z"/>
<path style="fill:#ff0121; stroke:none;" d="M3380 1466L3381 1467L3380 1466z"/>
<path style="fill:#ff0111; stroke:none;" d="M3293 1467L3294 1468L3293 1467M3329 1467L3330 1468L3329 1467z"/>
<path style="fill:#ff0121; stroke:none;" d="M3330 1467L3331 1468L3330 1467M3348 1467L3349 1468L3348 1467z"/>
<path style="fill:#ff0111; stroke:none;" d="M3349 1467L3350 1468L3349 1467M3397 1467L3398 1468L3397 1467M3427 1467L3428 1468L3427 1467z"/>
<path style="fill:#ff0121; stroke:none;" d="M3292 1468L3293 1469L3292 1468z"/>
<path style="fill:#ff0111; stroke:none;" d="M3326 1468L3327 1469L3326 1468z"/>
<path style="fill:#ffffff; stroke:none;" d="M3324 1562C3343.3 1561.6 3365.32 1555.83 3384 1551C3378.29 1528.94 3377.98 1494.49 3361.67 1477.19C3346.99 1461.61 3316.52 1467.28 3311.53 1489C3306.22 1512.14 3320.93 1539.18 3324 1562z"/>
<path style="fill:#ff0111; stroke:none;" d="M3351 1468L3352 1469L3351 1468M3381 1468L3382 1469L3381 1468z"/>
<path style="fill:#ff0121; stroke:none;" d="M3396 1468L3397 1469L3396 1468z"/>
<path style="fill:#ff0111; stroke:none;" d="M3426 1468L3427 1469L3426 1468z"/>
<path style="fill:#ff0121; stroke:none;" d="M3324 1469L3325 1470L3324 1469z"/>
<path style="fill:#ff0111; stroke:none;" d="M3354 1469L3355 1470L3354 1469z"/>
<path style="fill:#ff0121; stroke:none;" d="M3382 1469L3383 1470L3382 1469z"/>
<path style="fill:#ff0111; stroke:none;" d="M3425 1469L3426 1470L3425 1469z"/>
<path style="fill:#ff0121; stroke:none;" d="M3291 1470L3292 1471L3291 1470M3322 1470L3323 1471L3322 1470z"/>
<path style="fill:#ff0111; stroke:none;" d="M3356 1470L3357 1471L3356 1470z"/>
<path style="fill:#ff0121; stroke:none;" d="M3395 1470L3396 1471L3395 1470z"/>
<path style="fill:#ff0111; stroke:none;" d="M3424 1470L3425 1471L3424 1470M3320 1471L3321 1472L3320 1471M3358 1471L3359 1472L3358 1471z"/>
<path style="fill:#ff0121; stroke:none;" d="M3383 1471L3384 1472L3383 1471z"/>
<path style="fill:#ff0111; stroke:none;" d="M3423 1471L3424 1472L3423 1471z"/>
<path style="fill:#ff0121; stroke:none;" d="M3290 1472L3291 1473L3290 1472M3319 1472L3320 1473L3319 1472M3359 1472L3360 1473L3359 1472M3394 1472L3395 1473L3394 1472M3422 1472L3423 1473L3422 1472M3318 1473L3319 1474L3318 1473z"/>
<path style="fill:#ff0111; stroke:none;" d="M3384 1473L3385 1474L3384 1473M3394 1473L3395 1474L3394 1473z"/>
<path style="fill:#ff0121; stroke:none;" d="M3421 1473L3422 1474L3421 1473z"/>
<path style="fill:#ff0111; stroke:none;" d="M3362 1474L3363 1475L3362 1474z"/>
<path style="fill:#ff0121; stroke:none;" d="M3420 1474L3421 1475L3420 1474z"/>
<path style="fill:#ff0111; stroke:none;" d="M3289 1475L3290 1476L3289 1475M3385 1475L3386 1476L3385 1475z"/>
<path style="fill:#ff0121; stroke:none;" d="M3393 1475L3394 1476L3393 1475M3419 1475L3420 1476L3419 1475M3315 1476L3316 1477L3315 1476M3386 1476L3387 1477L3386 1476M3314 1477L3315 1478L3314 1477M3364 1477L3365 1478L3364 1477z"/>
<path style="fill:#ff0111; stroke:none;" d="M3386 1477L3387 1478L3386 1477z"/>
<path style="fill:#ff0121; stroke:none;" d="M3288 1478L3289 1479L3288 1478z"/>
<path style="fill:#ff0111; stroke:none;" d="M3313 1478L3314 1479L3313 1478z"/>
<path style="fill:#ff0121; stroke:none;" d="M3365 1478L3366 1479L3365 1478M3392 1478L3393 1479L3392 1478z"/>
<path style="fill:#ff0111; stroke:none;" d="M3288.33 1479.67L3288.67 1480.33L3288.33 1479.67M3366 1479L3367 1480L3366 1479M3387 1479L3388 1480L3387 1479M3392 1479L3393 1480L3392 1479z"/>
<path style="fill:#ff0121; stroke:none;" d="M3312 1480L3313 1481L3312 1480M3367 1481L3368 1482L3367 1481M3388 1481L3389 1482L3388 1481M3391 1481L3392 1482L3391 1481M3311 1482L3312 1483L3311 1482z"/>
<path style="fill:#ff0111; stroke:none;" d="M3391 1482L3392 1483L3391 1482z"/>
<path style="fill:#ff0121; stroke:none;" d="M3412 1482L3413 1483L3412 1482M3368 1483L3369 1484L3368 1483M3389 1483L3390 1484L3389 1483M3411 1483L3412 1484L3411 1483M3287 1484L3287 1493L3288 1493L3287 1484z"/>
<path style="fill:#ff0111; stroke:none;" d="M3310 1484L3311 1485L3310 1484M3389 1484L3390 1485L3389 1484z"/>
<path style="fill:#ff0121; stroke:none;" d="M3410 1484L3411 1485L3410 1484M3369 1485L3370 1486L3369 1485z"/>
<path style="fill:#ff0111; stroke:none;" d="M3390 1485L3391 1486L3390 1485M3409 1485L3410 1486L3409 1485M3408 1486L3409 1487L3408 1486M3309 1487L3310 1488L3309 1487z"/>
<path style="fill:#ff0121; stroke:none;" d="M3370 1487L3371 1488L3370 1487z"/>
<path style="fill:#ff0111; stroke:none;" d="M3407 1487L3408 1488L3407 1487z"/>
<path style="fill:#ff0121; stroke:none;" d="M3309 1488L3310 1489L3309 1488z"/>
<path style="fill:#ff0111; stroke:none;" d="M3371 1489L3372 1490L3371 1489z"/>
<path style="fill:#ff0121; stroke:none;" d="M3406 1489L3407 1490L3406 1489M3371 1490L3372 1491L3371 1490M3405 1490L3406 1491L3405 1490z"/>
<path style="fill:#ff0111; stroke:none;" d="M3308.33 1491.67L3308.67 1492.33L3308.33 1491.67M3404 1491L3405 1492L3404 1491M3372 1492L3373 1493L3372 1492z"/>
<path style="fill:#ff0121; stroke:none;" d="M3308 1493L3308 1501L3309 1501L3308 1493M3372 1493L3373 1494L3372 1493M3403 1493L3404 1494L3403 1493z"/>
<path style="fill:#ff0111; stroke:none;" d="M3402 1494L3403 1495L3402 1494M3373 1495L3374 1496L3373 1495M3288 1496L3288 1499L3289 1499L3288 1496z"/>
<path style="fill:#ff0121; stroke:none;" d="M3373 1496L3374 1497L3373 1496M3401 1496L3402 1497L3401 1496z"/>
<path style="fill:#ff0101; stroke:none;" d="M414 1628L412 1656C458.369 1661.86 484 1622.7 484 1580C484 1558.23 478.207 1535.88 457 1525.28C452.023 1522.79 446.497 1521.67 441 1521.05C401.124 1516.57 386.926 1556.26 373.309 1586C367.638 1598.38 358.72 1619.26 342 1618.39C320.406 1617.26 315.808 1590.81 318.439 1574C322.966 1545.09 340.675 1526.74 370 1528L372 1499C350.789 1498.99 332.549 1499.61 316.285 1515.43C284.674 1546.18 276.631 1622.44 324 1643.12C329.77 1645.64 335.719 1646.97 342 1647C379.896 1647.18 393.725 1614.34 407.14 1584C412.501 1571.87 419.909 1549.56 436 1549.14C455.782 1548.62 459.866 1573.39 457.561 1588C453.498 1613.75 440.315 1628 414 1628z"/>
<path style="fill:#ff0111; stroke:none;" d="M3374 1498L3375 1499L3374 1498M3400 1498L3401 1499L3400 1498z"/>
<path style="fill:#ff0121; stroke:none;" d="M3288.33 1499.67L3288.67 1500.33L3288.33 1499.67M3374.33 1499.67L3374.67 1500.33L3374.33 1499.67z"/>
<path style="fill:#ff0111; stroke:none;" d="M3308.33 1501.67L3308.67 1502.33L3308.33 1501.67M3399 1501L3400 1502L3399 1501M3375 1502L3376 1503L3375 1502z"/>
<path style="fill:#ff0121; stroke:none;" d="M3399 1502L3400 1503L3399 1502z"/>
<path style="fill:#ff0111; stroke:none;" d="M3289.33 1503.67L3289.67 1504.33L3289.33 1503.67z"/>
<path style="fill:#ff0121; stroke:none;" d="M3375.33 1503.67L3375.67 1504.33L3375.33 1503.67M3289.33 1505.67L3289.67 1506.33L3289.33 1505.67z"/>
<path style="fill:#ff0111; stroke:none;" d="M3398 1505L3399 1506L3398 1505z"/>
<path style="fill:#ff0121; stroke:none;" d="M3309.33 1506.67L3309.67 1507.33L3309.33 1506.67z"/>
<path style="fill:#ff0111; stroke:none;" d="M3376.33 1506.67L3376.67 1507.33L3376.33 1506.67z"/>
<path style="fill:#ff0121; stroke:none;" d="M3398 1506L3398 1513L3399 1513L3398 1506z"/>
<path style="fill:#ff0111; stroke:none;" d="M3309 1508L3310 1509L3309 1508z"/>
<path style="fill:#ff0121; stroke:none;" d="M3376 1508L3377 1509L3376 1508z"/>
<path style="fill:#ff0111; stroke:none;" d="M3290 1509L3291 1510L3290 1509z"/>
<path style="fill:#ff0121; stroke:none;" d="M3290.33 1510.67L3290.67 1511.33L3290.33 1510.67M3310 1511L3311 1512L3310 1511z"/>
<path style="fill:#ff0111; stroke:none;" d="M3377 1511L3378 1512L3377 1511M3310.33 1512.67L3310.67 1513.33L3310.33 1512.67z"/>
<path style="fill:#ff0121; stroke:none;" d="M3377.33 1512.67L3377.67 1513.33L3377.33 1512.67z"/>
<path style="fill:#ff0111; stroke:none;" d="M3291.33 1513.67L3291.67 1514.33L3291.33 1513.67M3398.33 1513.67L3398.67 1514.33L3398.33 1513.67z"/>
<path style="fill:#ff0121; stroke:none;" d="M3291 1515L3292 1516L3291 1515M3311 1515L3312 1516L3311 1515z"/>
<path style="fill:#ff0111; stroke:none;" d="M3378.33 1515.67L3378.67 1516.33L3378.33 1515.67M3311.33 1516.67L3311.67 1517.33L3311.33 1516.67z"/>
<path style="fill:#ff0121; stroke:none;" d="M3378 1517L3379 1518L3378 1517M3399.33 1517.67L3399.67 1518.33L3399.33 1517.67z"/>
<path style="fill:#ff0111; stroke:none;" d="M3292 1518L3293 1519L3292 1518z"/>
<path style="fill:#ff0121; stroke:none;" d="M3292.33 1519.67L3292.67 1520.33L3292.33 1519.67M3312.33 1519.67L3312.67 1520.33L3312.33 1519.67z"/>
<path style="fill:#ff0111; stroke:none;" d="M3399.33 1519.67L3399.67 1520.33L3399.33 1519.67M3379 1520L3380 1521L3379 1520M3312 1521L3313 1522L3312 1521z"/>
<path style="fill:#ff0121; stroke:none;" d="M3379.33 1521.67L3379.67 1522.33L3379.33 1521.67z"/>
<path style="fill:#ff0111; stroke:none;" d="M3293.33 1522.67L3293.67 1523.33L3293.33 1522.67z"/>
<path style="fill:#ff0121; stroke:none;" d="M3400 1523L3401 1524L3400 1523M3293 1524L3294 1525L3293 1524M3313 1524L3314 1525L3313 1524z"/>
<path style="fill:#ff0111; stroke:none;" d="M3380.33 1524.67L3380.67 1525.33L3380.33 1524.67M3400.33 1524.67L3400.67 1525.33L3400.33 1524.67M3313 1525L3314 1526L3313 1525z"/>
<path style="fill:#ff0121; stroke:none;" d="M3380 1526L3381 1527L3380 1526z"/>
<path style="fill:#ff0111; stroke:none;" d="M3294 1527L3295 1528L3294 1527z"/>
<path style="fill:#ff0121; stroke:none;" d="M3401.33 1527.67L3401.67 1528.33L3401.33 1527.67M3294.33 1528.67L3294.67 1529.33L3294.33 1528.67M3314 1528L3315 1529L3314 1528z"/>
<path style="fill:#ff0111; stroke:none;" d="M3314.33 1529.67L3314.67 1530.33L3314.33 1529.67M3381 1529L3382 1530L3381 1529M3401 1529L3402 1530L3401 1529z"/>
<path style="fill:#ff0121; stroke:none;" d="M3381.33 1530.67L3381.67 1531.33L3381.33 1530.67z"/>
<path style="fill:#ff0111; stroke:none;" d="M3295.33 1531.67L3295.67 1532.33L3295.33 1531.67z"/>
<path style="fill:#ff0121; stroke:none;" d="M3315.33 1532.67L3315.67 1533.33L3315.33 1532.67M3402 1532L3403 1533L3402 1532M3295 1533L3296 1534L3295 1533z"/>
<path style="fill:#ff0111; stroke:none;" d="M3382.33 1533.67L3382.67 1534.33L3382.33 1533.67M3402 1533L3403 1534L3402 1533M3315 1534L3316 1535L3315 1534z"/>
<path style="fill:#ff0121; stroke:none;" d="M3486.67 1534.33L3487.33 1534.67L3486.67 1534.33z"/>
<path style="fill:#ff0111; stroke:none;" d="M3488.67 1534.33L3489.33 1534.67L3488.67 1534.33z"/>
<path style="fill:#ff0121; stroke:none;" d="M3382 1535L3383 1536L3382 1535M3480.67 1535.33L3481.33 1535.67L3480.67 1535.33z"/>
<path style="fill:#ff0111; stroke:none;" d="M3482.67 1535.33L3483.33 1535.67L3482.67 1535.33M3296 1536L3297 1537L3296 1536z"/>
<path style="fill:#ff0121; stroke:none;" d="M3403 1536L3404 1537L3403 1536M3475.67 1536.33L3476.33 1536.67L3475.67 1536.33z"/>
<path style="fill:#ff0111; stroke:none;" d="M3477 1536L3478 1537L3477 1536z"/>
<path style="fill:#ff0121; stroke:none;" d="M3490 1536L3491 1537L3490 1536M3296.33 1537.67L3296.67 1538.33L3296.33 1537.67M3316 1537L3317 1538L3316 1537z"/>
<path style="fill:#ff0111; stroke:none;" d="M3403.33 1537.67L3403.67 1538.33L3403.33 1537.67z"/>
<path style="fill:#ff0121; stroke:none;" d="M3470.67 1537.33L3471.33 1537.67L3470.67 1537.33z"/>
<path style="fill:#ff0111; stroke:none;" d="M3472 1537L3473 1538L3472 1537M3490.33 1537.67L3490.67 1538.33L3490.33 1537.67M3316 1538L3317 1539L3316 1538M3383 1538L3384 1539L3383 1538z"/>
<path style="fill:#ff0121; stroke:none;" d="M3464.67 1538.33L3465.33 1538.67L3464.67 1538.33z"/>
<path style="fill:#ff0111; stroke:none;" d="M3466.67 1538.33L3467.33 1538.67L3466.67 1538.33z"/>
<path style="fill:#ff0121; stroke:none;" d="M3383.33 1539.67L3383.67 1540.33L3383.33 1539.67M3459.67 1539.33L3460.33 1539.67L3459.67 1539.33z"/>
<path style="fill:#ff0111; stroke:none;" d="M3461 1539L3462 1540L3461 1539M3297.33 1540.67L3297.67 1541.33L3297.33 1540.67z"/>
<path style="fill:#ff0121; stroke:none;" d="M3404.33 1540.67L3404.67 1541.33L3404.33 1540.67M3454 1540L3455 1541L3454 1540z"/>
<path style="fill:#ff0111; stroke:none;" d="M3455.67 1540.33L3456.33 1540.67L3455.67 1540.33z"/>
<path style="fill:#ff0121; stroke:none;" d="M3491 1540L3492 1541L3491 1540M3317 1541L3318 1542L3317 1541M3448.67 1541.33L3449.33 1541.67L3448.67 1541.33z"/>
<path style="fill:#ff0111; stroke:none;" d="M3450.67 1541.33L3451.33 1541.67L3450.67 1541.33M3491.33 1541.67L3491.67 1542.33L3491.33 1541.67z"/>
<path style="fill:#ff0121; stroke:none;" d="M3297 1542L3298 1543L3297 1542z"/>
<path style="fill:#ff0111; stroke:none;" d="M3317.33 1542.67L3317.67 1543.33L3317.33 1542.67M3384.33 1542.67L3384.67 1543.33L3384.33 1542.67M3404 1542L3405 1543L3404 1542z"/>
<path style="fill:#ff0121; stroke:none;" d="M3443.67 1542.33L3444.33 1542.67L3443.67 1542.33z"/>
<path style="fill:#ff0111; stroke:none;" d="M3445 1542L3446 1543L3445 1542z"/>
<path style="fill:#ff0121; stroke:none;" d="M3438 1543L3439 1544L3438 1543z"/>
<path style="fill:#ff0111; stroke:none;" d="M3439.67 1543.33L3440.33 1543.67L3439.67 1543.33z"/>
<path style="fill:#ff0121; stroke:none;" d="M3384 1544L3385 1545L3384 1544M3432.67 1544.33L3433.33 1544.67L3432.67 1544.33z"/>
<path style="fill:#ff0111; stroke:none;" d="M3434.67 1544.33L3435.33 1544.67L3434.67 1544.33z"/>
<path style="fill:#ff0121; stroke:none;" d="M3492.33 1544.67L3492.67 1545.33L3492.33 1544.67z"/>
<path style="fill:#ff0111; stroke:none;" d="M3298 1545L3299 1546L3298 1545z"/>
<path style="fill:#ff0121; stroke:none;" d="M3318 1545L3319 1546L3318 1545M3405 1545L3406 1546L3405 1545M3427.67 1545.33L3428.33 1545.67L3427.67 1545.33z"/>
<path style="fill:#ff0111; stroke:none;" d="M3429 1545L3430 1546L3429 1545z"/>
<path style="fill:#ff0121; stroke:none;" d="M3298.33 1546.67L3298.67 1547.33L3298.33 1546.67z"/>
<path style="fill:#ff0111; stroke:none;" d="M3318.33 1546.67L3318.67 1547.33L3318.33 1546.67M3405.33 1546.67L3405.67 1547.33L3405.33 1546.67z"/>
<path style="fill:#ff0121; stroke:none;" d="M3421.67 1546.33L3422.33 1546.67L3421.67 1546.33z"/>
<path style="fill:#ff0111; stroke:none;" d="M3423.67 1546.33L3424.33 1546.67L3423.67 1546.33M3492 1546L3493 1547L3492 1546M3385 1547L3386 1548L3385 1547z"/>
<path style="fill:#ff0121; stroke:none;" d="M3416.67 1547.33L3417.33 1547.67L3416.67 1547.33z"/>
<path style="fill:#ff0111; stroke:none;" d="M3418.67 1547.33L3419.33 1547.67L3418.67 1547.33z"/>
<path style="fill:#ff0121; stroke:none;" d="M3385.33 1548.67L3385.67 1549.33L3385.33 1548.67M3411.67 1548.33L3412.33 1548.67L3411.67 1548.33z"/>
<path style="fill:#ff0111; stroke:none;" d="M3413 1548L3414 1549L3413 1548z"/>
<path style="fill:#ff0121; stroke:none;" d="M3493.33 1548.67L3493.67 1549.33L3493.33 1548.67z"/>
<path style="fill:#ff0111; stroke:none;" d="M3299.33 1549.67L3299.67 1550.33L3299.33 1549.67z"/>
<path style="fill:#ff0121; stroke:none;" d="M3319.33 1549.67L3319.67 1550.33L3319.33 1549.67z"/>
<path style="fill:#ff0111; stroke:none;" d="M3406 1549L3406 1550L3409 1550L3406 1549M3493 1550L3494 1551L3493 1550z"/>
<path style="fill:#ff0121; stroke:none;" d="M3299 1551L3300 1552L3299 1551z"/>
<path style="fill:#ff0111; stroke:none;" d="M3319 1551L3320 1552L3319 1551M3386.33 1551.67L3386.67 1552.33L3386.33 1551.67z"/>
<path style="fill:#ff0121; stroke:none;" d="M3382.67 1553.33L3383.33 1553.67L3382.67 1553.33z"/>
<path style="fill:#ff0111; stroke:none;" d="M3384 1553L3385 1554L3384 1553z"/>
<path style="fill:#ff0121; stroke:none;" d="M3494.33 1553.67L3494.67 1554.33L3494.33 1553.67z"/>
<path style="fill:#ff0111; stroke:none;" d="M3300 1554L3301 1555L3300 1554z"/>
<path style="fill:#ff0121; stroke:none;" d="M3320 1554L3321 1555L3320 1554M3377.67 1554.33L3378.33 1554.67L3377.67 1554.33z"/>
<path style="fill:#ff0111; stroke:none;" d="M3379 1554L3380 1555L3379 1554M3493 1554L3494 1555L3493 1554z"/>
<path style="fill:#ff0121; stroke:none;" d="M3300.33 1555.67L3300.67 1556.33L3300.33 1555.67z"/>
<path style="fill:#ff0111; stroke:none;" d="M3320 1555L3321 1556L3320 1555z"/>
<path style="fill:#ff0121; stroke:none;" d="M3372 1555L3373 1556L3372 1555z"/>
<path style="fill:#ff0111; stroke:none;" d="M3373.67 1555.33L3374.33 1555.67L3373.67 1555.33M3487.67 1555.33L3488.33 1555.67L3487.67 1555.33z"/>
<path style="fill:#ff0121; stroke:none;" d="M3489.67 1555.33L3490.33 1555.67L3489.67 1555.33M3366.67 1556.33L3367.33 1556.67L3366.67 1556.33z"/>
<path style="fill:#ff0111; stroke:none;" d="M3368.67 1556.33L3369.33 1556.67L3368.67 1556.33M3482.67 1556.33L3483.33 1556.67L3482.67 1556.33z"/>
<path style="fill:#ff0121; stroke:none;" d="M3484.67 1556.33L3485.33 1556.67L3484.67 1556.33M3361.67 1557.33L3362.33 1557.67L3361.67 1557.33z"/>
<path style="fill:#ff0111; stroke:none;" d="M3363.67 1557.33L3364.33 1557.67L3363.67 1557.33M3477 1557L3478 1558L3477 1557z"/>
<path style="fill:#ff0121; stroke:none;" d="M3478.67 1557.33L3479.33 1557.67L3478.67 1557.33z"/>
<path style="fill:#ff0111; stroke:none;" d="M3301.33 1558.67L3301.67 1559.33L3301.33 1558.67z"/>
<path style="fill:#ff0121; stroke:none;" d="M3321 1558L3322 1559L3321 1558M3356.67 1558.33L3357.33 1558.67L3356.67 1558.33z"/>
<path style="fill:#ff0111; stroke:none;" d="M3358 1558L3359 1559L3358 1558M3472 1558L3473 1559L3472 1558z"/>
<path style="fill:#ff0121; stroke:none;" d="M3473.67 1558.33L3474.33 1558.67L3473.67 1558.33z"/>
<path style="fill:#ff0111; stroke:none;" d="M3321.33 1559.67L3321.67 1560.33L3321.33 1559.67z"/>
<path style="fill:#ff0121; stroke:none;" d="M3351.67 1559.33L3352.33 1559.67L3351.67 1559.33z"/>
<path style="fill:#ff0111; stroke:none;" d="M3353 1559L3354 1560L3353 1559M3466.67 1559.33L3467.33 1559.67L3466.67 1559.33z"/>
<path style="fill:#ff0121; stroke:none;" d="M3468.67 1559.33L3469.33 1559.67L3468.67 1559.33M3301 1560L3302 1561L3301 1560M3346.67 1560.33L3347.33 1560.67L3346.67 1560.33z"/>
<path style="fill:#ff0111; stroke:none;" d="M3348 1560L3349 1561L3348 1560M3461 1560L3462 1561L3461 1560z"/>
<path style="fill:#ff0121; stroke:none;" d="M3462.67 1560.33L3463.33 1560.67L3462.67 1560.33M3341 1561L3342 1562L3341 1561z"/>
<path style="fill:#ff0111; stroke:none;" d="M3342.67 1561.33L3343.33 1561.67L3342.67 1561.33M3456 1561L3457 1562L3456 1561z"/>
<path style="fill:#ff0121; stroke:none;" d="M3457.67 1561.33L3458.33 1561.67L3457.67 1561.33M3322.33 1562.67L3322.67 1563.33L3322.33 1562.67M3336 1562L3337 1563L3336 1562z"/>
<path style="fill:#ff0111; stroke:none;" d="M3337.67 1562.33L3338.33 1562.67L3337.67 1562.33M3450.67 1562.33L3451.33 1562.67L3450.67 1562.33z"/>
<path style="fill:#ff0121; stroke:none;" d="M3452.67 1562.33L3453.33 1562.67L3452.67 1562.33z"/>
<path style="fill:#ff0111; stroke:none;" d="M3302 1563L3303 1564L3302 1563z"/>
<path style="fill:#ff0121; stroke:none;" d="M3330.67 1563.33L3331.33 1563.67L3330.67 1563.33z"/>
<path style="fill:#ff0111; stroke:none;" d="M3332.67 1563.33L3333.33 1563.67L3332.67 1563.33M3445 1563L3446 1564L3445 1563z"/>
<path style="fill:#ff0121; stroke:none;" d="M3446.67 1563.33L3447.33 1563.67L3446.67 1563.33M3302.33 1564.67L3302.67 1565.33L3302.33 1564.67z"/>
<path style="fill:#ff0111; stroke:none;" d="M3322 1564L3323 1565L3322 1564z"/>
<path style="fill:#ff0121; stroke:none;" d="M3325.67 1564.33L3326.33 1564.67L3325.67 1564.33z"/>
<path style="fill:#ff0111; stroke:none;" d="M3327.67 1564.33L3328.33 1564.67L3327.67 1564.33M3440 1564L3441 1565L3440 1564z"/>
<path style="fill:#ff0121; stroke:none;" d="M3441.67 1564.33L3442.33 1564.67L3441.67 1564.33z"/>
<path style="fill:#ff0111; stroke:none;" d="M3434.67 1565.33L3435.33 1565.67L3434.67 1565.33z"/>
<path style="fill:#ff0121; stroke:none;" d="M3436.67 1565.33L3437.33 1565.67L3436.67 1565.33z"/>
<path style="fill:#ff0111; stroke:none;" d="M3429.67 1566.33L3430.33 1566.67L3429.67 1566.33z"/>
<path style="fill:#ff0121; stroke:none;" d="M3431 1566L3432 1567L3431 1566z"/>
<path style="fill:#ff0111; stroke:none;" d="M3303.33 1567.67L3303.67 1568.33L3303.33 1567.67M3424 1567L3425 1568L3424 1567z"/>
<path style="fill:#ff0121; stroke:none;" d="M3425.67 1567.33L3426.33 1567.67L3425.67 1567.33z"/>
<path style="fill:#ff0111; stroke:none;" d="M3418.67 1568.33L3419.33 1568.67L3418.67 1568.33z"/>
<path style="fill:#ff0121; stroke:none;" d="M3420.67 1568.33L3421.33 1568.67L3420.67 1568.33z"/>
<path style="fill:#ff0101; stroke:none;" d="M3474 1572L3492 1683L3435 1692C3434.73 1659.67 3425.93 1623.82 3420 1592C3414.95 1592.4 3398.11 1592.36 3395.07 1596.6C3391.77 1601.2 3397.19 1617.56 3398.08 1623C3402 1646.83 3407.96 1671.88 3409 1696L3360 1704L3343 1597L3317 1601L3338 1737L3345 1736C3345 1742.87 3342.56 1758.63 3347.03 1764.26C3348.84 1766.54 3353.37 1766.73 3356 1767.37C3364.64 1769.5 3373.36 1771.25 3382 1773.37C3402.93 1778.51 3424.03 1782.92 3445 1787.88C3458.89 1791.18 3473.7 1796.38 3488 1797L3488 1799L3446 1808.86L3347 1839C3347 1846.63 3343.58 1865.22 3348.18 1871.44C3350.13 1874.08 3355.06 1874.36 3358 1875.15L3384 1882.15C3407.31 1888.47 3430.64 1894.74 3454 1900.88C3466.36 1904.13 3479.23 1908.96 3492 1910L3492 1912L3446 1922.63L3349 1947L3349 1977L3395 1964.42L3489 1937.58L3534 1925C3534 1918.31 3537 1902.02 3532.97 1896.56C3530.89 1893.74 3525.15 1893.45 3522 1892.58C3512.7 1889.99 3503.37 1887.47 3494 1885.13C3457.58 1876.01 3420.18 1861.01 3383 1856L3383 1855L3436 1839.72L3533 1811L3532 1783L3469 1767.15L3347 1736L3347 1735L3406 1726.27L3522 1708C3519.27 1673.41 3511.71 1638.25 3506.08 1604C3504.71 1595.68 3503.3 1587.35 3502.13 1579C3501.75 1576.26 3501.92 1570.86 3499.4 1569.07C3495.08 1566.01 3478.86 1570.52 3474 1572z"/>
<path style="fill:#ff0121; stroke:none;" d="M3303 1569L3304 1570L3303 1569z"/>
<path style="fill:#ff0111; stroke:none;" d="M3413.67 1569.33L3414.33 1569.67L3413.67 1569.33z"/>
<path style="fill:#ff0121; stroke:none;" d="M3415 1569L3416 1570L3415 1569z"/>
<path style="fill:#ff0111; stroke:none;" d="M3408 1570L3409 1571L3408 1570z"/>
<path style="fill:#ff0121; stroke:none;" d="M3409.67 1570.33L3410.33 1570.67L3409.67 1570.33z"/>
<path style="fill:#ff0111; stroke:none;" d="M3402.67 1571.33L3403.33 1571.67L3402.67 1571.33z"/>
<path style="fill:#ff0121; stroke:none;" d="M3404.67 1571.33L3405.33 1571.67L3404.67 1571.33z"/>
<path style="fill:#ff0111; stroke:none;" d="M3304 1572L3305 1573L3304 1572M3397.67 1572.33L3398.33 1572.67L3397.67 1572.33z"/>
<path style="fill:#ff0121; stroke:none;" d="M3399.67 1572.33L3400.33 1572.67L3399.67 1572.33M3304.33 1573.67L3304.67 1574.33L3304.33 1573.67z"/>
<path style="fill:#ff0111; stroke:none;" d="M3392 1573L3393 1574L3392 1573z"/>
<path style="fill:#ff0121; stroke:none;" d="M3393.67 1573.33L3394.33 1573.67L3393.67 1573.33z"/>
<path style="fill:#ff0111; stroke:none;" d="M3386.67 1574.33L3387.33 1574.67L3386.67 1574.33z"/>
<path style="fill:#ff0121; stroke:none;" d="M3388.67 1574.33L3389.33 1574.67L3388.67 1574.33z"/>
<path style="fill:#ff0111; stroke:none;" d="M3381.67 1575.33L3382.33 1575.67L3381.67 1575.33z"/>
<path style="fill:#ff0121; stroke:none;" d="M3383.67 1575.33L3384.33 1575.67L3383.67 1575.33z"/>
<path style="fill:#ff0111; stroke:none;" d="M3305.33 1576.67L3305.67 1577.33L3305.33 1576.67M3376 1576L3377 1577L3376 1576z"/>
<path style="fill:#ff0121; stroke:none;" d="M3377.67 1576.33L3378.33 1576.67L3377.67 1576.33z"/>
<path style="fill:#ff0111; stroke:none;" d="M3370.67 1577.33L3371.33 1577.67L3370.67 1577.33z"/>
<path style="fill:#ff0121; stroke:none;" d="M3372.67 1577.33L3373.33 1577.67L3372.67 1577.33M3305 1578L3306 1579L3305 1578z"/>
<path style="fill:#ff0111; stroke:none;" d="M3365.67 1578.33L3366.33 1578.67L3365.67 1578.33z"/>
<path style="fill:#ff0121; stroke:none;" d="M3367.67 1578.33L3368.33 1578.67L3367.67 1578.33z"/>
<path style="fill:#ff0111; stroke:none;" d="M3360 1579L3361 1580L3360 1579z"/>
<path style="fill:#ff0121; stroke:none;" d="M3361.67 1579.33L3362.33 1579.67L3361.67 1579.33z"/>
<path style="fill:#ff0111; stroke:none;" d="M3354.67 1580.33L3355.33 1580.67L3354.67 1580.33z"/>
<path style="fill:#ff0121; stroke:none;" d="M3356.67 1580.33L3357.33 1580.67L3356.67 1580.33z"/>
<path style="fill:#ff0111; stroke:none;" d="M3306 1581L3307 1582L3306 1581M3349.67 1581.33L3350.33 1581.67L3349.67 1581.33z"/>
<path style="fill:#ff0121; stroke:none;" d="M3351.67 1581.33L3352.33 1581.67L3351.67 1581.33M3306.33 1582.67L3306.67 1583.33L3306.33 1582.67z"/>
<path style="fill:#ff0111; stroke:none;" d="M3344 1582L3345 1583L3344 1582z"/>
<path style="fill:#ff0121; stroke:none;" d="M3345.67 1582.33L3346.33 1582.67L3345.67 1582.33z"/>
<path style="fill:#ff0111; stroke:none;" d="M3338.67 1583.33L3339.33 1583.67L3338.67 1583.33z"/>
<path style="fill:#ff0121; stroke:none;" d="M3340.67 1583.33L3341.33 1583.67L3340.67 1583.33z"/>
<path style="fill:#ff0111; stroke:none;" d="M3333.67 1584.33L3334.33 1584.67L3333.67 1584.33z"/>
<path style="fill:#ff0121; stroke:none;" d="M3335.67 1584.33L3336.33 1584.67L3335.67 1584.33z"/>
<path style="fill:#ff0111; stroke:none;" d="M3307.33 1585.67L3307.67 1586.33L3307.33 1585.67M3328 1585L3329 1586L3328 1585z"/>
<path style="fill:#ff0121; stroke:none;" d="M3329.67 1585.33L3330.33 1585.67L3329.67 1585.33z"/>
<path style="fill:#ff0111; stroke:none;" d="M3323 1586L3324 1587L3323 1586z"/>
<path style="fill:#ff0121; stroke:none;" d="M3324.67 1586.33L3325.33 1586.67L3324.67 1586.33M3307 1587L3308 1588L3307 1587z"/>
<path style="fill:#ff0111; stroke:none;" d="M3317.67 1587.33L3318.33 1587.67L3317.67 1587.33z"/>
<path style="fill:#ff0121; stroke:none;" d="M3319.67 1587.33L3320.33 1587.67L3319.67 1587.33z"/>
<path style="fill:#ff0111; stroke:none;" d="M3312 1588L3313 1589L3312 1588z"/>
<path style="fill:#ff0121; stroke:none;" d="M3313.67 1588.33L3314.33 1588.67L3313.67 1588.33M3308.67 1589.33L3309.33 1589.67L3308.67 1589.33z"/>
<path style="fill:#ff0101; stroke:none;" d="M1629 1656C1632.22 1696.86 1636.17 1738.05 1637.96 1779C1638.83 1798.9 1636.16 1818.99 1637.04 1839C1639.74 1900.58 1639.41 1965.68 1625.12 2026C1618.01 2055.99 1603.85 2080.98 1592.21 2109C1590.29 2113.62 1590.84 2119.12 1589.62 2124C1587.23 2133.63 1583.15 2142.47 1578.14 2151C1566.58 2170.7 1551.2 2187.89 1540.31 2208C1534.6 2218.55 1534.25 2230.77 1529.15 2241C1526.48 2246.35 1522.02 2250.63 1519.26 2256C1513.2 2267.78 1510.07 2281.01 1507.92 2294C1506.02 2305.48 1504.28 2317.37 1504 2329C1503.91 2332.64 1502.02 2338.19 1504.61 2341.21C1512.73 2350.72 1524.73 2351 1536 2351L1589 2351C1668.44 2351 1747.65 2346 1827 2346L1824 2291C1782.31 2283.23 1738.28 2283.98 1696 2285.01C1685.12 2285.28 1673.86 2287.45 1663 2286.95C1655 2286.59 1646.65 2281.39 1639 2279.03C1625.92 2274.98 1611.68 2273 1598 2273C1599.11 2258.98 1601.93 2241.88 1607.75 2229C1611.98 2219.64 1618.79 2211.38 1623.22 2202C1635.61 2175.77 1648.16 2148.03 1658.53 2121C1664.7 2104.92 1668.16 2088.08 1675 2072C1677.33 2066.53 1679.24 2058.72 1683.42 2054.39C1688.51 2049.12 1698.42 2046.7 1705 2043.69C1713.23 2039.92 1722.11 2034.28 1731 2032.39C1750.97 2028.14 1773.63 2032.11 1794 2030.17C1802.06 2029.4 1816.77 2033.25 1823.77 2028.97C1827.44 2026.74 1827.79 2020.84 1827.96 2017C1828.42 2006.71 1828 1996.3 1828 1986C1828 1980.76 1828.81 1976.2 1823.94 1973.02C1799.29 1956.89 1774.87 1960.48 1747 1957.83C1733.05 1956.5 1720.31 1950.74 1707 1949C1707 1919.93 1710.65 1891.01 1711 1862C1711.18 1846.32 1710.6 1827 1723.52 1815.51C1728.66 1810.94 1740.46 1812.46 1747 1811.83C1766.46 1809.95 1785.85 1806.96 1805 1803C1810.46 1801.87 1824.42 1800.8 1827.97 1796.27C1834.77 1787.62 1830.08 1767.99 1830 1758C1803.21 1758 1775.48 1757.86 1749 1753.41C1740.82 1752.04 1726.54 1750.7 1720.42 1744.58C1715.55 1739.71 1714.23 1729.46 1712.63 1723C1707.33 1701.72 1706 1678.85 1706 1657L1629 1656M1887 1656L1885 1776L1878 1776L1879 1959L1885 1959L1884 2048L1878 2048C1878 2118.33 1877 2188.75 1877 2259C1877 2285.69 1871.63 2324.96 1888.47 2347.85C1891.3 2351.7 1895.71 2351 1900 2351L1930 2351C1962.12 2351 1996.04 2349.13 2028 2352.17C2039.33 2353.25 2061.29 2356.99 2070.4 2348.01C2073.07 2345.36 2072.92 2338.53 2072.98 2335C2073.22 2322.98 2070.01 2311.04 2070 2299C2042.26 2295.48 2014.87 2292 1987 2290.09C1970.52 2288.96 1957.3 2292.07 1944.6 2279.26C1939.56 2274.18 1944 2256.69 1944 2250C1944 2219.67 1946.64 2189.28 1947.96 2159C1949.99 2112.64 1946.07 2064.38 1944.04 2018C1941.21 1953.39 1943 1887.62 1943 1823L1948 1823L1950.96 1782L1949.96 1692L1945 1662L1887 1656M1992 1753C1991.97 1765.53 1985.5 1792 1994.94 1802.4C1998.98 1806.85 2019.93 1805 2026 1805C2054.91 1805.01 2084.11 1806.76 2113 1808C2114.69 1821.29 2117.99 1834.63 2118.91 1848C2120.26 1867.53 2117.89 1887.52 2117.04 1907C2116.59 1917.17 2120.72 1934.76 2113.77 1942.98C2106.66 1951.41 2093.12 1949.97 2083 1951.28C2054.7 1954.96 2024.52 1960.92 1996 1961C1996 1975.92 1997.46 1990.28 1999.92 2005C2000.67 2009.51 2000.7 2017.79 2003.86 2021.3C2010.33 2028.49 2029.36 2026 2038 2026C2065.86 2026 2107.4 2013.58 2129.91 2036.09C2139.81 2046 2138.89 2057.48 2141.38 2070C2143.82 2082.3 2150 2093.92 2152.61 2106C2154.54 2114.95 2153.77 2124.82 2155.42 2134C2161.56 2167.93 2179.58 2199.12 2197.58 2228C2205.35 2240.49 2213.51 2252.76 2221.67 2265C2225.25 2270.38 2230.46 2276.11 2226.58 2282.78C2222.43 2289.91 2207.06 2288.49 2200 2289.42C2172.38 2293.06 2142.85 2295.98 2115 2296L2119 2354C2164.63 2359.77 2211.25 2356.21 2257 2355.01C2281.04 2354.39 2305.02 2354.32 2317.19 2330C2335.65 2293.1 2291.52 2254.8 2277.86 2224C2272.4 2211.68 2272.77 2197.95 2267.79 2186C2257.86 2162.17 2244.32 2139.66 2233.86 2116C2210.57 2063.3 2190.99 2007.65 2180 1951L2175 1951L2180 1721L2184 1721L2184 1684C2184 1679.64 2185.41 1672.21 2182.97 1668.39C2175.37 1656.47 2145.7 1657.27 2134 1659.67C2130.12 1660.46 2122.57 1661.32 2120.03 1664.7C2117.39 1668.22 2119.23 1675.81 2118.83 1680C2117.77 1691.17 2117 1702.78 2117 1714C2117 1724.02 2118.69 1732.5 2109 1738.37C2074.55 1759.25 2029.68 1748.24 1992 1753M273 1700C292.27 1700.16 311.813 1704.14 331 1705.93C337.329 1706.51 350.413 1705.47 355.643 1709.18C359.697 1712.05 356.292 1724.72 355.834 1729C354.013 1746.01 351.871 1762.98 350.169 1780C349.744 1784.25 350.696 1794.35 346.682 1796.97C342.859 1799.46 334.284 1796.8 330 1796.29C315.032 1794.49 299.951 1793.56 285 1791.58C280.553 1790.98 267.382 1787.57 264.179 1791.6C259.929 1796.95 261.252 1811.26 260 1818C276.635 1822.93 296.716 1822.44 314 1824.17C341.685 1826.94 369.296 1830.5 397 1833.07C407.664 1834.07 418.38 1835.17 429 1836.58C432.705 1837.06 440.138 1839.01 443.566 1837.38C448.625 1834.99 448.328 1814.32 449 1809L374 1801L378.169 1766L384 1712L458 1719L461 1690C416.108 1689.63 369.663 1680.62 325 1675.83C313.027 1674.55 301.015 1672.8 289 1671.98C285.633 1671.75 279.673 1669.66 276.742 1672.03C272.334 1675.58 273.046 1694.45 273 1700M262 1841C262 1848.35 258.815 1865.39 263.028 1871.5C265.322 1874.83 271.433 1875.75 275 1877.05L302 1886.95C305.841 1888.35 311.598 1889.28 314.397 1892.5C317.708 1896.31 316 1905.28 316 1910C316 1926.46 317.393 1943.6 315.941 1960C315.347 1966.71 308.295 1967.76 303 1969.81C291.498 1974.27 274.036 1977.54 264.318 1985.09C258.392 1989.69 262 2011.88 262 2019C275.79 2016.93 290.126 2008.32 303 2003.01C330.018 1991.86 357.048 1980.73 384 1969.42C398.627 1963.29 413.427 1957.55 428 1951.28C433.574 1948.88 440.793 1947.22 445.682 1943.59C450.047 1940.34 449.531 1919.04 447.397 1914.22C445.596 1910.16 438.753 1909 435 1907.58C423.978 1903.38 412.975 1899.11 402 1894.8C371.394 1882.77 340.664 1871.07 310 1859.19C294.353 1853.13 278.33 1844.87 262 1841z"/>
<path style="fill:#ffffff; stroke:none;" d="M341 1901L341 1955L416 1928L416 1927C389.999 1923.5 365.735 1909.06 341 1901M3808 1924C3808 2183.09 3750.28 2447.19 3642.31 2683C3528.87 2930.74 3367.34 3150.28 3164 3331.83C2728.55 3720.64 2120.5 3882.47 1549 3775.39C1344.61 3737.09 1146.88 3663.99 966 3561.58C813.261 3475.09 670.613 3366.68 548.015 3241C376.423 3065.1 239.654 2859.58 144.576 2633C54.9597 2419.44 1 2180.96 1 1949L0 1949L0 3809L3809 3809L3809 2470L3809 2083L3809 1972C3809 1958.48 3813.21 1936.41 3808 1924z"/>
<path style="fill:#ff0101; stroke:none;" d="M3418 1983.42C3401.46 1985.6 3386.24 1989.27 3372 1998.44C3327.5 2027.09 3322.54 2097.69 3358.09 2134.99C3379.64 2157.6 3416.65 2166.44 3447 2162.71C3469.17 2159.99 3490.68 2150.89 3505.83 2134C3531.71 2105.14 3534.12 2056.35 3513.56 2024C3494.42 1993.87 3452.74 1978.85 3418 1983.42z"/>
<path style="fill:#ffffff; stroke:none;" d="M3420 2013.42C3404.65 2015.45 3389.95 2018.45 3378.17 2029.44C3355.56 2050.53 3354.51 2091.63 3376.09 2113.96C3392.91 2131.36 3425.98 2135.7 3449 2132.71C3490.74 2127.29 3516.57 2079.9 3492.91 2043C3478.29 2020.21 3446.21 2009.97 3420 2013.42z"/>
<path style="fill:#ff0101; stroke:none;" d="M267 2038L269 2067C312.695 2061.48 358.973 2053.36 403 2053C372.076 2082.6 336.872 2108.65 304 2136.08C297.292 2141.68 282.777 2149.82 279.607 2158.09C277.886 2162.58 279.957 2170.31 280.576 2175C280.928 2177.68 280.492 2181.24 281.742 2183.68C283.657 2187.43 289.762 2185.25 293 2185.02C304.296 2184.25 315.774 2183.05 327 2181.58C373.496 2175.45 420.47 2172.88 467 2167L464 2139L415 2143.83L329 2153L329 2152C340.321 2146.81 350.438 2135.37 360 2127.41C380.372 2110.46 400.629 2093.37 421 2076.41C429.774 2069.11 449.242 2058.4 453.802 2047.91C456.989 2040.58 452.339 2026.89 452 2019C390.252 2019.04 328.731 2037.49 267 2038z"/>
<path style="fill:#ffffff; stroke:none;" d="M404 2052L405 2053L404 2052z"/>
<path style="fill:#ff0101; stroke:none;" d="M3479 2338L3485 2309L3414 2293C3417.69 2265.58 3428.89 2240.23 3426.91 2212C3424.1 2171.85 3369.07 2150.7 3338 2174.68C3315.84 2191.78 3313.99 2225.81 3307.87 2251C3305.37 2261.31 3303.16 2271.7 3300.63 2282C3299.85 2285.15 3297.19 2291.41 3299.12 2294.44C3301.02 2297.43 3307.85 2297.6 3311 2298.37C3321.97 2301.07 3333.04 2303.39 3344 2306.13C3388.8 2317.31 3434.56 2325.48 3479 2338z"/>
<path style="fill:#ffffff; stroke:none;" d="M3330 2273L3388 2286C3394.48 2266.89 3404.99 2233.91 3399.21 2214C3393.56 2194.55 3363.67 2188.82 3350.19 2203.09C3343.59 2210.07 3341.75 2220.94 3339.79 2230C3336.69 2244.33 3333.67 2258.81 3330 2273z"/>
<path style="fill:#ff0101; stroke:none;" d="M426 2368L405 2288L379 2294L392 2347C384.047 2348.07 370.604 2355.94 363 2352.59C354.558 2348.88 346.878 2336.73 342.428 2329C322.024 2293.55 331.274 2250.5 371 2234.01C393.389 2224.72 421.438 2221.08 443 2234.47C465.191 2248.24 479.196 2284.59 467.673 2309C462.717 2319.5 453.296 2325.73 444 2332C445.558 2337.29 452.361 2353.81 458.21 2355.17C463.365 2356.38 471.453 2348.55 475 2345.56C490.028 2332.9 498.766 2312.79 497.896 2293C497.012 2272.92 491.829 2253.43 481.715 2236C451.444 2183.84 369.295 2185.19 329.17 2225.17C307.513 2246.75 300.967 2277.6 305.921 2307C310.026 2331.37 321.621 2353.49 339.004 2371C343.529 2375.56 351.178 2384.83 358 2385.4C363.941 2385.89 371.274 2382.31 377 2380.87C393.354 2376.76 409.479 2371.41 426 2368M344 2429L353 2456L386 2445.05L434 2427C438.274 2455.53 455.046 2484.53 464 2512L384 2541L394 2569C437.39 2554.88 480.343 2538.02 523 2521.81C533.288 2517.9 543.614 2513.98 554 2510.34C557.537 2509.1 564.804 2507.85 566.932 2504.49C570.227 2499.28 561.317 2482.23 559 2477L489 2502L459 2418C473.248 2412.5 487.577 2407.02 502 2402C509.075 2399.54 519.755 2397.41 525.667 2392.78C529.976 2389.39 522.263 2366.19 516.867 2365.53C512.367 2364.98 506.145 2368.79 502 2370.32C490.343 2374.63 478.618 2378.78 467 2383.19C426.445 2398.6 383.282 2410.63 344 2429M3373 2459C3369.59 2464.98 3357.5 2475.87 3358.11 2482.91C3358.58 2488.22 3370.94 2495.63 3374.32 2500C3385.59 2514.57 3387.18 2533.37 3379.69 2550C3356.02 2602.51 3276.27 2583.75 3251.88 2541C3238.07 2516.79 3248.2 2478.4 3275 2467.45C3284.41 2463.61 3294.05 2464 3304 2464L3308 2435C3292.32 2433.76 3277.45 2434.14 3263 2441.37C3224.3 2460.72 3209.96 2514.54 3226.43 2553C3239.94 2584.56 3275.53 2603.71 3308 2609.58C3351.08 2617.36 3387.1 2599.87 3404.57 2559C3417.02 2529.9 3413.27 2496.36 3390.96 2473C3385.83 2467.62 3380.18 2461.42 3373 2459M404 2589C405.959 2595.8 412.1 2612.27 418.39 2615.93C421.824 2617.93 428.303 2615.51 432 2615L461 2610.87C464.734 2610.35 470.227 2608.47 473.895 2609.69C478.351 2611.18 480.308 2618.22 482.258 2622C487.965 2633.06 494.035 2643.94 499.742 2655C502.12 2659.61 508.149 2667.67 507.505 2673C506.962 2677.48 501.52 2681.74 498.729 2685C491.353 2693.61 475.364 2706.04 472.213 2717C470.283 2723.71 482.508 2741.02 486 2747C499.858 2736.4 510.581 2718.41 521.753 2705C546.1 2675.77 570.309 2646.42 594.424 2617C599.437 2610.88 614.613 2598.31 614.303 2590C614.135 2585.49 609.747 2579.99 607.753 2576C606.189 2572.87 604.702 2567.98 601.61 2566.03C597.966 2563.73 591.001 2565.87 587 2566.42C575.031 2568.07 563.007 2569.6 551 2570.95C502.333 2576.41 452.903 2586.9 404 2589M3184 2580L3170 2606C3206.55 2627.33 3244.77 2646.17 3282 2666.31C3298.08 2675.01 3317.98 2690.79 3336 2694C3338.26 2688.57 3349.5 2673.76 3346.87 2668.33C3344.99 2664.46 3338.54 2662.61 3335 2660.69C3325.36 2655.47 3315.59 2650.45 3306 2645.14C3266.28 2623.12 3225.69 2597.96 3184 2580z"/>
<path style="fill:#ffffff; stroke:none;" d="M502 2605L526 2652L543.576 2634L579 2593L502 2605z"/>
<path style="fill:#ff0101; stroke:none;" d="M1809 2756C1792.52 2814.09 1740.86 2841.52 1683 2844L1688 2861C1720.48 2860.98 1755.42 2851.63 1786 2841.33C1808.83 2833.65 1831.1 2822.59 1850 2807.55C1898.94 2768.62 1913.62 2688.78 1858 2648.16C1842.97 2637.19 1825.1 2630.8 1807 2627.2C1756.51 2617.16 1690.9 2622.96 1654.09 2663C1625.44 2694.17 1641.73 2742.86 1676 2761.69C1714.15 2782.65 1772.65 2779.97 1809 2756M1401 2652L1401 2668L1457 2668L1457 2747C1457 2756.16 1459.27 2770.45 1452.72 2777.9C1442.77 2789.21 1414.92 2788 1401 2788L1401 2801L1586 2801L1586 2788C1571.06 2787.69 1546.42 2787.95 1536.42 2774.99C1529.01 2765.37 1533 2744.58 1533 2733C1533 2696.63 1535 2660.23 1535 2624C1523 2624 1507.63 2621.41 1496 2624.32C1491.34 2625.49 1487.78 2630.08 1484 2632.84C1478.25 2637.03 1471.53 2640.33 1465 2643.13C1444.65 2651.84 1422.7 2652 1401 2652M2261 2652L2261 2668L2317 2668L2317 2747C2317 2756.41 2319.69 2770.38 2312.78 2777.9C2302.68 2788.87 2275.9 2787.99 2262 2788L2262 2801L2446 2801L2446 2788C2431.36 2787.7 2406.15 2787.96 2396.43 2774.98C2389.19 2765.31 2393 2744.46 2393 2733C2393 2696.61 2395 2660.29 2395 2624C2383.13 2624 2368.57 2621.69 2357 2624.3C2346.06 2626.78 2335.04 2639.08 2324 2643.55C2303.81 2651.73 2282.41 2652 2261 2652M1994 2629L1979.58 2707L1973 2747C1978.14 2748.06 1984.76 2751.2 1990 2750.4C1999.86 2748.88 2010.28 2737.76 2020 2734.07C2039.65 2726.61 2066.82 2726.59 2085 2738.09C2118.39 2759.23 2116.96 2808.21 2086 2831.24C2065.97 2846.14 2043.31 2844.95 2020 2842C2024.89 2830.23 2033.25 2815.09 2027.77 2802C2018.2 2779.11 1973.53 2780.72 1958.1 2795.3C1932.22 2819.76 1973.84 2845.14 1994 2851.28C2042.18 2865.95 2103.57 2865.03 2149 2841.74C2184.98 2823.3 2212.79 2776.99 2178.91 2742.04C2172.48 2735.41 2164.25 2729.51 2156 2725.37C2108.43 2701.53 2051.44 2707.61 2003 2724L2011 2673L2183 2673L2183 2629L1994 2629z"/>
<path style="fill:#ffffff; stroke:none;" d="M1758 2639.46C1733.64 2643.86 1723.11 2669.67 1723 2692C1722.83 2727.87 1740.24 2759.59 1781 2752.39C1790.71 2750.67 1804.78 2746.15 1810.01 2736.96C1814.74 2728.65 1812.03 2714.05 1811.17 2705C1808.3 2674.97 1797.5 2632.34 1758 2639.46z"/>
<path style="fill:#ff0101; stroke:none;" d="M3077 2762L3186 2833L3233 2863C3236.55 2857.73 3247.84 2845.64 3246.98 2839.09C3246.3 2833.96 3234.99 2828.92 3231 2826.42C3214.22 2815.92 3198.29 2803.63 3181 2794L3181 2793C3194.15 2780.95 3197.35 2761.43 3216 2755.1C3235.36 2748.54 3259.85 2752 3280 2752C3286.61 2752 3297.59 2754.11 3303.67 2751.4C3310.89 2748.17 3320.67 2728.35 3323 2721C3290 2721 3251.3 2715.94 3220 2728C3223.47 2715.79 3226.5 2701.58 3222.79 2689C3214.55 2661.08 3180.9 2645.13 3154 2656.46C3126.51 2668.05 3110.56 2707.39 3095 2731C3089.06 2740.01 3079.06 2751.35 3077 2762M674 2696L661 2670C644.982 2673.09 626.851 2688.99 613 2697.58C588.136 2712.98 563.081 2728.15 538 2743.2C527.574 2749.46 511.604 2755.7 503.362 2764.61C499.568 2768.71 511.171 2788.99 516.21 2790.17C519.945 2791.04 525.015 2786.59 528 2784.8C538.054 2778.77 548.033 2772.6 558 2766.42C595.723 2743.05 633.915 2714.96 674 2696z"/>
<path style="fill:#ffffff; stroke:none;" d="M3114 2750C3127.28 2758.96 3144.4 2775.33 3160 2779C3172.03 2757.39 3199.06 2732.3 3196.91 2706C3195.44 2688.07 3174.25 2677.28 3159 2686.48C3144.83 2695.03 3136.55 2713.44 3127.95 2727C3123.24 2734.41 3117.12 2741.77 3114 2750M3219 2728L3220 2729L3219 2728z"/>
<path style="fill:#ff0101; stroke:none;" d="M2980 2884L3000 2900L3001 2900C3009.82 2889.06 3018.43 2877.97 3027.2 2867C3029.68 2863.9 3033.74 2856.32 3038.04 2855.77C3041.02 2855.39 3043.92 2858.7 3046 2860.39L3066 2876.61C3089.71 2895.89 3113.29 2915.33 3137 2934.61C3142.08 2938.74 3155.15 2953.67 3161.91 2952.96C3167.23 2952.41 3181.27 2934.11 3177.62 2929.43C3167.53 2916.47 3149.65 2906.11 3137 2895.59C3110.82 2873.8 3085.1 2849.21 3057 2830C3065.28 2819.73 3073.36 2809.3 3081.6 2799C3084.79 2795.02 3090.53 2790.01 3091.91 2785C3093.27 2780.08 3077.94 2766.02 3073.17 2767.35C3070.11 2768.2 3067.66 2772.68 3065.8 2775L3049.8 2795L3001.6 2855C2994.62 2863.73 2983.6 2873.33 2980 2884M749.961 2808.26C746.235 2808.96 742.768 2813.24 740 2815.58C732.68 2821.76 725.357 2827.94 718 2834.08C698.854 2850.06 679.064 2865.7 661.015 2882.91C648.259 2895.07 635.893 2908.86 633.3 2927C626.95 2971.45 671.234 3024.8 718 3016.54C753.272 3010.3 784.025 2974.41 810 2952C820.242 2943.17 834.459 2934.6 842.638 2923.83C846.566 2918.66 832.838 2900.43 826.985 2900.17C823.6 2900.02 820.327 2903.87 818 2905.87C811.714 2911.26 805.28 2916.47 799 2921.87C777.46 2940.38 756.063 2960.27 733 2976.84C721.572 2985.06 707.862 2991.76 694 2985.48C687.315 2982.45 682.061 2977.18 677.015 2972C666.463 2961.17 657.038 2944.48 662.549 2929C667.073 2916.29 679.104 2906.74 689 2898.27C706.557 2883.24 724.348 2868.49 742 2853.58C750.086 2846.74 761.18 2839.98 767.623 2831.57C771.118 2827.02 755.325 2807.24 749.961 2808.26M3067 2972L3041 2986C3043.8 3000.5 3055.16 3010.7 3053.21 3027C3051.94 3037.59 3046.88 3047.11 3039.83 3055C3000.14 3099.4 2934.38 3053.67 2922.9 3006C2916.81 2980.73 2935.49 2949.42 2961 2942.76C2975.56 2938.96 2985.43 2946.58 2999 2949L3013 2923C2999.63 2917.51 2985.79 2912.08 2971 2913.09C2927.16 2916.08 2891.11 2960.47 2894.09 3004C2895.76 3028.36 2908.74 3052.06 2926.04 3068.91C2948.27 3090.56 2979.42 3105.82 3011 3101.71C3043.64 3097.46 3077.3 3063.89 3080.83 3031C3083.15 3009.33 3076.93 2990.88 3067 2972M734 3071L734 3072C737.985 3075.98 748.912 3089.84 754.911 3089.08C757.793 3088.71 760.199 3084.96 762 3083C767.738 3076.75 773.228 3070.28 778.925 3064C801.4 3039.22 822.377 3012.69 846 2989C839.465 3023.68 835.763 3059.07 830.729 3094C828.219 3111.42 822.338 3131.43 823.098 3149C823.46 3157.36 837.469 3168.89 845 3171C853.809 3158.48 865.631 3147.43 875.834 3136C895.718 3113.73 915.599 3091.44 935.285 3069C943.225 3059.95 951.329 3051.04 959.286 3042C961.577 3039.4 966.604 3035.8 966.654 3032C966.721 3027.02 950.032 3011.77 945.424 3014.66C934.984 3021.21 926.036 3035.82 917.834 3045C897.329 3067.96 877.538 3092.01 856 3114C864.369 3069.08 869.212 3023.23 875.729 2978C878.141 2961.26 881.77 2951.83 868 2939.71C865.71 2937.7 863.08 2934.11 860 2933.35C856.095 2932.37 852.595 2937.51 850.424 2940C843.101 2948.42 835.597 2956.68 828.166 2965C796.691 3000.25 765.09 3035.41 734 3071M2865 3244C2875.12 3239.71 2883.8 3229.37 2892 3222.16C2909.96 3206.34 2928.04 3190.66 2946 3174.84C2951.62 3169.89 2970.16 3158.59 2971.08 3150.99C2971.81 3144.98 2959.47 3135.55 2956 3131C2947.95 3134.41 2941.56 3141.92 2935 3147.58C2920.9 3159.74 2907.08 3172.24 2893 3184.42C2887.51 3189.18 2879.26 3200.18 2872.04 3201.83C2868.14 3202.72 2864.67 3196.48 2862.58 3194C2855.79 3185.97 2848.98 3177.97 2842.13 3170C2840.03 3167.55 2835.45 3163.68 2836.92 3160.04C2838.95 3154.99 2846.99 3150.37 2851 3146.84C2865.28 3134.27 2879.64 3121.77 2894 3109.28C2897.73 3106.04 2907.45 3100.3 2907.96 3095C2908.42 3090.3 2898.48 3080 2894.83 3077.43C2889.09 3073.38 2879.04 3086.09 2875 3089.58C2861.25 3101.43 2847.8 3113.62 2834 3125.42C2829.99 3128.85 2823.35 3137.3 2818 3138.08C2813.82 3138.69 2810.3 3132.65 2807.95 3130C2799.89 3120.92 2790.94 3111.96 2784 3102C2796.15 3095.7 2806.68 3083.26 2817 3074.28C2824.69 3067.6 2832.35 3060.89 2840 3054.16C2844.83 3049.9 2863.85 3037.95 2862.94 3031C2862.46 3027.32 2858.02 3023.68 2855.73 3021C2853.53 3018.43 2849.96 3012.45 2845.99 3012.92C2839.01 3013.75 2829.15 3026.38 2824 3030.95C2805.38 3047.48 2786.82 3064.12 2768 3080.42C2763.06 3084.7 2746.47 3095.18 2746.17 3102C2745.99 3106 2751.22 3110.23 2753.58 3113C2760.97 3121.67 2768.44 3130.26 2775.75 3139C2805.13 3174.11 2837.32 3207.54 2865 3244M879 3201L879 3202L901 3221C911.734 3212.79 920.103 3199.38 928.753 3189C947.04 3167.06 965.14 3144.96 983.414 3123L1008.25 3093C1011.73 3088.82 1017.27 3084.09 1019.34 3079C1021.54 3073.58 1005.3 3059.14 1000 3059.2C995.98 3059.25 992.515 3065.28 990.247 3068L968.586 3094C939.03 3129.51 910.94 3167.63 879 3201M1027 3081C1021.88 3096.1 1019.79 3112.49 1016.12 3128C1007.21 3165.57 999.171 3203.35 990.651 3241C988.702 3249.61 980.208 3269.41 983.618 3277.67C985.377 3281.94 992.344 3284.9 996 3287.33C998.653 3289.1 1001.75 3291.87 1005 3292.35C1009.5 3293 1014.59 3287.99 1018 3285.58C1028.3 3278.29 1038.72 3271.18 1049 3263.86C1088.73 3235.57 1128.68 3207.43 1169 3180C1166.25 3174.59 1150.46 3161.2 1144 3163.07C1138.98 3164.52 1134.17 3169.56 1130 3172.58C1121.03 3179.05 1111.99 3185.42 1103 3191.86C1072.57 3213.66 1041.33 3234.72 1012 3258C1024.04 3220.33 1031.83 3181.23 1041.88 3143C1044.6 3132.68 1047.28 3122.36 1049.87 3112C1050.77 3108.4 1053.31 3102.87 1052.22 3099.17C1050.23 3092.38 1033.3 3083.39 1027 3081M2639 3164C2665.35 3220.36 2710.41 3267.77 2737 3324L2771 3303.68L2838 3262C2836.39 3256.91 2829.39 3241.14 2823.79 3239.83C2818.17 3238.51 2807.57 3248.08 2803 3250.95C2785.04 3262.22 2767.16 3275.94 2748 3285C2731.71 3250.16 2706.49 3217.95 2686.6 3185C2681.54 3176.62 2676.3 3168.35 2671.19 3160C2669.48 3157.21 2667.15 3151.5 2663.79 3150.42C2657.83 3148.5 2643.85 3160.73 2639 3164M2501 3238C2503.53 3252.18 2514.32 3267.14 2520.75 3280C2535.29 3309.07 2550.22 3337.93 2564.75 3367L2579.25 3396C2580.65 3398.81 2582.48 3405.1 2586.21 3405.46C2589.5 3405.78 2593.23 3402.69 2596 3401.26C2604.35 3396.95 2612.73 3392.78 2621 3388.31C2650.32 3372.45 2681.56 3359.4 2710 3342L2698 3318C2664.53 3331.94 2630.23 3350.58 2599 3369L2574 3318L2662 3273L2651 3249L2628 3259.75L2561 3294L2539 3249L2634 3201L2623 3176L2591 3191.75L2501 3238M1177 3177L1109.42 3299L1093 3329L1087.74 3341.61L1095 3347L1117 3359.31L1177 3392.85L1210 3410C1212.23 3404.68 1222.03 3393.12 1220.26 3387.39C1218.5 3381.68 1202.08 3375.69 1197 3372.86C1173.44 3359.71 1149.87 3343.41 1125 3333C1130.47 3320.3 1138.17 3308.03 1145 3296C1146.78 3292.86 1149.03 3285.53 1153.1 3284.84C1158.5 3283.94 1168.42 3292.11 1173 3294.72C1188.95 3303.79 1204.92 3312.86 1221 3321.69C1225.17 3323.98 1233.92 3331.29 1238.81 3330.17C1244.68 3328.83 1250.49 3313.24 1252 3308L1198 3277.72L1165 3260L1189 3215L1251 3250L1284 3267L1295 3243L1177 3177M1305 3250L1261.31 3372L1242 3427C1247.52 3428.31 1264.56 3438.53 1269.18 3434.36C1272.72 3431.16 1273.94 3423.36 1275.58 3419C1280.54 3405.73 1285.34 3392.38 1290 3379C1291.76 3373.93 1293.86 3360.5 1301.02 3362.29C1316.28 3366.12 1334.36 3372.88 1342.54 3387C1352.81 3404.75 1354.58 3429.26 1359.12 3449C1360.53 3455.12 1360.59 3466.51 1364.86 3471.3C1370.51 3477.66 1389.74 3482.76 1398 3484C1391.67 3451.36 1387.9 3411.04 1369 3383C1381.33 3385.29 1395.97 3384.42 1407 3377.91C1432.05 3363.1 1439.83 3325.77 1422.96 3302C1414.2 3289.67 1397.7 3283.38 1384 3278.32C1358.3 3268.81 1331.69 3256.17 1305 3250z"/>
<path style="fill:#ffffff; stroke:none;" d="M1324 3284L1306 3336C1322.14 3341.46 1337.83 3348.28 1354 3353.67C1362.92 3356.64 1373.6 3359.88 1383 3357.21C1402.05 3351.8 1408.09 3327.46 1394.53 3313.44C1383.73 3302.26 1365.21 3298.38 1351 3293.31C1342.18 3290.16 1333.25 3285.59 1324 3284z"/>
<path style="fill:#ff0101; stroke:none;" d="M2267 3324L2285.28 3386L2321 3504L2349 3496C2347.32 3476.77 2337.48 3456.55 2332.14 3438C2330.81 3433.38 2324.95 3421.9 2327.21 3417.42C2329.14 3413.59 2338.25 3412.58 2342 3411.33C2357.24 3406.28 2372.75 3402.03 2388 3397C2392.1 3395.65 2403.7 3394.39 2405.22 3389.72C2407.2 3383.69 2400.89 3370.91 2399 3365L2317 3390L2303 3341L2397 3312L2389 3287L2347 3299.28L2267 3324M1556 3393L1584 3398C1587.14 3381.16 1586.22 3363.14 1575.32 3349C1550.21 3316.42 1480.22 3303.29 1457.31 3345C1433.89 3387.65 1478.32 3414.9 1511 3431.25C1525.11 3438.3 1547.04 3449.81 1542.47 3469C1539.83 3480.09 1528.39 3486.25 1518 3488.08C1497.43 3491.69 1472.3 3480.93 1460.44 3464C1456.51 3458.39 1454.54 3451.82 1454.09 3445C1453.89 3441.97 1455.79 3436.27 1453.93 3433.74C1451.44 3430.34 1430.95 3427.36 1428.14 3430.6C1425.14 3434.06 1426 3440.79 1426 3445C1426 3460.42 1430.4 3475.46 1441.09 3487C1465.37 3513.2 1517.76 3527.44 1549 3505.21C1573.05 3488.1 1580.19 3453.43 1560.67 3430C1548.61 3415.51 1529.59 3406.54 1513 3398.25C1500.82 3392.16 1477.43 3381.99 1480.33 3365C1483.58 3345.95 1504.79 3343.71 1520 3347.24C1544.19 3352.85 1559.22 3367.56 1556 3393M2170 3343.43C2152.63 3345.79 2134.83 3351.23 2121 3362.47C2077.32 3397.96 2080.93 3475.86 2120.04 3513.91C2139.81 3533.14 2167.18 3540.24 2194 3536.71C2205.02 3535.26 2216.4 3531.59 2226 3525.99C2241.07 3517.19 2254.36 3505.12 2261.69 3489C2289.93 3426.85 2245.5 3333.15 2170 3343.43M1633 3346C1627.22 3390.75 1616.05 3435.74 1607.2 3480C1604.87 3491.66 1602.73 3503.34 1600.4 3515C1599.61 3518.96 1596.86 3525.8 1598.62 3529.69C1601 3534.95 1620.7 3535.77 1626 3536C1634.66 3491.34 1643.08 3446.61 1652 3402C1654.33 3390.34 1656.47 3378.66 1658.8 3367C1659.53 3363.35 1662.06 3357.01 1660.38 3353.43C1657.84 3348.03 1638.52 3347.07 1633 3346M1674 3357L1671 3383L1731 3390L1723.83 3457L1714 3551L1743 3553L1760 3393C1774.66 3393.63 1789.4 3396.27 1804 3397.83C1809.25 3398.4 1816.5 3400.86 1820 3396L1859.72 3453L1879.49 3483L1880 3511L1881 3561C1886.41 3561 1906.66 3563.96 1909.4 3558.57C1911.61 3554.2 1910 3545.82 1910 3541C1909.99 3526.71 1909.01 3512.36 1909 3498C1909 3493.06 1907.13 3486.67 1908.85 3482C1912.19 3472.89 1920.29 3464.06 1925.67 3456C1937.85 3437.72 1949.82 3419.28 1962 3401C1968.32 3391.52 1976.96 3381.67 1981 3371C1972.33 3371 1954.75 3367.62 1947.21 3372.03C1940.81 3375.76 1936.21 3387.83 1932.32 3394C1920.45 3412.83 1902.74 3433.7 1896 3455L1894 3455C1887.41 3434.18 1869.04 3414.06 1857 3396C1852.8 3389.7 1847.93 3378.12 1841.48 3374.03C1837.61 3371.57 1830.41 3373.09 1826 3372.99C1816.05 3372.74 1805.9 3370.89 1796 3369.83C1755.96 3365.55 1714.25 3357.03 1674 3357z"/>
<path style="fill:#ffffff; stroke:none;" d="M2171 3369.44C2151.32 3372.51 2133.52 3382.72 2124.38 3401C2101.78 3446.18 2137.17 3519.96 2192 3510.71C2242.47 3502.2 2248.51 3446.29 2231.14 3407C2220.87 3383.77 2197.48 3365.3 2171 3369.44z"/>
</svg>
