<?xml version="1.0" encoding="UTF-8" standalone="no"?>
<!-- Created with Inkscape (http://www.inkscape.org/) -->

<svg
   version="1.1"
   id="svg1"
   width="195"
   height="195"
   viewBox="0 0 195 195"
   xml:space="preserve"
   xmlns="http://www.w3.org/2000/svg"
   xmlns:svg="http://www.w3.org/2000/svg"><defs
     id="defs1"><clipPath
       clipPathUnits="userSpaceOnUse"
       id="clipPath80"><g
         id="use80"><g
           id="g119"
           style="display:inline;opacity:1"
           transform="translate(-22.540165,-15.632695)"><path
             id="path80"
             style="display:inline;opacity:1;fill:#ffffff;fill-opacity:1;stroke:#fa0001;stroke-width:2;stroke-dasharray:none;stroke-opacity:1"
             d="m 119.66211,16.443359 a 96.539902,96.539902 0 0 0 -96.541016,96.541021 96.539902,96.539902 0 0 0 96.541016,96.53906 96.539902,96.539902 0 0 0 96.53906,-96.53906 96.539902,96.539902 0 0 0 -96.53906,-96.541021 z m -1.02539,38.087891 a 59.735001,59.735378 0 0 1 59.73633,59.73633 59.735001,59.735378 0 0 1 -59.73633,59.73437 59.735001,59.735378 0 0 1 -59.734376,-59.73437 59.735001,59.735378 0 0 1 59.734376,-59.73633 z" /><path
             id="path81"
             style="opacity:1;fill:#fa0001;fill-opacity:1;stroke:#fa0001;stroke-width:0;stroke-dasharray:none;stroke-opacity:1"
             d="m 121.59375,72.814453 -13.81836,0.0332 -0.12695,0.353516 -5.88086,-0.0332 -0.48242,-0.289063 -12.210941,0.0332 -1.251953,0.416016 -0.707032,0.193359 v 0.707032 l 0.0625,2.859375 0.0332,3.824218 0.03125,1.542969 -0.06144,0.59077 0.07669,0.73983 0.0824,1.079556 0.224609,7.550782 0.0957,18.187507 -0.289062,29.01757 h 4.5625 l 2.443359,0.44922 25.80274,0.0645 0.28906,-0.28907 13.88281,-0.0957 4.65821,0.28906 5.39843,0.22461 1.125,-0.25781 0.93164,-0.80274 0.32227,-5.23828 -0.22461,-1.3164 -0.58008,-0.25782 v -3.4375 -20.4375 l 0.16211,-11.439451 0.28906,-1.09375 0.19141,-3.212891 -0.0957,-5.816406 -0.9961,-1.541016 0.0645,-1.929687 0.61132,-0.962891 -0.0976,-8.611328 -0.73828,-0.580078 -1.0293,-0.480469 h -7.42187 z m 0.51367,2.623047 19.31446,0.08984 1.95312,1.636718 0.0469,26.220712 -0.41016,30.17382 0.13672,2.0918 -1.45508,1.68164 -1.81718,-0.40979 -1.45377,0.22667 -1.27202,-0.18019 -40.990234,0.27148 -1.544922,-0.0449 -1.228515,-0.45508 -2.589844,-0.27148 -0.318359,-6.9082 0.364829,-1.27177 0.180093,-1.81808 -0.363282,-18.40429 -0.408203,-29.130867 -0.04492,-1.5 0.314453,-0.892578 1.285157,-0.964844 10.861327,0.06445 12.24219,-0.128906 h 0.25781 l 0.0957,1.542969 -0.0957,0.802734 -1.47852,1.607422 -0.83593,1.027344 -0.0645,0.322265 -17.929683,0.449219 -0.771484,0.996094 -0.353516,1.638672 0.06445,2.121093 2.988281,7.519532 1.316407,0.289062 1.478515,-0.546875 0.61133,-0.833984 -0.451173,-1.414063 -2.119141,-5.880859 0.513672,-0.578125 1.894532,-0.675781 4.88477,-0.160157 0.28906,0.0332 0.22461,0.705078 -0.0625,0.835937 -2.86133,1.607422 -0.41797,0.609375 0.25781,0.771484 1.41407,0.0332 1.06054,0.96289 0.0957,1.09375 -2.1211,1.605469 0.0977,0.835937 1.54101,0.0957 2.37891,2.410156 0.32031,0.162109 2.50781,-2.25 1.02735,-0.900391 -0.16016,-0.480468 -1.86328,-0.869141 -0.0645,-1.445312 2.02344,-1.189453 0.0977,-0.962891 -2.98828,-2.28125 -0.38672,-0.580078 0.28906,-0.996094 4.66016,-0.160156 1.31641,1.542969 1.18945,3.277343 0.25781,5.816407 1.125,1.478515 1.47656,-0.0332 0.64258,-0.898438 -0.0312,-1.607421 -0.0312,-4.177735 0.57813,-1.414062 0.60937,-1.027344 0.48242,-1.09375 0.96485,-0.738281 0.35351,-0.513672 1.54102,-0.09766 2.25,0.06445 0.28906,-0.03125 v 1.15625 l -0.90039,0.675781 -1.34961,0.513672 -0.83398,0.609375 c 0,0 -0.0641,0.835937 0.0645,0.835937 0.12853,0 1.86328,0.417969 1.86328,0.417969 l 0.83594,0.449219 0.0957,0.740234 -0.48242,0.771485 -0.67383,0.707031 -1.54297,0.224609 -0.22461,0.673828 v 0.804688 l 0.83008,0.283203 1.0918,0.544922 1.95312,2.226562 1.0918,0.226563 0.27149,-0.681641 0.5,-1.044922 0.81836,-0.726562 1.31835,-0.591797 0.90821,-0.316406 -0.13672,-1.136719 -2.68164,-1.589844 0.36523,-1.544922 1.27149,-0.318359 h 0.72656 l -0.0449,-1.5 -0.27344,-0.318359 -0.99805,-0.181641 -0.77343,-0.636719 -0.31836,-0.5 0.13672,-0.68164 7.45312,-0.181641 0.27149,1.091797 -1.99805,8.724609 1.9082,0.544922 1.45313,-0.226562 0.36523,-3 0.0898,-0.955078 0.72657,-1.726563 1.04687,-1.771484 0.0899,-4.271485 -2.72657,-1.410156 -15.08789,-0.04492 -3.45312,-3.863281 -1.27149,-0.726563 0.0899,-0.636718 z m -15.9043,22.357422 -3.22656,0.04492 -0.5,0.273437 0.36328,10.679691 v 3.58984 l -0.22851,3.13477 v 1.13672 l -0.77149,1.77148 -0.95507,2.13672 -0.5,1.45508 -0.63477,1.4082 -1.091797,1.77149 -2.134765,4.04492 -0.181641,0.95508 -0.181641,2.18164 0.363282,0.63476 15.541012,0.0918 0.5918,-0.36328 0.0449,-2.13672 -0.5,-0.81836 -8.17969,0.0469 -0.91015,-0.5 -2.22656,-0.22851 -0.0449,-0.9082 4.81641,-10.45313 2.5,-1.04492 4.31641,-0.13477 0.0918,-2.5 -1.22656,-0.77343 -4.72656,-0.36329 -0.13672,-1.54492 0.27344,-4.22656 0.18164,-1 0.72656,-0.68164 4.36328,-0.27149 1.04492,-0.45507 v -1.13672 l -0.59179,-0.90821 -4.22461,-0.0449 -0.95508,-0.45508 -0.77344,-0.95507 0.13672,-2.998052 z m 9.67969,0.273437 -0.27343,0.408203 0.13671,5.089848 -0.63671,0.31836 0.0898,9.08789 0.36523,0.27343 v 4.04493 l -0.5,0.4082 0.18164,14.26953 0.81836,1.27344 8.63282,0.0449 0.5,-0.41016 -0.0449,-2.27148 -0.5,-0.45508 -5.63476,-0.18164 -0.22656,-0.58984 v -23.13086 l 0.22656,-0.41016 0.0449,-7.316406 -0.5,-0.453125 z m 14.67774,0.31836 -2.90821,0.04492 -0.0918,3.408201 -1.5,0.58985 -4.67969,0.18164 -0.41406,0.63476 -0.0312,0.67383 0.0801,0.85156 0.3379,0.53125 0.94726,0.0312 4.90039,-0.0644 0.12891,0.72266 v 6.13867 l 0.0156,0.72266 -5.38281,0.19336 -0.27344,0.24023 -0.11133,2.61914 0.30469,0.25781 5.52735,-0.0977 0.8789,1.06445 0.45313,0.16016 0.11328,1.4082 0.25,1.1582 0.27344,1.86328 0.6582,2.3418 2.95508,4.72461 0.0449,0.95508 -5.27149,0.72656 -0.36328,0.45508 v 1.43164 l 0.13672,0.72656 0.81641,0.20508 8.58984,-0.0918 1.02149,-1.38476 -0.0684,-1.45508 -1.99805,-3.1582 -0.72851,-2.47657 -1.13477,-2.27148 -1.5,-3.20508 -0.95508,-3.17969 -1.08984,-3.36328 0.0684,-11.40625 z" /><path
             style="opacity:1;fill:#fa0001;fill-opacity:1;stroke:#fa0001;stroke-width:0;stroke-dasharray:none;stroke-opacity:1"
             d="m 88.047518,147.45403 2.681189,-0.10225 0.81799,-0.13633 1.499648,-0.90888 0.477161,-0.15905 1.181541,-0.10225 0.488521,0.31811 -0.07953,6.58936 0.02272,0.94296 0.306747,0.38627 0.693019,0.60214 1.897282,0.19313 0.306746,0.35219 -0.363551,0.30675 -9.406883,0.14769 -0.488522,-0.40899 0.624853,-0.43172 1.681424,-0.10225 0.715741,-0.42036 0.170415,-0.43171 -0.02272,-5.31694 -0.408995,-0.3181 -2.817521,-0.0341 z"
             id="path82" /><path
             id="path83"
             style="opacity:1;fill:#fa0001;fill-opacity:1;stroke:#fa0001;stroke-width:0;stroke-dasharray:none;stroke-opacity:1"
             d="m 108.89453,146.0332 -2,0.0469 -0.82812,0.10156 -1.10157,0.29492 -0.91015,0.375 -0.64649,0.41992 -0.60351,0.42188 -0.61328,0.5332 -0.78321,1.21485 -0.16992,1.04687 0.30664,1.27149 0.58985,0.79492 0.77343,0.70508 1.55664,0.6582 1.44141,0.27344 1.36328,0.0801 1.55664,-0.28515 0.98828,-0.38672 0.31836,0.0352 0.39844,0.48828 -0.22852,0.64843 -0.71484,1.03321 -1.05664,0.97656 -0.75,0.41992 -0.64648,0.375 -1.56836,0.41992 -1.3418,0.25 -0.33984,0.4668 0.38671,0.35156 0.68164,-0.0332 1.69141,-0.39844 2.3418,-0.58984 1.23828,-0.51172 1.38477,-0.64844 0.34179,-0.25976 0.76172,-0.56836 0.83984,-0.76172 0.39844,-0.52149 0.47656,-0.76171 0.33008,-0.7168 0.20313,-0.69141 0.0918,-1.20508 -0.0117,-0.97656 -0.35157,-1.16015 -0.45507,-0.85157 -0.78321,-0.72656 -0.64844,-0.51172 -0.98828,-0.47656 -0.77148,-0.28516 -1.03516,-0.22656 z m -0.98242,0.58399 0.58008,0.0176 0.30469,0.0234 0.36132,0.20118 0.29688,0.30468 0.37695,0.34571 0.35352,0.41015 0.30664,0.62696 0.20898,0.59374 0.13672,0.78711 v 1.52539 l -0.16992,0.86915 -0.28291,0.49749 -0.2683,0.17737 -0.25079,0.0872 -0.16992,0.0719 -0.21757,0.0253 -1.80664,0.0391 -0.3379,-0.0312 -0.93164,-0.77148 -0.42578,-0.63477 -0.27344,-1.29297 v -1.10156 l 0.23438,-0.96289 0.36914,-0.74805 0.47266,-0.43359 0.26562,-0.2168 0.44141,-0.29687 z" /><path
             style="opacity:1;fill:#fa0001;fill-opacity:1;stroke:#fa0001;stroke-width:0.1;stroke-dasharray:none;stroke-opacity:1"
             d="m 121.19883,146.30657 9.81588,-0.0114 0.15905,0.61349 -0.0909,1.69279 -0.32947,0.13633 -8.56617,-0.0454 -0.35219,0.0682 -0.28402,0.32947 -0.29539,1.89728 0.47716,0.31811 1.68143,-0.48852 3.5219,0.12497 1.80639,0.38627 1.77231,0.88616 0.72711,0.74982 0.35219,0.94296 0.0682,1.1929 -0.17041,0.56805 -0.42036,0.76119 -0.97704,0.94296 -0.74983,0.44308 -0.89751,0.44307 -1.17018,0.34083 -1.47693,0.34083 -1.74959,0.0909 -1.92,-0.15905 -0.62486,-0.29539 -1.6587,-0.47716 -0.2613,-0.31811 -0.44308,-0.21586 -0.63621,-0.7839 -0.0341,-0.69302 0.22722,-0.0909 0.49988,-0.62485 0.80663,-0.2045 0.69302,-0.0795 0.61349,0.0682 0.68166,0.24994 0.3181,0.37491 0.31811,0.43172 -0.0568,0.59077 -0.28403,0.27266 -0.10225,0.4658 0.26131,0.56805 0.2613,0.19314 1.14746,0.10225 1.59053,-0.4658 0.6703,-0.48853 0.63621,-0.60213 0.37492,-0.7271 0.22721,-0.9316 0.0795,-0.99976 -0.35219,-0.80663 -0.64757,-0.73847 -0.82935,-0.61349 -1.14746,-0.28402 -1.28379,0.0114 -0.64758,0.15905 -0.57941,0.32947 -0.84071,0.35219 -0.48852,0.23858 -0.73846,-0.2045 -0.12497,-0.36355 0.0227,-0.2045 0.35219,-0.48852 0.0682,-1.37467 0.18178,-1.1361 0.19314,-0.90888 0.11361,-0.9884 0.21585,-0.6135 z"
             id="path84" /><path
             style="opacity:1;fill:#fa0001;fill-opacity:1;stroke:#fa0001;stroke-width:0;stroke-dasharray:none;stroke-opacity:1"
             d="m 135.67311,147.40876 2.68119,-0.10225 0.81799,-0.13633 1.49965,-0.90888 0.47716,-0.15905 1.18154,-0.10225 0.48852,0.31811 -0.0795,6.58936 0.0227,0.94296 0.30675,0.38627 0.69302,0.60214 1.89728,0.19313 0.30675,0.35219 -0.36355,0.30675 -9.40689,0.14769 -0.48852,-0.40899 0.62486,-0.43172 1.68142,-0.10225 0.71574,-0.42036 0.17042,-0.43171 -0.0227,-5.31694 -0.409,-0.3181 -2.81755,-0.0341 z"
             id="path85" /><path
             style="display:inline;opacity:1;fill:#fa0001;fill-opacity:1;stroke:#fa0001;stroke-width:0.1;stroke-dasharray:none;stroke-opacity:1"
             d="m 50.385604,59.672236 1.863753,1.446016 2.120823,1.57455 3.084833,2.120822 2.281491,1.381748 0.417737,1.124679 -0.160668,2.18509 -1.542417,4.37018 -0.996143,3.052699 -0.160669,1.542417 0.867609,0.931876 0.385604,0.289203 1.767353,-0.996144 -0.0964,-0.835475 0.835475,-2.506427 1.188946,-3.213368 1.478149,-3.020565 1.670951,-3.020566 2.056556,-2.570694 0.835475,-1.028277 1.317481,-0.835476 2.024422,-3.052699 -2.120823,-1.767352 -1.285347,1.156812 -1.767352,1.670951 -1.349615,1.895887 -1.221079,1.767352 -0.835476,0.578406 -2.634961,-1.92802 v -0.514139 l 1.799486,-1.317481 0.482005,-1.606684 -0.771209,-1.510282 -1.253213,-0.546273 -1.285347,-0.160668 -0.739074,0.128535 -0.706941,0.674807 -0.835476,0.674807 -0.642673,0.803342 -0.546273,0.0964 -2.18509,-1.478149 -1.478149,0.03213 -1.317481,0.417738 -0.706941,0.706941 -0.128534,0.739075 z"
             id="path86" /><path
             id="path87"
             style="display:inline;opacity:1;fill:#fa0001;fill-opacity:1;stroke:#fa0001;stroke-width:0.1;stroke-dasharray:none;stroke-opacity:1"
             d="m 85.537109,33.003906 -0.716797,0.351563 -0.875,0.125 -1.304687,0.01172 -1.955078,0.158203 -1.226563,0.443359 -1.068359,0.353516 -0.601563,0.375 -0.294921,0.283203 -0.296875,0.568359 -0.214844,0.511719 0.169922,1.441406 0.169922,0.285156 0.238281,0.759766 0.06836,0.75 0.898438,1.773437 0.726562,1.521485 0.31836,0.761719 -0.169922,1.158203 -0.330078,1.216797 -0.386719,2.033203 -0.214844,1.033203 L 78.414062,50 l -0.125,1.011719 -0.363281,0.453125 -0.125,-0.146485 -0.523437,-0.546875 -0.886719,-1.339843 -0.669922,-1.19336 -0.693359,-1.578125 -0.509766,-1.640625 -0.449219,-2.634765 0.128907,-1.509766 0.529296,-0.550781 0.78711,-0.767578 -0.0957,-1.189453 -0.675781,-0.417969 -0.683594,-0.115235 -0.888672,0.263672 -0.232422,0.324219 -0.273438,0.25 -0.169921,0.671875 -0.136719,1.453125 -0.07813,1.955078 0.04492,1.066406 0.158203,0.966797 L 72.800781,46 l 0.431641,1.193359 1.160156,2.396485 1.078125,1.636718 0.658203,1.033204 0.865235,1.169922 0.55664,0.761718 0.714844,0.69336 1.089844,0.93164 0.580078,0.330078 0.625,-0.02344 0.466797,-0.113281 0.259765,-0.238282 0.08008,-0.410156 0.04492,-0.488281 -0.113281,-0.5 -0.261719,-0.521485 -0.453125,-0.603515 -0.375,-0.625 L 79.970703,51.806641 79.708984,51.408203 79.605469,50.976562 79.492188,48.886719 79.595703,48 l 0.316406,-0.601562 0.490235,-0.466797 0.658203,0.341797 0.318359,0.75 -0.410156,0.771484 -0.181641,0.830078 -0.08984,1.271484 0.169922,0.648438 0.601562,0.589844 0.25,0.511718 0.931641,0.488282 0.478515,0.136718 0.509766,-0.136718 0.716797,-0.386719 0.601562,-0.431641 0.488281,-0.488281 0.5,-0.613281 0.363282,-0.351563 0.330078,-0.601562 0.273437,-0.216797 0.419922,-0.839844 0.476563,-0.705078 0.273437,-0.830078 0.31836,-0.384766 0.259765,-0.535156 0.398438,-0.375 0.533203,-0.136719 0.591797,0.02344 0.580078,0.283203 0.408203,0.625 0.08008,0.818359 -0.296875,0.625 -0.509766,0.726563 -0.386718,0.5 -0.5,0.648437 -0.511719,0.681641 -0.419922,0.625 -0.363281,0.455078 -0.31836,0.339844 0.181641,0.511718 0.238281,-0.05664 0.601563,-0.06836 0.671875,-0.443359 0.521484,-0.419922 0.681641,-0.591797 0.705078,-0.646484 0.646484,-0.660156 0.556641,-0.759766 0.308594,-0.818359 0.363281,-0.830078 0.101563,-0.351563 -0.351563,-0.68164 -0.341797,-0.648438 -0.625,-0.521484 -0.634766,-0.625 -0.865234,-0.375 -0.828125,-0.261719 -0.261719,-0.339844 -0.283203,-0.183594 -0.125,-0.441406 -0.171875,-0.511719 -0.203125,-0.30664 -0.285156,-0.294922 -0.158203,-0.523438 -0.228516,-0.318359 -0.351562,-0.261719 -0.158203,-0.339844 -0.523438,-0.148437 h -0.419922 l -0.511719,0.455078 -0.544921,0.351563 -0.386719,0.738281 -0.431641,0.330078 -0.18164,0.533203 -0.238282,0.228516 -0.648437,0.488281 -0.533203,0.271484 -0.294922,0.421875 -0.148438,0.601563 -0.419921,0.261719 -0.431641,-0.296875 -0.386719,-0.726563 -0.214844,-0.589844 0.04492,-0.705078 0.214844,-0.863281 0.568359,-1.169922 0.648438,-1.068359 0.828125,-1.214844 2.113281,-2.648438 0.705078,-0.726562 0.625,-0.794922 0.25,-0.398437 0.01172,-0.464844 -0.296875,-0.591797 -0.464844,-0.06836 z m -3.80664,1.919922 0.93164,0.02344 0.613282,0.134765 0.544921,0.410157 0.115235,0.294921 -0.431641,0.75 -0.728515,1.294922 -0.431641,0.886719 -0.363281,0.453125 -0.294922,0.681641 -0.318359,0.568359 -0.408204,0.341797 -0.636718,-0.02344 -0.455078,-0.636718 -0.181641,-0.613282 -0.408203,-1.476562 0.113281,-1.113281 -0.02344,-0.931641 1.318359,-0.636719 z m 5.175781,7.115234 0.400391,0.521485 0.539062,1.013672 -0.208984,0.609375 -0.578125,0.513672 -0.763672,0.08008 -0.28125,-0.296875 -0.28125,-0.441407 -0.08789,-0.410156 c 0,0 0.160155,-0.545995 0.160157,-0.578125 -10e-7,-0.03213 0.152343,-0.353515 0.152343,-0.353515 l 0.242188,-0.337891 0.361328,-0.0957 z m -0.691406,4.345704 0.376953,0.08008 0.314453,0.193359 -0.113281,0.441406 -0.19336,0.794922 -0.199218,0.345703 -0.417969,0.5625 -0.265625,0.337891 -0.113281,0.03906 -0.658204,-0.07227 -0.33789,-0.480469 -0.216797,-0.587891 0.136719,-0.570312 0.136718,-0.232422 c 0.08837,-0.0241 0.626954,-0.369141 0.626954,-0.36914 l 0.330078,-0.216797 z m -3.865235,3.375 0.619141,0.697265 0.53125,0.619141 0.224609,0.273437 -0.5625,0.546875 -0.802734,-0.136718 -0.353516,-0.394532 -0.154297,-0.634765 -0.03125,-0.289063 0.257813,-0.464844 z" /><path
             id="path88"
             style="display:inline;opacity:1;fill:#fa0001;fill-opacity:1;stroke:none;stroke-width:0.1;stroke-dasharray:none;stroke-opacity:1"
             d="m 108.0332,25 -1.76758,0.433594 -1.3164,0.33789 -0.86914,0.449219 -1.15625,0.53125 -0.38477,0.673828 -0.1289,0.53125 0.25781,0.289063 1.60547,0.771484 -0.12891,0.962891 -2.3125,1.896484 -1.06055,0.867188 -2.570308,1.445312 -2.154297,1.607422 -0.544922,0.802734 0.289063,0.869141 0.771484,0.642578 1.027344,0.0957 1.189453,-0.513672 0.898437,-1.029297 3.535156,-1.927734 1.06055,-0.835937 0.14453,-0.144532 0.75586,0.626953 0.0801,0.386719 -0.54688,0.996094 0.0644,0.962891 0.14454,0.466796 0.35351,0.208985 0.12891,0.642578 -0.0957,0.771484 -3.03711,3.935547 -0.19335,0.947266 0.14453,0.546875 0.32226,0.304687 0.81836,-0.01563 0.53125,-0.193359 c 0,0 0.064,-0.24042 0.22461,-0.304688 0.16067,-0.06427 0.99609,-1.076171 0.9961,-1.076171 l 0.52929,-0.449219 0.33789,0.175781 0.59571,1.398438 0.7539,1.380859 0.88477,1.029297 1.07617,0.289062 2.84375,-0.289062 1.26953,-1.044922 0.30469,-0.738281 -0.82031,-0.322266 -1.39649,0.322266 -0.96484,0.289062 -0.88282,-0.113281 -0.54687,-0.642578 0.28906,-0.513672 1.33399,-0.755859 1.66992,-1.316407 0.62695,-0.595703 0.32227,-1.205078 -0.12891,-1.52539 -0.53125,-0.851563 -1.20312,-0.482422 h -1.14258 l -1.26758,0.322266 -0.35352,-0.980469 0.81836,-1.398438 1.15625,-0.466796 1.57618,-0.609375 0.54492,-0.304688 1.55859,-1.173828 0.80469,-1.125 0.33594,-1.445313 -0.62696,-0.835937 -1.02734,-0.208984 -1.49414,0.177734 -1.70313,0.384766 -1.6875,0.626953 -0.1914,-0.722656 0.97851,-0.740235 0.49805,-0.996094 -0.16016,-1.140625 -0.72265,-0.996093 z m 4.49805,5.447266 0.38672,0.06445 -0.0156,0.449219 -0.0977,0.36914 -1.01172,0.5625 -1.01172,0.658203 -0.5957,0.208985 -1.02735,-0.208985 -0.6914,-0.753906 1.02929,-0.433594 1.14063,-0.386719 1.1875,-0.304687 z m -2.39258,8.097656 0.70703,0.273437 0.14453,0.464844 v 0.675781 l -0.0332,0.416016 -0.44922,0.435547 -0.51367,0.449219 -0.41797,0.113281 -0.48242,-0.353516 v -0.546875 l 0.19336,-0.964844 0.0645,-0.578124 z" /><path
             id="path89"
             style="display:inline;opacity:1;fill:#fa0001;stroke-width:0.1"
             d="m 137.75781,27.828125 -0.93164,0.0957 -0.54687,0.353516 -0.22461,0.0332 -0.67578,0.833984 -0.25586,0.707031 -0.25782,0.740235 -0.16015,0.224609 -2.53906,0.802735 -2.41016,0.611328 -1.67188,0.384765 -1.79882,0.707032 -0.9961,0.417968 -0.19336,0.322266 -0.0312,0.513672 0.61133,0.417969 3.66211,0.578125 1.31836,-0.06445 0.32031,0.257813 -0.0312,0.609375 -2.50781,2.988281 -2.57031,2.634766 -1.60547,1.382812 -0.12891,0.771485 0.28907,0.513672 1.50976,0.0957 0.74024,-0.191407 2.63476,-2.957031 0.32031,-0.224609 0.28907,0.384766 -0.16016,3.246093 0.38476,0.707031 0.83594,0.673829 1.09375,0.417968 1.31641,0.06445 1.0293,-0.224609 1.76562,-0.289062 1.70313,-1.896485 2.21875,-3.246094 1.2207,-2.505859 0.83594,-2.794922 0.16015,-1.896484 -0.70703,-1.605469 -1.0293,-0.675781 -0.67382,-0.322266 -0.0312,-0.320312 0.38476,-0.513672 0.22461,-0.611328 -0.86719,-1.060547 -0.57812,-0.482422 z m -1.09375,7.261719 0.90039,0.06445 0.70703,0.513672 -0.0332,1.060547 -0.38476,1.220703 -0.35352,0.964843 -0.96484,1.414063 -0.44922,1.220703 -1.22071,1.027344 -1.18945,0.86914 -1.06055,0.417969 -0.44921,-0.386719 v -0.90039 l -0.19336,-1.091797 0.0977,-0.900391 0.41602,-1.058593 0.54687,-1.09375 0.51368,-0.962891 0.93164,-0.804688 1.09375,-1.027343 0.35351,-0.09766 z" /><path
             id="path90"
             style="display:inline;opacity:1;fill:#fa0001;fill-opacity:1;stroke-width:0.1"
             d="m 163.11133,38.978516 -0.9336,0.160156 -1.38085,0.513672 -0.38477,0.675781 -0.58008,1.605469 -1.05859,1.349609 -1.47852,0.546875 -0.93164,-0.320312 -0.64258,-0.06445 -0.90039,0.25586 -0.67578,0.224609 -0.35351,0.16211 v 0.738281 l 0.19336,0.867187 -0.0313,0.707032 -0.61132,0.675781 -4.91602,1.863281 -0.32226,0.384766 0.28906,0.675781 2.69922,2.345703 2.53906,-0.482422 2.18555,-0.738281 2.25,-0.642578 1.57421,-0.835938 1.28516,-0.0957 1.63867,0.22461 1.28516,-0.482422 0.90039,-0.546875 0.93164,-0.673828 -0.32226,-1.285157 -0.73829,-0.964843 -0.48242,-0.578125 1.125,-1.253907 0.41797,-1.476562 -0.22461,-1.992188 -0.61133,-0.515625 z m -3.05274,15.328125 -0.54687,0.160156 -0.28906,0.353515 0.0312,0.962891 -0.44922,0.835938 -0.41797,0.996093 -1.0918,0.771485 1.57422,1.091797 0.93164,0.546875 1.70313,-0.384766 0.70703,-1.125 0.22461,-1.029297 -0.38477,-1.412109 -0.57812,-1.125 z" /><path
             id="path91"
             style="display:inline;opacity:1;fill:#fa0001;fill-opacity:1;stroke-width:0.1"
             d="m 182.45508,56.490234 -0.57813,0.06445 -1.2539,0.90039 -1.50977,1.125 -2.2168,2.023438 -0.96484,-0.578125 -1.34961,-0.835938 -1.31641,-0.802734 -1.31835,-0.384766 -1.31836,0.802735 0.19336,0.802734 1.06054,1.125 1.99219,1.09375 2.25,1.220703 1.70312,0.996094 1.22071,0.96289 -0.32227,0.386719 -0.83398,-0.289062 -0.83594,-0.482422 -0.67578,-0.611328 -1.34961,-0.707032 -0.67383,-0.255859 -0.70703,0.191406 -0.28906,0.386719 v 0.802734 l 0.35351,0.771485 1.76758,1.734375 -0.74023,0.804687 -1.31641,-0.867187 -1.0293,-0.546875 -0.67382,-0.160157 -0.67578,0.126954 -0.9629,0.675781 -1.1582,1.509765 -0.1914,1.736329 0.28906,1.412109 1.3164,1.287109 0.58008,0.480469 0.9961,0.417969 0.99609,-0.482422 0.48047,-0.802734 0.38672,-0.25586 1.34961,0.898438 0.86718,0.417969 0.48243,-0.160157 0.70703,-0.611328 0.35351,-0.835937 -0.22461,-0.769532 -0.16211,-0.642578 0.0977,-0.740234 0.51367,-0.546875 0.77149,-0.160156 1.02734,0.224609 4.5,3.181641 0.86719,0.513671 1.06054,-0.255859 0.57813,-0.964844 -0.19336,-1.060547 -0.41797,-1.027343 -0.73828,-0.900391 v -0.417969 l 1.0918,-0.707031 1.2539,-0.609375 2.15235,-1.253906 0.48242,0.128906 0.96484,-0.835937 -0.16211,-0.673828 -0.38476,-0.515626 -0.61133,-0.544921 -0.77148,-0.06445 -0.38477,-0.451172 2.18555,-2.248047 V 60.02539 l -0.45118,-0.771485 h -1.06054 l -0.83399,0.386719 -1.09375,0.544922 -0.80273,0.289062 -0.86719,0.09766 -0.96484,0.0957 -0.12891,-0.513672 0.45117,-0.546875 0.19141,-0.513672 0.58008,-0.320312 0.12695,-0.771485 -0.48047,-0.642578 -0.51562,-0.353516 h -0.38477 l -0.67578,0.289063 -0.35352,0.513672 -0.0312,0.707031 -1.06054,0.900391 -1.125,1.123046 -1.38086,0.933594 -0.41797,-0.546875 2.41016,-2.121093 0.41796,-0.964844 0.25586,-0.769532 z m 0.70703,4.595704 0.80273,0.578124 -0.60937,0.482422 -0.51563,-0.578125 z m 4.04883,0.964843 0.32031,0.22461 -0.41602,0.128906 -0.25781,-0.193359 z m -0.86719,1.798828 0.83398,0.03125 0.64454,0.291016 -0.19336,0.480469 -0.54688,0.386718 -0.44922,0.03125 -0.57812,-0.0957 -0.28907,0.03125 -0.1621,-0.289062 0.2246,-0.544922 z m -2.92383,1.34961 0.48047,0.06445 0.35352,0.417969 -0.0645,0.384765 -0.41601,0.160156 -0.67578,-0.416015 0.0645,-0.417969 z m -1.99414,2.763672 0.38672,0.03125 0.54688,0.289062 0.54492,0.515625 0.0644,0.578125 -0.22461,0.320313 -0.48242,-0.320313 -0.44922,-0.322265 -0.57812,-0.480469 0.16015,-0.226563 z m -9.80078,0.642578 0.61133,0.289062 0.70703,0.546875 -0.51367,0.482422 -0.67578,0.25586 -0.38477,-0.06445 -0.41797,-0.642578 0.22461,-0.417968 z" /><path
             id="path92"
             style="display:inline;opacity:1;fill:#fa0001;fill-opacity:1;stroke-width:0.1"
             d="m 197.22656,86.298828 -0.63672,0.408203 -1.58984,1.81836 -1.31836,1.908203 -0.58984,-0.226563 -0.63672,-0.68164 L 192,88.796875 l -0.77148,-0.04492 -1.13672,0.136719 -0.95508,0.589844 -0.63477,0.955078 -0.5,1.089844 0.68164,2.726562 0.95313,3.136719 0.43359,0.138672 0.72266,-0.144532 1.75195,-0.498047 6.54492,-1.677734 0.81836,-0.591797 -0.31836,-0.68164 -0.45507,-0.453125 -1.72657,0.453125 -1.68164,0.591797 -0.77148,-0.181641 -0.27344,-0.544922 -0.0918,-1.091797 -0.0449,-1 0.45508,-0.589844 1.36328,-1.363281 0.58984,-0.863281 0.91016,-0.773438 v -0.908203 l -0.22851,-0.591797 z m -6.08008,4.013672 0.80469,0.240234 0.54492,0.513672 0.30664,0.884766 0.5293,1.589844 0.24219,0.996093 -0.16211,0.417969 -1.0918,0.433594 -1.33398,0.273437 -0.4336,-0.304687 -0.32226,-0.916016 -0.28906,-1.189453 -0.16016,-1.109375 -0.0801,-0.271484 0.22461,-0.580078 0.22461,-0.464844 0.53125,-0.337891 z" /><path
             style="opacity:1;fill:#fa0001;fill-opacity:1;stroke-width:0.1"
             d="m 190.2508,98.272391 -0.3181,0.9316 0.3181,1.181539 0.13634,1.38604 0.43171,2.40853 0.24994,1.43148 0.2045,0.79527 0.77255,0.5226 2.29491,0.59077 2.24948,0.47716 1.84047,0.45444 0.0909,0.36355 -0.29538,0.18178 -6.65753,1.88592 -0.15906,0.49988 v 0.34083 l 0.0227,0.65894 0.27266,0.45443 0.61349,0.15906 6.04404,1.59053 0.29538,0.15906 -0.3181,0.49988 -0.13634,0.22722 -6.52119,1.24971 -0.38628,0.56805 0.0227,0.56804 0.38627,0.52261 1.11337,-0.29539 2.22675,-0.61349 6.49848,-1.70414 0.24994,-0.38628 v -0.88615 l -0.49988,-0.47716 -7.11197,-1.84048 v -0.79527 l 7.36191,-1.84048 0.24994,-0.65893 -0.22722,-0.77255 -0.70438,-0.38627 -7.02108,-1.90864 -0.22722,-0.18178 0.9316,-0.31811 6.47575,-0.97704 0.24995,-0.59077 -1.09066,-6.816583 -0.65893,-0.22722 -0.74983,0.340829 -0.0682,0.340829 0.86343,4.885215 -0.0682,0.38628 -0.61349,0.43171 -1.97681,0.18178 -0.45444,-0.31811 -0.74982,-4.567109 -0.70438,-0.431717 -0.86343,0.499883 0.84071,4.521663 -0.409,0.7271 -1.56781,0.27267 -0.77255,-0.31811 -0.7271,-5.316933 -0.77254,-0.295385 z"
             id="path93" /><path
             id="path94"
             style="display:inline;opacity:1;fill:#fa0001;fill-opacity:1;stroke-width:0.1"
             d="m 194.2168,118.12305 -1.67188,0.93164 -1.0918,0.83593 -0.77148,1.47852 -0.28906,2.02344 0.25586,1.41406 0.67578,1.06055 0.77148,0.90039 1.02735,0.60937 1.06054,0.32227 0.70703,0.22461 0.73829,0.35351 1.83203,-0.19336 1.67187,-0.96289 1.31641,-1.41406 0.67578,-1.70312 -0.0332,-1.76758 -0.64258,-1.76758 -1.63867,-1.63867 -2.24805,-0.57813 z m 0.1914,1.57422 1.09375,0.0332 1.22071,0.0312 1.25195,0.54687 1.06055,0.67383 0.61132,1.34961 0.0645,1.31836 -0.32227,1.31836 -0.89844,0.86719 -1.28515,0.70703 -1.125,0.0312 -1.18946,-0.32031 -0.93164,-0.19336 -0.73828,-0.48243 -0.67578,-0.48242 -0.44922,-1.02734 -0.22461,-1.0293 0.12696,-1.25195 0.41797,-0.80469 0.86718,-0.64258 z" /><path
             id="path95"
             style="display:inline;opacity:1;fill:#fa0001;fill-opacity:1;stroke-width:0.1"
             d="m 191.74219,127.98828 -0.80469,0.16016 -1.12305,0.74023 -0.48242,1.31641 -0.70703,2.41015 -0.67578,2.18555 2.18555,0.64258 5.91211,1.60742 1.60742,0.54492 0.77148,-0.70703 -0.0644,-0.80273 -0.77149,-0.48242 -1.41406,-0.35352 -1.34961,-0.16016 -0.22461,-0.35351 0.35352,-1.99219 0.25781,-1.60742 -0.0644,-1.31641 -0.77149,-0.90039 -0.96484,-0.57812 -0.93164,-0.32032 z m -0.19336,1.67188 h 0.83594 l 0.67382,0.25586 0.86719,0.99609 -0.12695,0.99609 -0.86914,2.57032 -1.34961,-0.12696 -1.60547,-0.57812 v -0.41797 l 0.32031,-1.57617 0.74024,-1.76563 z" /><path
             style="opacity:1;fill:#fa0001;fill-opacity:1;stroke-width:0.1"
             d="m 192.01478,143.20373 0.67481,0.75514 0.44987,0.88367 0.25707,0.46594 -0.16067,1.04435 -0.36954,0.86761 -0.35347,0.56234 -0.96401,0.64267 -0.70694,0.30527 -1.01221,-0.0321 -0.62661,-0.12854 -1.15681,-0.49807 -0.91581,-0.57841 -0.96401,-0.73907 -0.69087,-0.86761 0.0803,-1.70309 0.36954,-0.7712 0.41774,-0.65874 0.51414,-0.48201 0.94794,-0.30527 0.73907,0.0482 0.64268,-0.72301 -0.33741,-0.73907 -0.83547,-0.16067 -0.86761,0.22494 -0.91581,0.44987 c 0,0 -0.73908,0.46594 -0.78728,0.56234 -0.0482,0.0964 -0.6266,0.96401 -0.6266,0.96401 l -0.56234,1.46208 -0.0161,1.10861 -0.0482,0.81941 0.40167,1.12468 0.75514,1.06041 0.73908,0.53021 0.44987,0.40167 0.86761,0.3856 0.77121,0.41774 1.07647,0.12853 1.47815,0.16067 0.93188,-0.1928 1.07648,-0.40167 0.78727,-0.86761 0.61054,-0.99614 0.48201,-0.89975 0.0803,-1.96015 -0.41774,-1.34962 -1.18894,-1.30141 -0.25707,-0.0161 -0.54627,0.43381 -0.19281,0.40167 -0.0643,0.22493 z"
             id="path96" /><path
             style="opacity:1;fill:#fa0001;fill-opacity:1;stroke-width:0.1"
             d="m 181.37853,149.67866 1.97622,1.23715 3.80785,1.94409 2.47429,1.41388 0.44987,0.20887 0.51414,-0.25707 0.25707,-0.65874 -0.20887,-0.46594 -8.53149,-4.61118 -0.41774,0.30527 -0.17673,0.54627 z"
             id="path97" /><path
             id="path98"
             style="display:inline;opacity:1;fill:#fa0001;fill-opacity:1;stroke-width:0.1"
             d="m 181.7793,151.83203 -1.10742,0.14453 -0.70704,0.36914 -0.94726,1.04492 -1.62305,2.45704 -0.72265,1.17382 -0.83594,0.93164 -4.75586,5.67188 0.24023,0.51367 0.54688,0.36914 0.67383,-0.38476 0.5957,-0.72266 0.60937,-0.82031 0.45118,-0.16016 6.47461,5.52735 0.83593,-0.62696 0.16016,-0.38672 -0.51367,-0.72265 -5.70508,-4.90039 -0.0312,-0.65821 1.39844,-1.76757 0.64257,-0.19336 7.14844,4.66015 0.85156,-0.67578 -0.0801,-0.7539 -2.98829,-1.92774 -0.25781,-0.75586 0.82031,-1.23633 1.125,-0.67578 2.23243,-0.19336 2.02539,0.22657 0.59375,-0.3379 0.61133,-0.93164 -0.40235,-0.48242 -4.51367,0.22461 -0.35352,-0.36914 -0.0488,-1.73633 -1.09375,-1.26758 z m -0.33594,1.70313 0.81836,0.27343 0.61133,0.91602 -0.0645,1.0918 -2.02539,2.89257 -0.6582,-0.14453 -1.58984,-1.125 -0.28907,-0.30664 0.0957,-0.46484 0.78711,-1.125 1.04492,-1.39844 0.54687,-0.49805 z" /><path
             style="opacity:1;fill:#fa0001;fill-opacity:1;stroke-width:0.1"
             d="m 172.15617,166.78984 -1.12468,-0.22493 h -0.93188 l -0.94794,0.3856 -0.77121,0.81941 -0.482,0.94795 -0.0803,1.34961 0.40167,1.02828 0.89975,1.12468 1.06041,0.94794 1.36568,0.73907 1.34961,-0.0803 1.02828,-0.40167 0.64267,-0.57841 0.44988,-0.723 0.25707,-0.98008 -0.0321,-0.99615 -0.61054,-0.40167 0.0482,-0.51414 0.44987,-0.49807 c 0,0 0.41774,-0.0482 0.48201,-0.0482 0.0643,0 0.49807,0.1928 0.49807,0.1928 l 0.25707,0.44988 0.25707,0.8194 -0.0482,1.68702 -0.32134,0.88368 -0.65874,0.91581 -0.89974,0.81941 -0.88368,0.5784 -1.38175,0.36954 -1.10861,-0.0321 -1.25321,-0.40167 -1.44602,-0.91581 -1.46208,-1.60669 -0.81941,-1.68702 0.0161,-1.83162 0.48201,-1.14074 0.99614,-1.38175 1.02828,-0.77121 0.85154,-0.46594 0.96401,-0.11246 0.85154,0.0964 1.07648,0.41774 0.41774,0.16066 -0.38561,0.88368 -0.241,0.22494 z"
             id="path99" /><path
             style="opacity:1;fill:#fa0001;fill-opacity:1;stroke-width:0.1"
             d="m 160.45951,174.37339 4.25771,-3.40617 -0.78727,-0.93187 -0.51414,0.241 -5.15746,3.79177 -0.1446,0.81941 5.73586,7.19794 0.80335,0.32134 5.59126,-4.30591 -0.14461,-0.86761 -0.59447,-0.27314 -0.54627,0.16067 -0.25707,0.36954 -3.35797,2.68316 -0.72301,0.1928 -1.73522,-2.20115 0.0803,-0.28921 3.87211,-3.02056 0.0161,-0.61054 -0.35347,-0.51414 -0.72301,0.0803 -3.79177,2.9081 -0.53021,-0.32134 -1.12467,-1.30141 -0.0321,-0.32134 z"
             id="path100" /><path
             style="opacity:1;fill:#fa0001;fill-opacity:1;stroke-width:0.1"
             d="m 153.67931,177.31362 4.46658,7.23008 0.723,-0.16067 3.08484,-2.08869 H 162.5 l 0.3856,0.36954 0.016,0.61054 -0.1928,0.20887 -4.57905,2.92416 h -0.75514 l -5.01286,-8.21015 0.22494,-0.40167 0.2892,-0.40167 z"
             id="path101" /><path
             style="opacity:1;fill:#fa0001;fill-opacity:1;stroke-width:0.1"
             d="m 146.96337,181.87661 5.12532,-2.49036 0.0321,-0.72301 -0.89974,-0.33741 -6.23393,2.8599 -0.16067,0.16067 4.17738,9.07776 0.6748,-0.0643 6.08933,-2.84383 0.24101,-0.49808 -0.43381,-0.75514 -0.44987,0.0482 -4.75578,2.15296 -0.81941,-0.30527 -0.33741,-1.26928 -0.3374,-0.41774 -0.0161,-0.73907 4.72365,-2.41003 -0.2892,-0.77121 -0.46594,-0.32133 -4.37018,2.10475 -0.5302,-0.36954 -0.54628,-0.8676 z"
             id="path102" /><path
             style="opacity:1;fill:#fa0001;fill-opacity:1;stroke-width:0.1"
             d="m 136.88946,189.62082 3.90424,-1.07648 0.17674,-0.6748 -0.41774,-0.61054 -3.64717,0.93187 -0.85155,-0.17673 -0.5784,-2.21723 0.51414,-0.4338 4.61118,-1.30141 -0.1446,-0.81941 -0.57841,-0.46594 -5.99293,1.70308 -0.22494,0.73908 2.53857,9.1099 0.6748,0.17673 0.78728,-0.69087 0.0482,-0.32134 -0.49807,-0.81941 -0.0643,-0.72301 -0.59447,-1.57455 0.0161,-0.4338 z"
             id="path103" /><path
             id="path104"
             style="display:inline;opacity:1;fill:#fa0001;fill-opacity:1;stroke-width:0.1"
             d="m 127.93945,185.36328 -1.1875,0.48242 -0.98047,0.57813 -0.72265,0.78711 -0.69141,0.99609 -0.32226,1.15625 -0.0156,1.47852 0.19336,1.2539 0.36914,0.86719 0.38672,0.75586 0.27148,0.51367 0.5625,0.49805 0.74024,0.5625 0.78711,0.43359 0.80273,0.20899 1.18946,0.0156 0.80273,-0.14453 1.04492,-0.28906 0.72266,-0.44922 0.73828,-0.58008 0.62695,-0.67383 0.4336,-1.04492 0.24218,-0.83594 -0.11328,-1.46093 -0.1289,-1.34961 -0.5625,-1.23828 -1.02735,-1.31641 -1.14062,-0.78711 -1.22071,-0.41797 z m 0.24219,1.42969 1.86328,0.0488 0.94727,0.72265 0.80469,0.81836 0.52929,1.33399 0.17774,1.04492 -0.16211,1.55859 -0.54492,1.01172 -0.74024,0.72266 -0.57812,0.38672 -0.75391,0.11132 -1.06055,0.12891 -0.61133,-0.27344 -0.6914,-0.36914 -0.59375,-0.48242 -0.54688,-0.80273 -0.32031,-0.62696 -0.20898,-0.7539 -0.0801,-0.9336 0.0156,-1.1875 0.36914,-0.85156 0.33789,-0.51562 0.5625,-0.4336 0.65821,-0.46484 z" /><path
             style="opacity:1;fill:#fa0001;fill-opacity:1;stroke-width:0.1"
             d="m 103.69537,186.32712 0.67481,0.241 0.88368,0.0964 1.12467,0.17674 0.25707,0.59447 -0.1928,1.04435 -0.2892,0.78727 -0.1446,1.47815 -0.38561,1.78342 -0.2892,1.34961 -0.0964,1.62275 0.56234,0.51414 0.65874,-0.16067 0.241,-0.30527 0.49807,-2.74742 0.24101,-2.45823 0.54627,-2.60283 0.25707,-0.4338 c 0,0 1.39781,0.0803 1.47815,0.11246 0.0803,0.0321 1.62275,0.28921 1.62275,0.28921 l 2.82776,4.40231 -0.22494,4.17738 0.69088,0.22494 0.78727,-0.24101 0.28921,-4.19344 3.45437,-4.38625 0.5784,-0.69087 -0.17673,-0.56234 -0.67481,-0.30527 -0.80334,0.49807 -1.31748,1.54242 -1.17288,1.91195 -0.36954,0.27314 -0.54627,-0.11247 -2.39396,-4.16131 -0.99614,-0.0643 -1.23715,0.17674 -0.72301,-0.14461 -2.41002,-0.5302 -2.94023,-0.62661 -0.38561,0.3374 -0.16067,0.61054 z"
             id="path105" /><path
             style="opacity:1;fill:#fa0001;fill-opacity:1;stroke-width:0.1"
             d="m 102.34576,185.20244 -1.94409,9.36697 -0.514138,0.20887 -1.060412,-0.36954 0.964011,-4.32198 1.205009,-5.39846 0.83548,-0.20887 z"
             id="path106" /><path
             style="opacity:1;fill:#fa0001;fill-opacity:1;stroke-width:0.1"
             d="m 91.61311,188.99421 -0.0482,0.86761 0.241002,0.57841 0.514139,0.54627 0.594473,0.43381 0.851542,0.30527 0.803342,0.1446 1.237147,-0.0803 0.61054,-0.482 0.144601,-0.85154 -0.35347,-0.78728 -1.188946,-0.93187 c 0,0 -1.253214,-0.77121 -1.317481,-0.81941 -0.06427,-0.0482 -1.413882,-1.12468 -1.413882,-1.12468 l -0.465938,-0.88368 -0.0482,-1.02828 0.353471,-0.70694 0.674807,-1.04434 c 0,0 0.514139,-0.2892 0.578406,-0.32134 0.06427,-0.0321 1.638818,-0.17673 1.638818,-0.17673 l 1.462082,0.241 1.012211,0.61054 1.140745,0.89974 0.385604,1.25322 0.176736,1.02827 -0.594473,0.38561 -0.883677,-0.33741 -0.257069,-1.25321 c 0,0 -0.562339,-0.61054 -0.642673,-0.67481 -0.08033,-0.0643 -1.188946,-0.56234 -1.188946,-0.56234 l -0.899743,-0.1928 c 0,0 -0.706941,0.17674 -0.771209,0.241 -0.06427,0.0643 -0.514138,0.54628 -0.514138,0.54628 l -0.241003,0.6748 0.449871,0.59448 0.835476,0.482 1.188946,0.69088 0.642674,0.5784 0.674807,0.57841 0.626606,0.65874 0.417738,0.64267 c 0,0 0.08033,0.67481 0.08033,0.75514 0,0.0803 -0.273136,0.96401 -0.273136,0.96401 l -0.289203,0.53021 -0.498072,0.75514 -0.867609,0.49807 -0.91581,0.24101 -1.172879,-0.19281 -1.124679,-0.32133 -1.156812,-0.51414 -1.140746,-0.99615 -0.482005,-1.23714 -0.192802,-0.65874 0.01607,-0.70694 0.674807,-0.48201 0.578406,0.30527 z"
             id="path107" /><path
             id="path108"
             style="display:inline;opacity:1;fill:#fa0001;fill-opacity:1;stroke-width:0.1"
             d="m 84.832031,178.69531 -0.529297,0.28907 -0.33789,0.44921 -0.06445,0.45118 -1.783203,3.55078 -1.75,4.33789 0.642578,0.51367 0.658203,0.14453 0.255859,-0.12891 1.478516,-3.51757 0.289062,-0.14454 0.660156,0.22461 0.882813,0.44922 0.707031,0.57813 0.611328,1.57617 0.126954,1.83008 0.128906,1.10937 0.626953,0.62696 0.802734,0.49804 0.515625,-0.41797 -0.273437,-0.98046 -0.22461,-1.6543 -0.386718,-1.52735 -0.208985,-0.7539 0.482422,-0.25781 1.15625,-0.0645 0.980469,-0.60937 0.802734,-1.26953 -0.0625,-1.60743 -0.835937,-1.14062 -1.800782,-0.96484 -2.361328,-1.0918 z m 0.804688,1.81641 1.205078,0.35351 0.689453,0.38477 0.724609,0.36914 0.753907,0.51367 0.417968,0.58008 0.113282,0.625 -0.353516,0.61133 -0.273438,0.5293 -0.722656,0.32226 -0.93164,-0.17578 -1.269532,-0.45117 -1.318359,-0.5625 -0.546875,-0.30469 -0.0957,-0.78711 0.546875,-0.44922 0.111328,-0.67578 0.242188,-0.5625 z" /><path
             style="display:inline;opacity:1;fill:#fa0001;fill-opacity:1;stroke-width:0.1"
             d="m 78.470437,176.51028 2.377892,1.60669 1.413881,0.8194 0.947944,0.20887 0.433804,-0.44987 -0.192802,-0.80334 -6.95694,-4.22558 -0.739075,0.0643 -6.635604,4.46658 -0.417738,-0.1928 2.634962,-8.06555 -0.385605,-0.51414 -0.91581,-0.61055 -0.152635,-0.1928 -0.249035,-0.3374 -0.803342,-0.61054 -0.787275,0.54627 -0.273136,0.32134 -5.703728,6.28213 -0.08033,0.64268 0.30527,0.35347 0.514139,0.11247 0.385604,-0.0161 5.864396,-6.57134 0.666773,-0.5543 0.182303,0.12105 -0.158202,0.86706 -2.731363,9.5919 0.61054,0.57841 0.578406,0.27313 0.449872,-0.0803 7.696015,-5.01286 0.465938,0.24101 -4.514781,7.26221 -0.03213,0.54627 0.385604,0.44987 5.864396,3.51864 0.867609,-0.59447 -0.192802,-0.81941 -4.900385,-2.98844 1.510282,-2.47429 0.61054,0.0482 4.225579,2.5225 0.674807,-0.83548 -0.594473,-0.75514 -3.936375,-2.32969 0.0964,-1.02828 0.626606,-0.40167 -0.08033,-0.41774 0.530206,-0.482 z"
             id="path109" /><path
             style="display:inline;opacity:1;fill:#fa0001;fill-opacity:1;stroke-width:0.1"
             d="m 67.352185,167.06298 -6.844473,6.61954 -0.771208,0.0321 -0.835476,-1.09254 v -1.09255 l 2.313625,-7.19794 H 60.31491 l -4.241646,4.30591 -0.867609,0.0964 -0.578406,-0.99614 7.294344,-6.68381 0.61054,-0.16066 0.61054,1.31748 -2.120822,7.87275 0.385604,0.32133 4.980719,-4.43444 0.514139,-0.12854 0.578406,0.96401 z"
             id="path110" /><path
             style="opacity:1;fill:#fa0001;fill-opacity:1;stroke-width:0.1"
             d="m 60.089974,159.2545 -5.141388,3.75964 -1.317481,0.3856 -1.285347,-0.32133 -1.060411,-1.47815 -0.224936,-0.89975 0.224936,-0.93187 6.201799,-4.91646 -0.899743,-1.18894 -0.835475,0.22493 -0.160669,0.35347 -5.012853,3.88818 -0.674807,0.93188 -0.321337,1.25321 -0.03213,0.99614 0.289203,0.80334 0.482005,0.73908 0.353471,0.64267 0.867609,0.86761 0.931877,0.41774 0.867609,0.25707 2.249357,-0.48201 5.784062,-4.59511 -0.931877,-1.09255 z"
             id="path111" /><path
             style="opacity:1;fill:#fa0001;fill-opacity:1;stroke-width:0.1"
             d="m 44.955013,153.5347 8.547557,-4.46658 -0.03213,-0.89974 -0.803342,-0.67481 -8.354756,4.59512 -0.321337,0.93187 z"
             id="path112" /><path
             id="path113"
             style="display:inline;opacity:1;fill:#fa0001;fill-opacity:1;stroke-width:0.1"
             d="m 50.193359,142.25586 -10.605468,0.38476 -0.25586,0.58008 0.867188,1.02735 2.763672,-0.0957 1.638671,3.14844 v 0.57813 l -1.863281,1.86328 -0.289062,0.74023 0.384765,0.86719 0.546875,0.0644 7.646485,-7.67968 -0.0957,-0.57813 z m -2.345703,1.54297 0.642578,0.0644 0.03125,0.54492 -2.3125,2.08985 -0.740234,-0.45117 -0.673828,-1.60547 0.255859,-0.38672 z" /><path
             style="opacity:1;fill:#fa0001;fill-opacity:1;stroke-width:0.1"
             d="m 39.235218,141.87018 9.511568,-3.02057 -0.417737,-1.25321 -0.482006,-0.12853 -3.020565,1.02827 -0.642674,-0.44987 -1.221079,-4.11311 3.438303,-1.28535 0.417738,-0.44987 -0.482005,-1.06041 -1.670951,0.48201 -7.904885,2.28149 -0.257069,0.93187 0.257069,0.57841 0.514139,0.25707 3.631105,-1.22108 0.578407,0.22494 1.221079,4.04884 -0.289203,0.35347 -3.727506,1.15681 -0.289203,0.70694 0.192802,0.61054 z"
             id="path114" /><path
             style="opacity:1;fill:#fa0001;fill-opacity:1;stroke-width:0.1"
             d="m 43.573265,130.97686 1.703084,-1.22108 0.514139,-1.57455 -0.06427,-1.99228 -0.996144,-2.21723 -1.960154,-1.47815 -3.213368,-0.482 -3.181234,1.51028 -1.285347,2.21722 -0.06427,2.63497 0.674807,1.76735 1.060411,1.47815 0.867609,0.54627 2.410026,-0.51414 1.124679,-0.16067 0.03213,-0.67481 -0.642674,-3.50257 H 39.42802 c 0,0 -0.385604,0.48201 -0.35347,0.64268 0.03213,0.16067 0.385604,1.57455 0.385604,1.57455 l -0.257069,0.83547 -0.964011,0.0643 -0.61054,-0.1928 -0.96401,-1.70309 -0.257069,-1.54241 0.224936,-1.02828 0.514138,-0.86761 0.771209,-0.70694 c 0,0 0.610539,-0.2892 0.835475,-0.32134 0.224936,-0.0321 1.478149,-0.44987 1.478149,-0.44987 0,0 1.028278,0.0643 1.156813,0.12854 0.128534,0.0643 1.124678,0.3856 1.124678,0.3856 l 1.124679,1.12468 0.578406,1.06041 0.160668,1.67095 -0.546272,1.09255 -0.899743,0.54627 -0.321337,0.70694 0.25707,0.70694 z"
             id="path115" /><path
             style="opacity:1;fill:#fa0001;fill-opacity:1;stroke-width:0.1"
             d="m 44.183804,120.69409 -9.993573,0.5784 -0.128535,-1.47815 6.81234,-5.07712 -0.385604,-0.51414 -6.491003,0.41774 -0.546272,-0.482 0.192802,-0.96401 9.961439,-0.61054 0.417738,0.5784 -0.03213,1.02828 -6.619537,4.98072 0.224936,0.2892 6.748072,-0.25707 0.289203,0.77121 z"
             id="path116" /><path
             id="path117"
             style="display:inline;opacity:1;fill:#fa0001;fill-opacity:1;stroke-width:0.1"
             d="m 34.800781,102.53906 -0.642578,0.28906 -0.06445,0.86719 0.449219,0.70703 1.09375,0.38477 1.316406,0.86914 0.289063,0.19141 -0.384766,3.69531 -2.892578,1.22265 -0.128906,0.64258 -0.0957,0.57813 0.546875,0.1289 10.185547,-3.72851 v -1.15625 z m 4.337891,3.72656 2.957031,1.31836 -0.06445,0.38477 -3.212891,0.93164 -0.291015,-0.54492 0.226562,-1.89649 z" /><path
             style="opacity:1;fill:#fa0001;fill-opacity:1;stroke-width:0.1"
             d="m 34.575835,101.60668 3.920309,0.93188 2.763496,0.57841 2.217223,0.44987 0.835476,0.0643 0.514139,-0.96401 -0.578406,-0.70694 -3.181234,-0.5784 -0.514139,-0.57841 1.092545,-3.920307 0.514139,-0.289203 3.566838,0.706941 0.257069,-0.803342 -0.128534,-0.835476 -9.640103,-2.056555 -0.578406,0.835475 0.449871,0.899743 4.048843,0.931877 -0.771208,4.530847 -0.160668,0.1928 -4.080977,-0.86761 -0.642674,0.77121 z"
             id="path118" /><path
             style="opacity:1;fill:#fa0001;fill-opacity:1;stroke-width:0.1"
             d="m 43.380462,94.248071 1.799486,-0.128534 1.317481,-0.61054 0.739075,-1.124679 0.674807,-1.703085 -0.224936,-2.18509 -1.060411,-1.221079 -1.413882,-0.514139 -0.96401,0.192802 -1.381748,0.835476 -1.156813,2.217223 -1.028277,1.478149 -1.156813,0.160669 -0.835475,-0.578406 -0.224936,-1.156813 0.192802,-1.413882 0.803342,-1.124678 0.771208,-0.546273 1.22108,-0.224935 0.449871,-0.06427 0.224936,-0.931876 -0.61054,-0.449872 -1.606684,0.289203 -1.31748,0.739075 -0.771208,1.124678 -0.578407,1.413882 -0.257069,1.188946 0.06427,1.156813 0.385604,0.996143 1.349615,0.964011 1.542416,0.128534 1.285347,-0.385604 1.060412,-1.446015 1.188946,-1.863753 0.674807,-0.771209 0.835475,-0.160668 0.578407,0.514139 0.482005,0.674807 -0.321337,1.478149 -0.642674,0.996144 -1.381748,0.706941 -0.899743,0.128535 z"
             id="path119" /></g></g></clipPath></defs><g
     id="layer1"
     style="display:inline;opacity:1"
     transform="translate(-22.123373,-15.504003)"><path
       id="path13823"
       style="display:inline;opacity:1;fill:#ffffff;fill-opacity:1;stroke:#fa0001;stroke-width:2;stroke-dasharray:none;stroke-opacity:1"
       d="m 119.66211,16.443359 a 96.539902,96.539902 0 0 0 -96.541016,96.541021 96.539902,96.539902 0 0 0 96.541016,96.53906 96.539902,96.539902 0 0 0 96.53906,-96.53906 96.539902,96.539902 0 0 0 -96.53906,-96.541021 z m -1.02539,38.087891 a 59.735001,59.735378 0 0 1 59.73633,59.73633 59.735001,59.735378 0 0 1 -59.73633,59.73437 59.735001,59.735378 0 0 1 -59.734376,-59.73437 59.735001,59.735378 0 0 1 59.734376,-59.73633 z" /><path
       id="path13834"
       style="opacity:1;fill:#fa0001;fill-opacity:1;stroke:#fa0001;stroke-width:0;stroke-dasharray:none;stroke-opacity:1"
       d="m 121.59375,72.814453 -13.81836,0.0332 -0.12695,0.353516 -5.88086,-0.0332 -0.48242,-0.289063 -12.210941,0.0332 -1.251953,0.416016 -0.707032,0.193359 v 0.707032 l 0.0625,2.859375 0.0332,3.824218 0.03125,1.542969 -0.06144,0.59077 0.07669,0.73983 0.0824,1.079556 0.224609,7.550782 0.0957,18.187507 -0.289062,29.01757 h 4.5625 l 2.443359,0.44922 25.80274,0.0645 0.28906,-0.28907 13.88281,-0.0957 4.65821,0.28906 5.39843,0.22461 1.125,-0.25781 0.93164,-0.80274 0.32227,-5.23828 -0.22461,-1.3164 -0.58008,-0.25782 v -3.4375 -20.4375 l 0.16211,-11.439451 0.28906,-1.09375 0.19141,-3.212891 -0.0957,-5.816406 -0.9961,-1.541016 0.0645,-1.929687 0.61132,-0.962891 -0.0976,-8.611328 -0.73828,-0.580078 -1.0293,-0.480469 h -7.42187 z m 0.51367,2.623047 19.31446,0.08984 1.95312,1.636718 0.0469,26.220712 -0.41016,30.17382 0.13672,2.0918 -1.45508,1.68164 -1.81718,-0.40979 -1.45377,0.22667 -1.27202,-0.18019 -40.990234,0.27148 -1.544922,-0.0449 -1.228515,-0.45508 -2.589844,-0.27148 -0.318359,-6.9082 0.364829,-1.27177 0.180093,-1.81808 -0.363282,-18.40429 -0.408203,-29.130867 -0.04492,-1.5 0.314453,-0.892578 1.285157,-0.964844 10.861327,0.06445 12.24219,-0.128906 h 0.25781 l 0.0957,1.542969 -0.0957,0.802734 -1.47852,1.607422 -0.83593,1.027344 -0.0645,0.322265 -17.929683,0.449219 -0.771484,0.996094 -0.353516,1.638672 0.06445,2.121093 2.988281,7.519532 1.316407,0.289062 1.478515,-0.546875 0.61133,-0.833984 -0.451173,-1.414063 -2.119141,-5.880859 0.513672,-0.578125 1.894532,-0.675781 4.88477,-0.160157 0.28906,0.0332 0.22461,0.705078 -0.0625,0.835937 -2.86133,1.607422 -0.41797,0.609375 0.25781,0.771484 1.41407,0.0332 1.06054,0.96289 0.0957,1.09375 -2.1211,1.605469 0.0977,0.835937 1.54101,0.0957 2.37891,2.410156 0.32031,0.162109 2.50781,-2.25 1.02735,-0.900391 -0.16016,-0.480468 -1.86328,-0.869141 -0.0645,-1.445312 2.02344,-1.189453 0.0977,-0.962891 -2.98828,-2.28125 -0.38672,-0.580078 0.28906,-0.996094 4.66016,-0.160156 1.31641,1.542969 1.18945,3.277343 0.25781,5.816407 1.125,1.478515 1.47656,-0.0332 0.64258,-0.898438 -0.0312,-1.607421 -0.0312,-4.177735 0.57813,-1.414062 0.60937,-1.027344 0.48242,-1.09375 0.96485,-0.738281 0.35351,-0.513672 1.54102,-0.09766 2.25,0.06445 0.28906,-0.03125 v 1.15625 l -0.90039,0.675781 -1.34961,0.513672 -0.83398,0.609375 c 0,0 -0.0641,0.835937 0.0645,0.835937 0.12853,0 1.86328,0.417969 1.86328,0.417969 l 0.83594,0.449219 0.0957,0.740234 -0.48242,0.771485 -0.67383,0.707031 -1.54297,0.224609 -0.22461,0.673828 v 0.804688 l 0.83008,0.283203 1.0918,0.544922 1.95312,2.226562 1.0918,0.226563 0.27149,-0.681641 0.5,-1.044922 0.81836,-0.726562 1.31835,-0.591797 0.90821,-0.316406 -0.13672,-1.136719 -2.68164,-1.589844 0.36523,-1.544922 1.27149,-0.318359 h 0.72656 l -0.0449,-1.5 -0.27344,-0.318359 -0.99805,-0.181641 -0.77343,-0.636719 -0.31836,-0.5 0.13672,-0.68164 7.45312,-0.181641 0.27149,1.091797 -1.99805,8.724609 1.9082,0.544922 1.45313,-0.226562 0.36523,-3 0.0898,-0.955078 0.72657,-1.726563 1.04687,-1.771484 0.0899,-4.271485 -2.72657,-1.410156 -15.08789,-0.04492 -3.45312,-3.863281 -1.27149,-0.726563 0.0899,-0.636718 z m -15.9043,22.357422 -3.22656,0.04492 -0.5,0.273437 0.36328,10.679691 v 3.58984 l -0.22851,3.13477 v 1.13672 l -0.77149,1.77148 -0.95507,2.13672 -0.5,1.45508 -0.63477,1.4082 -1.091797,1.77149 -2.134765,4.04492 -0.181641,0.95508 -0.181641,2.18164 0.363282,0.63476 15.541012,0.0918 0.5918,-0.36328 0.0449,-2.13672 -0.5,-0.81836 -8.17969,0.0469 -0.91015,-0.5 -2.22656,-0.22851 -0.0449,-0.9082 4.81641,-10.45313 2.5,-1.04492 4.31641,-0.13477 0.0918,-2.5 -1.22656,-0.77343 -4.72656,-0.36329 -0.13672,-1.54492 0.27344,-4.22656 0.18164,-1 0.72656,-0.68164 4.36328,-0.27149 1.04492,-0.45507 v -1.13672 l -0.59179,-0.90821 -4.22461,-0.0449 -0.95508,-0.45508 -0.77344,-0.95507 0.13672,-2.998052 z m 9.67969,0.273437 -0.27343,0.408203 0.13671,5.089848 -0.63671,0.31836 0.0898,9.08789 0.36523,0.27343 v 4.04493 l -0.5,0.4082 0.18164,14.26953 0.81836,1.27344 8.63282,0.0449 0.5,-0.41016 -0.0449,-2.27148 -0.5,-0.45508 -5.63476,-0.18164 -0.22656,-0.58984 v -23.13086 l 0.22656,-0.41016 0.0449,-7.316406 -0.5,-0.453125 z m 14.67774,0.31836 -2.90821,0.04492 -0.0918,3.408201 -1.5,0.58985 -4.67969,0.18164 -0.41406,0.63476 -0.0312,0.67383 0.0801,0.85156 0.3379,0.53125 0.94726,0.0312 4.90039,-0.0644 0.12891,0.72266 v 6.13867 l 0.0156,0.72266 -5.38281,0.19336 -0.27344,0.24023 -0.11133,2.61914 0.30469,0.25781 5.52735,-0.0977 0.8789,1.06445 0.45313,0.16016 0.11328,1.4082 0.25,1.1582 0.27344,1.86328 0.6582,2.3418 2.95508,4.72461 0.0449,0.95508 -5.27149,0.72656 -0.36328,0.45508 v 1.43164 l 0.13672,0.72656 0.81641,0.20508 8.58984,-0.0918 1.02149,-1.38476 -0.0684,-1.45508 -1.99805,-3.1582 -0.72851,-2.47657 -1.13477,-2.27148 -1.5,-3.20508 -0.95508,-3.17969 -1.08984,-3.36328 0.0684,-11.40625 z" /><path
       style="opacity:1;fill:#fa0001;fill-opacity:1;stroke:#fa0001;stroke-width:0;stroke-dasharray:none;stroke-opacity:1"
       d="m 88.047518,147.45403 2.681189,-0.10225 0.81799,-0.13633 1.499648,-0.90888 0.477161,-0.15905 1.181541,-0.10225 0.488521,0.31811 -0.07953,6.58936 0.02272,0.94296 0.306747,0.38627 0.693019,0.60214 1.897282,0.19313 0.306746,0.35219 -0.363551,0.30675 -9.406883,0.14769 -0.488522,-0.40899 0.624853,-0.43172 1.681424,-0.10225 0.715741,-0.42036 0.170415,-0.43171 -0.02272,-5.31694 -0.408995,-0.3181 -2.817521,-0.0341 z"
       id="path13837" /><path
       id="path13838"
       style="opacity:1;fill:#fa0001;fill-opacity:1;stroke:#fa0001;stroke-width:0;stroke-dasharray:none;stroke-opacity:1"
       d="m 108.89453,146.0332 -2,0.0469 -0.82812,0.10156 -1.10157,0.29492 -0.91015,0.375 -0.64649,0.41992 -0.60351,0.42188 -0.61328,0.5332 -0.78321,1.21485 -0.16992,1.04687 0.30664,1.27149 0.58985,0.79492 0.77343,0.70508 1.55664,0.6582 1.44141,0.27344 1.36328,0.0801 1.55664,-0.28515 0.98828,-0.38672 0.31836,0.0352 0.39844,0.48828 -0.22852,0.64843 -0.71484,1.03321 -1.05664,0.97656 -0.75,0.41992 -0.64648,0.375 -1.56836,0.41992 -1.3418,0.25 -0.33984,0.4668 0.38671,0.35156 0.68164,-0.0332 1.69141,-0.39844 2.3418,-0.58984 1.23828,-0.51172 1.38477,-0.64844 0.34179,-0.25976 0.76172,-0.56836 0.83984,-0.76172 0.39844,-0.52149 0.47656,-0.76171 0.33008,-0.7168 0.20313,-0.69141 0.0918,-1.20508 -0.0117,-0.97656 -0.35157,-1.16015 -0.45507,-0.85157 -0.78321,-0.72656 -0.64844,-0.51172 -0.98828,-0.47656 -0.77148,-0.28516 -1.03516,-0.22656 z m -0.98242,0.58399 0.58008,0.0176 0.30469,0.0234 0.36132,0.20118 0.29688,0.30468 0.37695,0.34571 0.35352,0.41015 0.30664,0.62696 0.20898,0.59374 0.13672,0.78711 v 1.52539 l -0.16992,0.86915 -0.28291,0.49749 -0.2683,0.17737 -0.25079,0.0872 -0.16992,0.0719 -0.21757,0.0253 -1.80664,0.0391 -0.3379,-0.0312 -0.93164,-0.77148 -0.42578,-0.63477 -0.27344,-1.29297 v -1.10156 l 0.23438,-0.96289 0.36914,-0.74805 0.47266,-0.43359 0.26562,-0.2168 0.44141,-0.29687 z" /><path
       style="opacity:1;fill:#fa0001;fill-opacity:1;stroke:#fa0001;stroke-width:0.1;stroke-dasharray:none;stroke-opacity:1"
       d="m 121.19883,146.30657 9.81588,-0.0114 0.15905,0.61349 -0.0909,1.69279 -0.32947,0.13633 -8.56617,-0.0454 -0.35219,0.0682 -0.28402,0.32947 -0.29539,1.89728 0.47716,0.31811 1.68143,-0.48852 3.5219,0.12497 1.80639,0.38627 1.77231,0.88616 0.72711,0.74982 0.35219,0.94296 0.0682,1.1929 -0.17041,0.56805 -0.42036,0.76119 -0.97704,0.94296 -0.74983,0.44308 -0.89751,0.44307 -1.17018,0.34083 -1.47693,0.34083 -1.74959,0.0909 -1.92,-0.15905 -0.62486,-0.29539 -1.6587,-0.47716 -0.2613,-0.31811 -0.44308,-0.21586 -0.63621,-0.7839 -0.0341,-0.69302 0.22722,-0.0909 0.49988,-0.62485 0.80663,-0.2045 0.69302,-0.0795 0.61349,0.0682 0.68166,0.24994 0.3181,0.37491 0.31811,0.43172 -0.0568,0.59077 -0.28403,0.27266 -0.10225,0.4658 0.26131,0.56805 0.2613,0.19314 1.14746,0.10225 1.59053,-0.4658 0.6703,-0.48853 0.63621,-0.60213 0.37492,-0.7271 0.22721,-0.9316 0.0795,-0.99976 -0.35219,-0.80663 -0.64757,-0.73847 -0.82935,-0.61349 -1.14746,-0.28402 -1.28379,0.0114 -0.64758,0.15905 -0.57941,0.32947 -0.84071,0.35219 -0.48852,0.23858 -0.73846,-0.2045 -0.12497,-0.36355 0.0227,-0.2045 0.35219,-0.48852 0.0682,-1.37467 0.18178,-1.1361 0.19314,-0.90888 0.11361,-0.9884 0.21585,-0.6135 z"
       id="path13839" /><path
       style="opacity:1;fill:#fa0001;fill-opacity:1;stroke:#fa0001;stroke-width:0;stroke-dasharray:none;stroke-opacity:1"
       d="m 135.67311,147.40876 2.68119,-0.10225 0.81799,-0.13633 1.49965,-0.90888 0.47716,-0.15905 1.18154,-0.10225 0.48852,0.31811 -0.0795,6.58936 0.0227,0.94296 0.30675,0.38627 0.69302,0.60214 1.89728,0.19313 0.30675,0.35219 -0.36355,0.30675 -9.40689,0.14769 -0.48852,-0.40899 0.62486,-0.43172 1.68142,-0.10225 0.71574,-0.42036 0.17042,-0.43171 -0.0227,-5.31694 -0.409,-0.3181 -2.81755,-0.0341 z"
       id="path13837-1" /><path
       style="display:inline;opacity:1;fill:#fa0001;fill-opacity:1;stroke:#fa0001;stroke-width:0.1;stroke-dasharray:none;stroke-opacity:1"
       d="m 50.385604,59.672236 1.863753,1.446016 2.120823,1.57455 3.084833,2.120822 2.281491,1.381748 0.417737,1.124679 -0.160668,2.18509 -1.542417,4.37018 -0.996143,3.052699 -0.160669,1.542417 0.867609,0.931876 0.385604,0.289203 1.767353,-0.996144 -0.0964,-0.835475 0.835475,-2.506427 1.188946,-3.213368 1.478149,-3.020565 1.670951,-3.020566 2.056556,-2.570694 0.835475,-1.028277 1.317481,-0.835476 2.024422,-3.052699 -2.120823,-1.767352 -1.285347,1.156812 -1.767352,1.670951 -1.349615,1.895887 -1.221079,1.767352 -0.835476,0.578406 -2.634961,-1.92802 v -0.514139 l 1.799486,-1.317481 0.482005,-1.606684 -0.771209,-1.510282 -1.253213,-0.546273 -1.285347,-0.160668 -0.739074,0.128535 -0.706941,0.674807 -0.835476,0.674807 -0.642673,0.803342 -0.546273,0.0964 -2.18509,-1.478149 -1.478149,0.03213 -1.317481,0.417738 -0.706941,0.706941 -0.128534,0.739075 z"
       id="path13840" /><path
       id="path13841"
       style="display:inline;opacity:1;fill:#fa0001;fill-opacity:1;stroke:#fa0001;stroke-width:0.1;stroke-dasharray:none;stroke-opacity:1"
       d="m 85.537109,33.003906 -0.716797,0.351563 -0.875,0.125 -1.304687,0.01172 -1.955078,0.158203 -1.226563,0.443359 -1.068359,0.353516 -0.601563,0.375 -0.294921,0.283203 -0.296875,0.568359 -0.214844,0.511719 0.169922,1.441406 0.169922,0.285156 0.238281,0.759766 0.06836,0.75 0.898438,1.773437 0.726562,1.521485 0.31836,0.761719 -0.169922,1.158203 -0.330078,1.216797 -0.386719,2.033203 -0.214844,1.033203 L 78.414062,50 l -0.125,1.011719 -0.363281,0.453125 -0.125,-0.146485 -0.523437,-0.546875 -0.886719,-1.339843 -0.669922,-1.19336 -0.693359,-1.578125 -0.509766,-1.640625 -0.449219,-2.634765 0.128907,-1.509766 0.529296,-0.550781 0.78711,-0.767578 -0.0957,-1.189453 -0.675781,-0.417969 -0.683594,-0.115235 -0.888672,0.263672 -0.232422,0.324219 -0.273438,0.25 -0.169921,0.671875 -0.136719,1.453125 -0.07813,1.955078 0.04492,1.066406 0.158203,0.966797 L 72.800781,46 l 0.431641,1.193359 1.160156,2.396485 1.078125,1.636718 0.658203,1.033204 0.865235,1.169922 0.55664,0.761718 0.714844,0.69336 1.089844,0.93164 0.580078,0.330078 0.625,-0.02344 0.466797,-0.113281 0.259765,-0.238282 0.08008,-0.410156 0.04492,-0.488281 -0.113281,-0.5 -0.261719,-0.521485 -0.453125,-0.603515 -0.375,-0.625 L 79.970703,51.806641 79.708984,51.408203 79.605469,50.976562 79.492188,48.886719 79.595703,48 l 0.316406,-0.601562 0.490235,-0.466797 0.658203,0.341797 0.318359,0.75 -0.410156,0.771484 -0.181641,0.830078 -0.08984,1.271484 0.169922,0.648438 0.601562,0.589844 0.25,0.511718 0.931641,0.488282 0.478515,0.136718 0.509766,-0.136718 0.716797,-0.386719 0.601562,-0.431641 0.488281,-0.488281 0.5,-0.613281 0.363282,-0.351563 0.330078,-0.601562 0.273437,-0.216797 0.419922,-0.839844 0.476563,-0.705078 0.273437,-0.830078 0.31836,-0.384766 0.259765,-0.535156 0.398438,-0.375 0.533203,-0.136719 0.591797,0.02344 0.580078,0.283203 0.408203,0.625 0.08008,0.818359 -0.296875,0.625 -0.509766,0.726563 -0.386718,0.5 -0.5,0.648437 -0.511719,0.681641 -0.419922,0.625 -0.363281,0.455078 -0.31836,0.339844 0.181641,0.511718 0.238281,-0.05664 0.601563,-0.06836 0.671875,-0.443359 0.521484,-0.419922 0.681641,-0.591797 0.705078,-0.646484 0.646484,-0.660156 0.556641,-0.759766 0.308594,-0.818359 0.363281,-0.830078 0.101563,-0.351563 -0.351563,-0.68164 -0.341797,-0.648438 -0.625,-0.521484 -0.634766,-0.625 -0.865234,-0.375 -0.828125,-0.261719 -0.261719,-0.339844 -0.283203,-0.183594 -0.125,-0.441406 -0.171875,-0.511719 -0.203125,-0.30664 -0.285156,-0.294922 -0.158203,-0.523438 -0.228516,-0.318359 -0.351562,-0.261719 -0.158203,-0.339844 -0.523438,-0.148437 h -0.419922 l -0.511719,0.455078 -0.544921,0.351563 -0.386719,0.738281 -0.431641,0.330078 -0.18164,0.533203 -0.238282,0.228516 -0.648437,0.488281 -0.533203,0.271484 -0.294922,0.421875 -0.148438,0.601563 -0.419921,0.261719 -0.431641,-0.296875 -0.386719,-0.726563 -0.214844,-0.589844 0.04492,-0.705078 0.214844,-0.863281 0.568359,-1.169922 0.648438,-1.068359 0.828125,-1.214844 2.113281,-2.648438 0.705078,-0.726562 0.625,-0.794922 0.25,-0.398437 0.01172,-0.464844 -0.296875,-0.591797 -0.464844,-0.06836 z m -3.80664,1.919922 0.93164,0.02344 0.613282,0.134765 0.544921,0.410157 0.115235,0.294921 -0.431641,0.75 -0.728515,1.294922 -0.431641,0.886719 -0.363281,0.453125 -0.294922,0.681641 -0.318359,0.568359 -0.408204,0.341797 -0.636718,-0.02344 -0.455078,-0.636718 -0.181641,-0.613282 -0.408203,-1.476562 0.113281,-1.113281 -0.02344,-0.931641 1.318359,-0.636719 z m 5.175781,7.115234 0.400391,0.521485 0.539062,1.013672 -0.208984,0.609375 -0.578125,0.513672 -0.763672,0.08008 -0.28125,-0.296875 -0.28125,-0.441407 -0.08789,-0.410156 c 0,0 0.160155,-0.545995 0.160157,-0.578125 -10e-7,-0.03213 0.152343,-0.353515 0.152343,-0.353515 l 0.242188,-0.337891 0.361328,-0.0957 z m -0.691406,4.345704 0.376953,0.08008 0.314453,0.193359 -0.113281,0.441406 -0.19336,0.794922 -0.199218,0.345703 -0.417969,0.5625 -0.265625,0.337891 -0.113281,0.03906 -0.658204,-0.07227 -0.33789,-0.480469 -0.216797,-0.587891 0.136719,-0.570312 0.136718,-0.232422 c 0.08837,-0.0241 0.626954,-0.369141 0.626954,-0.36914 l 0.330078,-0.216797 z m -3.865235,3.375 0.619141,0.697265 0.53125,0.619141 0.224609,0.273437 -0.5625,0.546875 -0.802734,-0.136718 -0.353516,-0.394532 -0.154297,-0.634765 -0.03125,-0.289063 0.257813,-0.464844 z" /><path
       id="path13844"
       style="display:inline;opacity:1;fill:#fa0001;fill-opacity:1;stroke:none;stroke-width:0.1;stroke-dasharray:none;stroke-opacity:1"
       d="m 108.0332,25 -1.76758,0.433594 -1.3164,0.33789 -0.86914,0.449219 -1.15625,0.53125 -0.38477,0.673828 -0.1289,0.53125 0.25781,0.289063 1.60547,0.771484 -0.12891,0.962891 -2.3125,1.896484 -1.06055,0.867188 -2.570308,1.445312 -2.154297,1.607422 -0.544922,0.802734 0.289063,0.869141 0.771484,0.642578 1.027344,0.0957 1.189453,-0.513672 0.898437,-1.029297 3.535156,-1.927734 1.06055,-0.835937 0.14453,-0.144532 0.75586,0.626953 0.0801,0.386719 -0.54688,0.996094 0.0644,0.962891 0.14454,0.466796 0.35351,0.208985 0.12891,0.642578 -0.0957,0.771484 -3.03711,3.935547 -0.19335,0.947266 0.14453,0.546875 0.32226,0.304687 0.81836,-0.01563 0.53125,-0.193359 c 0,0 0.064,-0.24042 0.22461,-0.304688 0.16067,-0.06427 0.99609,-1.076171 0.9961,-1.076171 l 0.52929,-0.449219 0.33789,0.175781 0.59571,1.398438 0.7539,1.380859 0.88477,1.029297 1.07617,0.289062 2.84375,-0.289062 1.26953,-1.044922 0.30469,-0.738281 -0.82031,-0.322266 -1.39649,0.322266 -0.96484,0.289062 -0.88282,-0.113281 -0.54687,-0.642578 0.28906,-0.513672 1.33399,-0.755859 1.66992,-1.316407 0.62695,-0.595703 0.32227,-1.205078 -0.12891,-1.52539 -0.53125,-0.851563 -1.20312,-0.482422 h -1.14258 l -1.26758,0.322266 -0.35352,-0.980469 0.81836,-1.398438 1.15625,-0.466796 1.57618,-0.609375 0.54492,-0.304688 1.55859,-1.173828 0.80469,-1.125 0.33594,-1.445313 -0.62696,-0.835937 -1.02734,-0.208984 -1.49414,0.177734 -1.70313,0.384766 -1.6875,0.626953 -0.1914,-0.722656 0.97851,-0.740235 0.49805,-0.996094 -0.16016,-1.140625 -0.72265,-0.996093 z m 4.49805,5.447266 0.38672,0.06445 -0.0156,0.449219 -0.0977,0.36914 -1.01172,0.5625 -1.01172,0.658203 -0.5957,0.208985 -1.02735,-0.208985 -0.6914,-0.753906 1.02929,-0.433594 1.14063,-0.386719 1.1875,-0.304687 z m -2.39258,8.097656 0.70703,0.273437 0.14453,0.464844 v 0.675781 l -0.0332,0.416016 -0.44922,0.435547 -0.51367,0.449219 -0.41797,0.113281 -0.48242,-0.353516 v -0.546875 l 0.19336,-0.964844 0.0645,-0.578124 z" /><path
       id="path1"
       style="display:inline;opacity:1;fill:#fa0001;stroke-width:0.1"
       d="m 137.75781,27.828125 -0.93164,0.0957 -0.54687,0.353516 -0.22461,0.0332 -0.67578,0.833984 -0.25586,0.707031 -0.25782,0.740235 -0.16015,0.224609 -2.53906,0.802735 -2.41016,0.611328 -1.67188,0.384765 -1.79882,0.707032 -0.9961,0.417968 -0.19336,0.322266 -0.0312,0.513672 0.61133,0.417969 3.66211,0.578125 1.31836,-0.06445 0.32031,0.257813 -0.0312,0.609375 -2.50781,2.988281 -2.57031,2.634766 -1.60547,1.382812 -0.12891,0.771485 0.28907,0.513672 1.50976,0.0957 0.74024,-0.191407 2.63476,-2.957031 0.32031,-0.224609 0.28907,0.384766 -0.16016,3.246093 0.38476,0.707031 0.83594,0.673829 1.09375,0.417968 1.31641,0.06445 1.0293,-0.224609 1.76562,-0.289062 1.70313,-1.896485 2.21875,-3.246094 1.2207,-2.505859 0.83594,-2.794922 0.16015,-1.896484 -0.70703,-1.605469 -1.0293,-0.675781 -0.67382,-0.322266 -0.0312,-0.320312 0.38476,-0.513672 0.22461,-0.611328 -0.86719,-1.060547 -0.57812,-0.482422 z m -1.09375,7.261719 0.90039,0.06445 0.70703,0.513672 -0.0332,1.060547 -0.38476,1.220703 -0.35352,0.964843 -0.96484,1.414063 -0.44922,1.220703 -1.22071,1.027344 -1.18945,0.86914 -1.06055,0.417969 -0.44921,-0.386719 v -0.90039 l -0.19336,-1.091797 0.0977,-0.900391 0.41602,-1.058593 0.54687,-1.09375 0.51368,-0.962891 0.93164,-0.804688 1.09375,-1.027343 0.35351,-0.09766 z" /><path
       id="path2"
       style="display:inline;opacity:1;fill:#fa0001;fill-opacity:1;stroke-width:0.1"
       d="m 163.11133,38.978516 -0.9336,0.160156 -1.38085,0.513672 -0.38477,0.675781 -0.58008,1.605469 -1.05859,1.349609 -1.47852,0.546875 -0.93164,-0.320312 -0.64258,-0.06445 -0.90039,0.25586 -0.67578,0.224609 -0.35351,0.16211 v 0.738281 l 0.19336,0.867187 -0.0313,0.707032 -0.61132,0.675781 -4.91602,1.863281 -0.32226,0.384766 0.28906,0.675781 2.69922,2.345703 2.53906,-0.482422 2.18555,-0.738281 2.25,-0.642578 1.57421,-0.835938 1.28516,-0.0957 1.63867,0.22461 1.28516,-0.482422 0.90039,-0.546875 0.93164,-0.673828 -0.32226,-1.285157 -0.73829,-0.964843 -0.48242,-0.578125 1.125,-1.253907 0.41797,-1.476562 -0.22461,-1.992188 -0.61133,-0.515625 z m -3.05274,15.328125 -0.54687,0.160156 -0.28906,0.353515 0.0312,0.962891 -0.44922,0.835938 -0.41797,0.996093 -1.0918,0.771485 1.57422,1.091797 0.93164,0.546875 1.70313,-0.384766 0.70703,-1.125 0.22461,-1.029297 -0.38477,-1.412109 -0.57812,-1.125 z" /><path
       id="path3"
       style="display:inline;opacity:1;fill:#fa0001;fill-opacity:1;stroke-width:0.1"
       d="m 182.45508,56.490234 -0.57813,0.06445 -1.2539,0.90039 -1.50977,1.125 -2.2168,2.023438 -0.96484,-0.578125 -1.34961,-0.835938 -1.31641,-0.802734 -1.31835,-0.384766 -1.31836,0.802735 0.19336,0.802734 1.06054,1.125 1.99219,1.09375 2.25,1.220703 1.70312,0.996094 1.22071,0.96289 -0.32227,0.386719 -0.83398,-0.289062 -0.83594,-0.482422 -0.67578,-0.611328 -1.34961,-0.707032 -0.67383,-0.255859 -0.70703,0.191406 -0.28906,0.386719 v 0.802734 l 0.35351,0.771485 1.76758,1.734375 -0.74023,0.804687 -1.31641,-0.867187 -1.0293,-0.546875 -0.67382,-0.160157 -0.67578,0.126954 -0.9629,0.675781 -1.1582,1.509765 -0.1914,1.736329 0.28906,1.412109 1.3164,1.287109 0.58008,0.480469 0.9961,0.417969 0.99609,-0.482422 0.48047,-0.802734 0.38672,-0.25586 1.34961,0.898438 0.86718,0.417969 0.48243,-0.160157 0.70703,-0.611328 0.35351,-0.835937 -0.22461,-0.769532 -0.16211,-0.642578 0.0977,-0.740234 0.51367,-0.546875 0.77149,-0.160156 1.02734,0.224609 4.5,3.181641 0.86719,0.513671 1.06054,-0.255859 0.57813,-0.964844 -0.19336,-1.060547 -0.41797,-1.027343 -0.73828,-0.900391 v -0.417969 l 1.0918,-0.707031 1.2539,-0.609375 2.15235,-1.253906 0.48242,0.128906 0.96484,-0.835937 -0.16211,-0.673828 -0.38476,-0.515626 -0.61133,-0.544921 -0.77148,-0.06445 -0.38477,-0.451172 2.18555,-2.248047 V 60.02539 l -0.45118,-0.771485 h -1.06054 l -0.83399,0.386719 -1.09375,0.544922 -0.80273,0.289062 -0.86719,0.09766 -0.96484,0.0957 -0.12891,-0.513672 0.45117,-0.546875 0.19141,-0.513672 0.58008,-0.320312 0.12695,-0.771485 -0.48047,-0.642578 -0.51562,-0.353516 h -0.38477 l -0.67578,0.289063 -0.35352,0.513672 -0.0312,0.707031 -1.06054,0.900391 -1.125,1.123046 -1.38086,0.933594 -0.41797,-0.546875 2.41016,-2.121093 0.41796,-0.964844 0.25586,-0.769532 z m 0.70703,4.595704 0.80273,0.578124 -0.60937,0.482422 -0.51563,-0.578125 z m 4.04883,0.964843 0.32031,0.22461 -0.41602,0.128906 -0.25781,-0.193359 z m -0.86719,1.798828 0.83398,0.03125 0.64454,0.291016 -0.19336,0.480469 -0.54688,0.386718 -0.44922,0.03125 -0.57812,-0.0957 -0.28907,0.03125 -0.1621,-0.289062 0.2246,-0.544922 z m -2.92383,1.34961 0.48047,0.06445 0.35352,0.417969 -0.0645,0.384765 -0.41601,0.160156 -0.67578,-0.416015 0.0645,-0.417969 z m -1.99414,2.763672 0.38672,0.03125 0.54688,0.289062 0.54492,0.515625 0.0644,0.578125 -0.22461,0.320313 -0.48242,-0.320313 -0.44922,-0.322265 -0.57812,-0.480469 0.16015,-0.226563 z m -9.80078,0.642578 0.61133,0.289062 0.70703,0.546875 -0.51367,0.482422 -0.67578,0.25586 -0.38477,-0.06445 -0.41797,-0.642578 0.22461,-0.417968 z" /><path
       id="path9"
       style="display:inline;opacity:1;fill:#fa0001;fill-opacity:1;stroke-width:0.1"
       d="m 197.22656,86.298828 -0.63672,0.408203 -1.58984,1.81836 -1.31836,1.908203 -0.58984,-0.226563 -0.63672,-0.68164 L 192,88.796875 l -0.77148,-0.04492 -1.13672,0.136719 -0.95508,0.589844 -0.63477,0.955078 -0.5,1.089844 0.68164,2.726562 0.95313,3.136719 0.43359,0.138672 0.72266,-0.144532 1.75195,-0.498047 6.54492,-1.677734 0.81836,-0.591797 -0.31836,-0.68164 -0.45507,-0.453125 -1.72657,0.453125 -1.68164,0.591797 -0.77148,-0.181641 -0.27344,-0.544922 -0.0918,-1.091797 -0.0449,-1 0.45508,-0.589844 1.36328,-1.363281 0.58984,-0.863281 0.91016,-0.773438 v -0.908203 l -0.22851,-0.591797 z m -6.08008,4.013672 0.80469,0.240234 0.54492,0.513672 0.30664,0.884766 0.5293,1.589844 0.24219,0.996093 -0.16211,0.417969 -1.0918,0.433594 -1.33398,0.273437 -0.4336,-0.304687 -0.32226,-0.916016 -0.28906,-1.189453 -0.16016,-1.109375 -0.0801,-0.271484 0.22461,-0.580078 0.22461,-0.464844 0.53125,-0.337891 z" /><path
       style="opacity:1;fill:#fa0001;fill-opacity:1;stroke-width:0.1"
       d="m 190.2508,98.272391 -0.3181,0.9316 0.3181,1.181539 0.13634,1.38604 0.43171,2.40853 0.24994,1.43148 0.2045,0.79527 0.77255,0.5226 2.29491,0.59077 2.24948,0.47716 1.84047,0.45444 0.0909,0.36355 -0.29538,0.18178 -6.65753,1.88592 -0.15906,0.49988 v 0.34083 l 0.0227,0.65894 0.27266,0.45443 0.61349,0.15906 6.04404,1.59053 0.29538,0.15906 -0.3181,0.49988 -0.13634,0.22722 -6.52119,1.24971 -0.38628,0.56805 0.0227,0.56804 0.38627,0.52261 1.11337,-0.29539 2.22675,-0.61349 6.49848,-1.70414 0.24994,-0.38628 v -0.88615 l -0.49988,-0.47716 -7.11197,-1.84048 v -0.79527 l 7.36191,-1.84048 0.24994,-0.65893 -0.22722,-0.77255 -0.70438,-0.38627 -7.02108,-1.90864 -0.22722,-0.18178 0.9316,-0.31811 6.47575,-0.97704 0.24995,-0.59077 -1.09066,-6.816583 -0.65893,-0.22722 -0.74983,0.340829 -0.0682,0.340829 0.86343,4.885215 -0.0682,0.38628 -0.61349,0.43171 -1.97681,0.18178 -0.45444,-0.31811 -0.74982,-4.567109 -0.70438,-0.431717 -0.86343,0.499883 0.84071,4.521663 -0.409,0.7271 -1.56781,0.27267 -0.77255,-0.31811 -0.7271,-5.316933 -0.77254,-0.295385 z"
       id="path10" /><path
       id="path12"
       style="display:inline;opacity:1;fill:#fa0001;fill-opacity:1;stroke-width:0.1"
       d="m 194.2168,118.12305 -1.67188,0.93164 -1.0918,0.83593 -0.77148,1.47852 -0.28906,2.02344 0.25586,1.41406 0.67578,1.06055 0.77148,0.90039 1.02735,0.60937 1.06054,0.32227 0.70703,0.22461 0.73829,0.35351 1.83203,-0.19336 1.67187,-0.96289 1.31641,-1.41406 0.67578,-1.70312 -0.0332,-1.76758 -0.64258,-1.76758 -1.63867,-1.63867 -2.24805,-0.57813 z m 0.1914,1.57422 1.09375,0.0332 1.22071,0.0312 1.25195,0.54687 1.06055,0.67383 0.61132,1.34961 0.0645,1.31836 -0.32227,1.31836 -0.89844,0.86719 -1.28515,0.70703 -1.125,0.0312 -1.18946,-0.32031 -0.93164,-0.19336 -0.73828,-0.48243 -0.67578,-0.48242 -0.44922,-1.02734 -0.22461,-1.0293 0.12696,-1.25195 0.41797,-0.80469 0.86718,-0.64258 z" /><path
       id="path13"
       style="display:inline;opacity:1;fill:#fa0001;fill-opacity:1;stroke-width:0.1"
       d="m 191.74219,127.98828 -0.80469,0.16016 -1.12305,0.74023 -0.48242,1.31641 -0.70703,2.41015 -0.67578,2.18555 2.18555,0.64258 5.91211,1.60742 1.60742,0.54492 0.77148,-0.70703 -0.0644,-0.80273 -0.77149,-0.48242 -1.41406,-0.35352 -1.34961,-0.16016 -0.22461,-0.35351 0.35352,-1.99219 0.25781,-1.60742 -0.0644,-1.31641 -0.77149,-0.90039 -0.96484,-0.57812 -0.93164,-0.32032 z m -0.19336,1.67188 h 0.83594 l 0.67382,0.25586 0.86719,0.99609 -0.12695,0.99609 -0.86914,2.57032 -1.34961,-0.12696 -1.60547,-0.57812 v -0.41797 l 0.32031,-1.57617 0.74024,-1.76563 z" /><path
       style="opacity:1;fill:#fa0001;fill-opacity:1;stroke-width:0.1"
       d="m 192.01478,143.20373 0.67481,0.75514 0.44987,0.88367 0.25707,0.46594 -0.16067,1.04435 -0.36954,0.86761 -0.35347,0.56234 -0.96401,0.64267 -0.70694,0.30527 -1.01221,-0.0321 -0.62661,-0.12854 -1.15681,-0.49807 -0.91581,-0.57841 -0.96401,-0.73907 -0.69087,-0.86761 0.0803,-1.70309 0.36954,-0.7712 0.41774,-0.65874 0.51414,-0.48201 0.94794,-0.30527 0.73907,0.0482 0.64268,-0.72301 -0.33741,-0.73907 -0.83547,-0.16067 -0.86761,0.22494 -0.91581,0.44987 c 0,0 -0.73908,0.46594 -0.78728,0.56234 -0.0482,0.0964 -0.6266,0.96401 -0.6266,0.96401 l -0.56234,1.46208 -0.0161,1.10861 -0.0482,0.81941 0.40167,1.12468 0.75514,1.06041 0.73908,0.53021 0.44987,0.40167 0.86761,0.3856 0.77121,0.41774 1.07647,0.12853 1.47815,0.16067 0.93188,-0.1928 1.07648,-0.40167 0.78727,-0.86761 0.61054,-0.99614 0.48201,-0.89975 0.0803,-1.96015 -0.41774,-1.34962 -1.18894,-1.30141 -0.25707,-0.0161 -0.54627,0.43381 -0.19281,0.40167 -0.0643,0.22493 z"
       id="path14" /><path
       style="opacity:1;fill:#fa0001;fill-opacity:1;stroke-width:0.1"
       d="m 181.37853,149.67866 1.97622,1.23715 3.80785,1.94409 2.47429,1.41388 0.44987,0.20887 0.51414,-0.25707 0.25707,-0.65874 -0.20887,-0.46594 -8.53149,-4.61118 -0.41774,0.30527 -0.17673,0.54627 z"
       id="path15" /><path
       id="path16"
       style="display:inline;opacity:1;fill:#fa0001;fill-opacity:1;stroke-width:0.1"
       d="m 181.7793,151.83203 -1.10742,0.14453 -0.70704,0.36914 -0.94726,1.04492 -1.62305,2.45704 -0.72265,1.17382 -0.83594,0.93164 -4.75586,5.67188 0.24023,0.51367 0.54688,0.36914 0.67383,-0.38476 0.5957,-0.72266 0.60937,-0.82031 0.45118,-0.16016 6.47461,5.52735 0.83593,-0.62696 0.16016,-0.38672 -0.51367,-0.72265 -5.70508,-4.90039 -0.0312,-0.65821 1.39844,-1.76757 0.64257,-0.19336 7.14844,4.66015 0.85156,-0.67578 -0.0801,-0.7539 -2.98829,-1.92774 -0.25781,-0.75586 0.82031,-1.23633 1.125,-0.67578 2.23243,-0.19336 2.02539,0.22657 0.59375,-0.3379 0.61133,-0.93164 -0.40235,-0.48242 -4.51367,0.22461 -0.35352,-0.36914 -0.0488,-1.73633 -1.09375,-1.26758 z m -0.33594,1.70313 0.81836,0.27343 0.61133,0.91602 -0.0645,1.0918 -2.02539,2.89257 -0.6582,-0.14453 -1.58984,-1.125 -0.28907,-0.30664 0.0957,-0.46484 0.78711,-1.125 1.04492,-1.39844 0.54687,-0.49805 z" /><path
       style="opacity:1;fill:#fa0001;fill-opacity:1;stroke-width:0.1"
       d="m 172.15617,166.78984 -1.12468,-0.22493 h -0.93188 l -0.94794,0.3856 -0.77121,0.81941 -0.482,0.94795 -0.0803,1.34961 0.40167,1.02828 0.89975,1.12468 1.06041,0.94794 1.36568,0.73907 1.34961,-0.0803 1.02828,-0.40167 0.64267,-0.57841 0.44988,-0.723 0.25707,-0.98008 -0.0321,-0.99615 -0.61054,-0.40167 0.0482,-0.51414 0.44987,-0.49807 c 0,0 0.41774,-0.0482 0.48201,-0.0482 0.0643,0 0.49807,0.1928 0.49807,0.1928 l 0.25707,0.44988 0.25707,0.8194 -0.0482,1.68702 -0.32134,0.88368 -0.65874,0.91581 -0.89974,0.81941 -0.88368,0.5784 -1.38175,0.36954 -1.10861,-0.0321 -1.25321,-0.40167 -1.44602,-0.91581 -1.46208,-1.60669 -0.81941,-1.68702 0.0161,-1.83162 0.48201,-1.14074 0.99614,-1.38175 1.02828,-0.77121 0.85154,-0.46594 0.96401,-0.11246 0.85154,0.0964 1.07648,0.41774 0.41774,0.16066 -0.38561,0.88368 -0.241,0.22494 z"
       id="path17" /><path
       style="opacity:1;fill:#fa0001;fill-opacity:1;stroke-width:0.1"
       d="m 160.45951,174.37339 4.25771,-3.40617 -0.78727,-0.93187 -0.51414,0.241 -5.15746,3.79177 -0.1446,0.81941 5.73586,7.19794 0.80335,0.32134 5.59126,-4.30591 -0.14461,-0.86761 -0.59447,-0.27314 -0.54627,0.16067 -0.25707,0.36954 -3.35797,2.68316 -0.72301,0.1928 -1.73522,-2.20115 0.0803,-0.28921 3.87211,-3.02056 0.0161,-0.61054 -0.35347,-0.51414 -0.72301,0.0803 -3.79177,2.9081 -0.53021,-0.32134 -1.12467,-1.30141 -0.0321,-0.32134 z"
       id="path18" /><path
       style="opacity:1;fill:#fa0001;fill-opacity:1;stroke-width:0.1"
       d="m 153.67931,177.31362 4.46658,7.23008 0.723,-0.16067 3.08484,-2.08869 H 162.5 l 0.3856,0.36954 0.016,0.61054 -0.1928,0.20887 -4.57905,2.92416 h -0.75514 l -5.01286,-8.21015 0.22494,-0.40167 0.2892,-0.40167 z"
       id="path19" /><path
       style="opacity:1;fill:#fa0001;fill-opacity:1;stroke-width:0.1"
       d="m 146.96337,181.87661 5.12532,-2.49036 0.0321,-0.72301 -0.89974,-0.33741 -6.23393,2.8599 -0.16067,0.16067 4.17738,9.07776 0.6748,-0.0643 6.08933,-2.84383 0.24101,-0.49808 -0.43381,-0.75514 -0.44987,0.0482 -4.75578,2.15296 -0.81941,-0.30527 -0.33741,-1.26928 -0.3374,-0.41774 -0.0161,-0.73907 4.72365,-2.41003 -0.2892,-0.77121 -0.46594,-0.32133 -4.37018,2.10475 -0.5302,-0.36954 -0.54628,-0.8676 z"
       id="path20" /><path
       style="opacity:1;fill:#fa0001;fill-opacity:1;stroke-width:0.1"
       d="m 136.88946,189.62082 3.90424,-1.07648 0.17674,-0.6748 -0.41774,-0.61054 -3.64717,0.93187 -0.85155,-0.17673 -0.5784,-2.21723 0.51414,-0.4338 4.61118,-1.30141 -0.1446,-0.81941 -0.57841,-0.46594 -5.99293,1.70308 -0.22494,0.73908 2.53857,9.1099 0.6748,0.17673 0.78728,-0.69087 0.0482,-0.32134 -0.49807,-0.81941 -0.0643,-0.72301 -0.59447,-1.57455 0.0161,-0.4338 z"
       id="path21" /><path
       id="path23"
       style="display:inline;opacity:1;fill:#fa0001;fill-opacity:1;stroke-width:0.1"
       d="m 127.93945,185.36328 -1.1875,0.48242 -0.98047,0.57813 -0.72265,0.78711 -0.69141,0.99609 -0.32226,1.15625 -0.0156,1.47852 0.19336,1.2539 0.36914,0.86719 0.38672,0.75586 0.27148,0.51367 0.5625,0.49805 0.74024,0.5625 0.78711,0.43359 0.80273,0.20899 1.18946,0.0156 0.80273,-0.14453 1.04492,-0.28906 0.72266,-0.44922 0.73828,-0.58008 0.62695,-0.67383 0.4336,-1.04492 0.24218,-0.83594 -0.11328,-1.46093 -0.1289,-1.34961 -0.5625,-1.23828 -1.02735,-1.31641 -1.14062,-0.78711 -1.22071,-0.41797 z m 0.24219,1.42969 1.86328,0.0488 0.94727,0.72265 0.80469,0.81836 0.52929,1.33399 0.17774,1.04492 -0.16211,1.55859 -0.54492,1.01172 -0.74024,0.72266 -0.57812,0.38672 -0.75391,0.11132 -1.06055,0.12891 -0.61133,-0.27344 -0.6914,-0.36914 -0.59375,-0.48242 -0.54688,-0.80273 -0.32031,-0.62696 -0.20898,-0.7539 -0.0801,-0.9336 0.0156,-1.1875 0.36914,-0.85156 0.33789,-0.51562 0.5625,-0.4336 0.65821,-0.46484 z" /><path
       style="opacity:1;fill:#fa0001;fill-opacity:1;stroke-width:0.1"
       d="m 103.69537,186.32712 0.67481,0.241 0.88368,0.0964 1.12467,0.17674 0.25707,0.59447 -0.1928,1.04435 -0.2892,0.78727 -0.1446,1.47815 -0.38561,1.78342 -0.2892,1.34961 -0.0964,1.62275 0.56234,0.51414 0.65874,-0.16067 0.241,-0.30527 0.49807,-2.74742 0.24101,-2.45823 0.54627,-2.60283 0.25707,-0.4338 c 0,0 1.39781,0.0803 1.47815,0.11246 0.0803,0.0321 1.62275,0.28921 1.62275,0.28921 l 2.82776,4.40231 -0.22494,4.17738 0.69088,0.22494 0.78727,-0.24101 0.28921,-4.19344 3.45437,-4.38625 0.5784,-0.69087 -0.17673,-0.56234 -0.67481,-0.30527 -0.80334,0.49807 -1.31748,1.54242 -1.17288,1.91195 -0.36954,0.27314 -0.54627,-0.11247 -2.39396,-4.16131 -0.99614,-0.0643 -1.23715,0.17674 -0.72301,-0.14461 -2.41002,-0.5302 -2.94023,-0.62661 -0.38561,0.3374 -0.16067,0.61054 z"
       id="path24" /><path
       style="opacity:1;fill:#fa0001;fill-opacity:1;stroke-width:0.1"
       d="m 102.34576,185.20244 -1.94409,9.36697 -0.514138,0.20887 -1.060412,-0.36954 0.964011,-4.32198 1.205009,-5.39846 0.83548,-0.20887 z"
       id="path25" /><path
       style="opacity:1;fill:#fa0001;fill-opacity:1;stroke-width:0.1"
       d="m 91.61311,188.99421 -0.0482,0.86761 0.241002,0.57841 0.514139,0.54627 0.594473,0.43381 0.851542,0.30527 0.803342,0.1446 1.237147,-0.0803 0.61054,-0.482 0.144601,-0.85154 -0.35347,-0.78728 -1.188946,-0.93187 c 0,0 -1.253214,-0.77121 -1.317481,-0.81941 -0.06427,-0.0482 -1.413882,-1.12468 -1.413882,-1.12468 l -0.465938,-0.88368 -0.0482,-1.02828 0.353471,-0.70694 0.674807,-1.04434 c 0,0 0.514139,-0.2892 0.578406,-0.32134 0.06427,-0.0321 1.638818,-0.17673 1.638818,-0.17673 l 1.462082,0.241 1.012211,0.61054 1.140745,0.89974 0.385604,1.25322 0.176736,1.02827 -0.594473,0.38561 -0.883677,-0.33741 -0.257069,-1.25321 c 0,0 -0.562339,-0.61054 -0.642673,-0.67481 -0.08033,-0.0643 -1.188946,-0.56234 -1.188946,-0.56234 l -0.899743,-0.1928 c 0,0 -0.706941,0.17674 -0.771209,0.241 -0.06427,0.0643 -0.514138,0.54628 -0.514138,0.54628 l -0.241003,0.6748 0.449871,0.59448 0.835476,0.482 1.188946,0.69088 0.642674,0.5784 0.674807,0.57841 0.626606,0.65874 0.417738,0.64267 c 0,0 0.08033,0.67481 0.08033,0.75514 0,0.0803 -0.273136,0.96401 -0.273136,0.96401 l -0.289203,0.53021 -0.498072,0.75514 -0.867609,0.49807 -0.91581,0.24101 -1.172879,-0.19281 -1.124679,-0.32133 -1.156812,-0.51414 -1.140746,-0.99615 -0.482005,-1.23714 -0.192802,-0.65874 0.01607,-0.70694 0.674807,-0.48201 0.578406,0.30527 z"
       id="path26" /><path
       id="path27"
       style="display:inline;opacity:1;fill:#fa0001;fill-opacity:1;stroke-width:0.1"
       d="m 84.832031,178.69531 -0.529297,0.28907 -0.33789,0.44921 -0.06445,0.45118 -1.783203,3.55078 -1.75,4.33789 0.642578,0.51367 0.658203,0.14453 0.255859,-0.12891 1.478516,-3.51757 0.289062,-0.14454 0.660156,0.22461 0.882813,0.44922 0.707031,0.57813 0.611328,1.57617 0.126954,1.83008 0.128906,1.10937 0.626953,0.62696 0.802734,0.49804 0.515625,-0.41797 -0.273437,-0.98046 -0.22461,-1.6543 -0.386718,-1.52735 -0.208985,-0.7539 0.482422,-0.25781 1.15625,-0.0645 0.980469,-0.60937 0.802734,-1.26953 -0.0625,-1.60743 -0.835937,-1.14062 -1.800782,-0.96484 -2.361328,-1.0918 z m 0.804688,1.81641 1.205078,0.35351 0.689453,0.38477 0.724609,0.36914 0.753907,0.51367 0.417968,0.58008 0.113282,0.625 -0.353516,0.61133 -0.273438,0.5293 -0.722656,0.32226 -0.93164,-0.17578 -1.269532,-0.45117 -1.318359,-0.5625 -0.546875,-0.30469 -0.0957,-0.78711 0.546875,-0.44922 0.111328,-0.67578 0.242188,-0.5625 z" /><path
       style="display:inline;opacity:1;fill:#fa0001;fill-opacity:1;stroke-width:0.1"
       d="m 78.470437,176.51028 2.377892,1.60669 1.413881,0.8194 0.947944,0.20887 0.433804,-0.44987 -0.192802,-0.80334 -6.95694,-4.22558 -0.739075,0.0643 -6.635604,4.46658 -0.417738,-0.1928 2.634962,-8.06555 -0.385605,-0.51414 -0.91581,-0.61055 -0.152635,-0.1928 -0.249035,-0.3374 -0.803342,-0.61054 -0.787275,0.54627 -0.273136,0.32134 -5.703728,6.28213 -0.08033,0.64268 0.30527,0.35347 0.514139,0.11247 0.385604,-0.0161 5.864396,-6.57134 0.666773,-0.5543 0.182303,0.12105 -0.158202,0.86706 -2.731363,9.5919 0.61054,0.57841 0.578406,0.27313 0.449872,-0.0803 7.696015,-5.01286 0.465938,0.24101 -4.514781,7.26221 -0.03213,0.54627 0.385604,0.44987 5.864396,3.51864 0.867609,-0.59447 -0.192802,-0.81941 -4.900385,-2.98844 1.510282,-2.47429 0.61054,0.0482 4.225579,2.5225 0.674807,-0.83548 -0.594473,-0.75514 -3.936375,-2.32969 0.0964,-1.02828 0.626606,-0.40167 -0.08033,-0.41774 0.530206,-0.482 z"
       id="path28" /><path
       style="display:inline;opacity:1;fill:#fa0001;fill-opacity:1;stroke-width:0.1"
       d="m 67.352185,167.06298 -6.844473,6.61954 -0.771208,0.0321 -0.835476,-1.09254 v -1.09255 l 2.313625,-7.19794 H 60.31491 l -4.241646,4.30591 -0.867609,0.0964 -0.578406,-0.99614 7.294344,-6.68381 0.61054,-0.16066 0.61054,1.31748 -2.120822,7.87275 0.385604,0.32133 4.980719,-4.43444 0.514139,-0.12854 0.578406,0.96401 z"
       id="path29" /><path
       style="opacity:1;fill:#fa0001;fill-opacity:1;stroke-width:0.1"
       d="m 60.089974,159.2545 -5.141388,3.75964 -1.317481,0.3856 -1.285347,-0.32133 -1.060411,-1.47815 -0.224936,-0.89975 0.224936,-0.93187 6.201799,-4.91646 -0.899743,-1.18894 -0.835475,0.22493 -0.160669,0.35347 -5.012853,3.88818 -0.674807,0.93188 -0.321337,1.25321 -0.03213,0.99614 0.289203,0.80334 0.482005,0.73908 0.353471,0.64267 0.867609,0.86761 0.931877,0.41774 0.867609,0.25707 2.249357,-0.48201 5.784062,-4.59511 -0.931877,-1.09255 z"
       id="path30" /><path
       style="opacity:1;fill:#fa0001;fill-opacity:1;stroke-width:0.1"
       d="m 44.955013,153.5347 8.547557,-4.46658 -0.03213,-0.89974 -0.803342,-0.67481 -8.354756,4.59512 -0.321337,0.93187 z"
       id="path31" /><path
       id="path32"
       style="display:inline;opacity:1;fill:#fa0001;fill-opacity:1;stroke-width:0.1"
       d="m 50.193359,142.25586 -10.605468,0.38476 -0.25586,0.58008 0.867188,1.02735 2.763672,-0.0957 1.638671,3.14844 v 0.57813 l -1.863281,1.86328 -0.289062,0.74023 0.384765,0.86719 0.546875,0.0644 7.646485,-7.67968 -0.0957,-0.57813 z m -2.345703,1.54297 0.642578,0.0644 0.03125,0.54492 -2.3125,2.08985 -0.740234,-0.45117 -0.673828,-1.60547 0.255859,-0.38672 z" /><path
       style="opacity:1;fill:#fa0001;fill-opacity:1;stroke-width:0.1"
       d="m 39.235218,141.87018 9.511568,-3.02057 -0.417737,-1.25321 -0.482006,-0.12853 -3.020565,1.02827 -0.642674,-0.44987 -1.221079,-4.11311 3.438303,-1.28535 0.417738,-0.44987 -0.482005,-1.06041 -1.670951,0.48201 -7.904885,2.28149 -0.257069,0.93187 0.257069,0.57841 0.514139,0.25707 3.631105,-1.22108 0.578407,0.22494 1.221079,4.04884 -0.289203,0.35347 -3.727506,1.15681 -0.289203,0.70694 0.192802,0.61054 z"
       id="path33" /><path
       style="opacity:1;fill:#fa0001;fill-opacity:1;stroke-width:0.1"
       d="m 43.573265,130.97686 1.703084,-1.22108 0.514139,-1.57455 -0.06427,-1.99228 -0.996144,-2.21723 -1.960154,-1.47815 -3.213368,-0.482 -3.181234,1.51028 -1.285347,2.21722 -0.06427,2.63497 0.674807,1.76735 1.060411,1.47815 0.867609,0.54627 2.410026,-0.51414 1.124679,-0.16067 0.03213,-0.67481 -0.642674,-3.50257 H 39.42802 c 0,0 -0.385604,0.48201 -0.35347,0.64268 0.03213,0.16067 0.385604,1.57455 0.385604,1.57455 l -0.257069,0.83547 -0.964011,0.0643 -0.61054,-0.1928 -0.96401,-1.70309 -0.257069,-1.54241 0.224936,-1.02828 0.514138,-0.86761 0.771209,-0.70694 c 0,0 0.610539,-0.2892 0.835475,-0.32134 0.224936,-0.0321 1.478149,-0.44987 1.478149,-0.44987 0,0 1.028278,0.0643 1.156813,0.12854 0.128534,0.0643 1.124678,0.3856 1.124678,0.3856 l 1.124679,1.12468 0.578406,1.06041 0.160668,1.67095 -0.546272,1.09255 -0.899743,0.54627 -0.321337,0.70694 0.25707,0.70694 z"
       id="path34" /><path
       style="opacity:1;fill:#fa0001;fill-opacity:1;stroke-width:0.1"
       d="m 44.183804,120.69409 -9.993573,0.5784 -0.128535,-1.47815 6.81234,-5.07712 -0.385604,-0.51414 -6.491003,0.41774 -0.546272,-0.482 0.192802,-0.96401 9.961439,-0.61054 0.417738,0.5784 -0.03213,1.02828 -6.619537,4.98072 0.224936,0.2892 6.748072,-0.25707 0.289203,0.77121 z"
       id="path35" /><path
       id="path36"
       style="display:inline;opacity:1;fill:#fa0001;fill-opacity:1;stroke-width:0.1"
       d="m 34.800781,102.53906 -0.642578,0.28906 -0.06445,0.86719 0.449219,0.70703 1.09375,0.38477 1.316406,0.86914 0.289063,0.19141 -0.384766,3.69531 -2.892578,1.22265 -0.128906,0.64258 -0.0957,0.57813 0.546875,0.1289 10.185547,-3.72851 v -1.15625 z m 4.337891,3.72656 2.957031,1.31836 -0.06445,0.38477 -3.212891,0.93164 -0.291015,-0.54492 0.226562,-1.89649 z" /><path
       style="opacity:1;fill:#fa0001;fill-opacity:1;stroke-width:0.1"
       d="m 34.575835,101.60668 3.920309,0.93188 2.763496,0.57841 2.217223,0.44987 0.835476,0.0643 0.514139,-0.96401 -0.578406,-0.70694 -3.181234,-0.5784 -0.514139,-0.57841 1.092545,-3.920307 0.514139,-0.289203 3.566838,0.706941 0.257069,-0.803342 -0.128534,-0.835476 -9.640103,-2.056555 -0.578406,0.835475 0.449871,0.899743 4.048843,0.931877 -0.771208,4.530847 -0.160668,0.1928 -4.080977,-0.86761 -0.642674,0.77121 z"
       id="path37" /><path
       style="opacity:1;fill:#fa0001;fill-opacity:1;stroke-width:0.1"
       d="m 43.380462,94.248071 1.799486,-0.128534 1.317481,-0.61054 0.739075,-1.124679 0.674807,-1.703085 -0.224936,-2.18509 -1.060411,-1.221079 -1.413882,-0.514139 -0.96401,0.192802 -1.381748,0.835476 -1.156813,2.217223 -1.028277,1.478149 -1.156813,0.160669 -0.835475,-0.578406 -0.224936,-1.156813 0.192802,-1.413882 0.803342,-1.124678 0.771208,-0.546273 1.22108,-0.224935 0.449871,-0.06427 0.224936,-0.931876 -0.61054,-0.449872 -1.606684,0.289203 -1.31748,0.739075 -0.771208,1.124678 -0.578407,1.413882 -0.257069,1.188946 0.06427,1.156813 0.385604,0.996143 1.349615,0.964011 1.542416,0.128534 1.285347,-0.385604 1.060412,-1.446015 1.188946,-1.863753 0.674807,-0.771209 0.835475,-0.160668 0.578407,0.514139 0.482005,0.674807 -0.321337,1.478149 -0.642674,0.996144 -1.381748,0.706941 -0.899743,0.128535 z"
       id="path38" /></g></svg>
